<?xml version="1.0" encoding="utf-8"?>
<!-- Generator: Adobe Illustrator 25.4.1, SVG Export Plug-In . SVG Version: 6.00 Build 0)  -->
<svg version="1.1" id="圖層_1" xmlns="http://www.w3.org/2000/svg" xmlns:xlink="http://www.w3.org/1999/xlink" x="0px" y="0px"
	 width="251px" height="181px" viewBox="0 0 251 181" style="enable-background:new 0 0 251 181;" xml:space="preserve">
<style type="text/css">
	.st0{fill:url(#SVGID_1_);}
	.st1{fill:url(#SVGID_00000130616999660317133020000009528693690397384858_);}
	.st2{fill:url(#SVGID_00000013895414887008823810000009016839445330472638_);}
	.st3{fill:url(#SVGID_00000114758804734530036520000008101476704621728677_);}
	.st4{fill:url(#SVGID_00000102524533764244699620000008140134011869906084_);}
	.st5{fill:url(#SVGID_00000007395367239369808890000005146722160527132321_);}
	.st6{fill:url(#SVGID_00000105403276725547416550000008891360070402983597_);}
	.st7{fill:url(#SVGID_00000161603505327041797410000013210029932788164762_);}
</style>
<linearGradient id="SVGID_1_" gradientUnits="userSpaceOnUse" x1="-187.9067" y1="83.4339" x2="127.1983" y2="-35.2514" gradientTransform="matrix(1 0 0 -1 0 181)">
	<stop  offset="0" style="stop-color:#B85E00"/>
	<stop  offset="0.5816" style="stop-color:#FFB888"/>
	<stop  offset="1" style="stop-color:#B85E00"/>
</linearGradient>
<path class="st0" d="M-268,81.9c21.7,18.3,46,27.7,72.6,20.5c4.5-1.2,10.3-2.8,16.1-4.4C-78,70.4-0.6,49.4,69.3,89.5
	c51.9,29.8,68.4,164.2,73.5,240.8l0.7-0.1c-5.2-76.8-21.7-211.4-73.9-241.3C-0.5,48.5-78,69.6-179.6,97.3c-4.8,1.3-9.7,2.6-16.1,4.4
	c-26.1,7.1-50.1-2-71.4-19.9L-268,81.9L-268,81.9z"/>
<linearGradient id="SVGID_00000124870791703981496270000011631226237258927261_" gradientUnits="userSpaceOnUse" x1="-176.4486" y1="87.0967" x2="142.4025" y2="-36.3548" gradientTransform="matrix(1 0 0 -1 0 181)">
	<stop  offset="0" style="stop-color:#B85E00"/>
	<stop  offset="0.5816" style="stop-color:#FFB888"/>
	<stop  offset="1" style="stop-color:#B85E00"/>
</linearGradient>
<path style="fill:url(#SVGID_00000124870791703981496270000011631226237258927261_);" d="M-258.8,80.3c23.9,23.8,51.5,37.4,82,29.1
	c4.4-1.2,10.3-2.8,16.1-4.4C-59.4,77.4,18,56.4,87.9,96.5c49.7,28.5,66.9,152.8,72.8,230.6l0.7-0.1c-5.9-77.9-23.2-202.5-73.2-231.1
	C18.1,55.6-59.4,76.6-161,104.3c-4.8,1.3-9.7,2.6-16.1,4.4c-30,8.1-57.2-5.1-80.9-28.5L-258.8,80.3L-258.8,80.3z"/>
<linearGradient id="SVGID_00000182490523350121834530000018114767288649566902_" gradientUnits="userSpaceOnUse" x1="-164.3654" y1="90.1871" x2="157.5926" y2="-37.3586" gradientTransform="matrix(1 0 0 -1 0 181)">
	<stop  offset="0" style="stop-color:#B85E00"/>
	<stop  offset="0.5816" style="stop-color:#FFB888"/>
	<stop  offset="1" style="stop-color:#B85E00"/>
</linearGradient>
<path style="fill:url(#SVGID_00000182490523350121834530000018114767288649566902_);" d="M-248.5,78.4c25.8,29.2,56.2,47.2,90.3,38
	c4.5-1.2,10.3-2.8,16.1-4.4c101.4-27.6,178.7-48.6,248.7-8.5c47.6,27.3,65.4,142.4,72,220.4l0.7-0.1
	c-6.7-78.2-24.5-193.5-72.4-220.9c-70.2-40.3-147.7-19.2-249.2,8.5c-4.8,1.3-9.7,2.6-16.1,4.4c-33.6,9.1-63.7-8.6-89.2-37.4
	L-248.5,78.4z"/>
<linearGradient id="SVGID_00000135654080280073269360000010897361840831214471_" gradientUnits="userSpaceOnUse" x1="-153.432" y1="92.5469" x2="170.873" y2="-38.1817" gradientTransform="matrix(1 0 0 -1 0 181)">
	<stop  offset="0" style="stop-color:#B85E00"/>
	<stop  offset="0.5816" style="stop-color:#FFB888"/>
	<stop  offset="1" style="stop-color:#B85E00"/>
</linearGradient>
<path style="fill:url(#SVGID_00000135654080280073269360000010897361840831214471_);" d="M-238.8,76.7
	c27.1,33.7,59.9,55.8,96.9,45.8c4.5-1.2,10.3-2.8,16.1-4.4c101.4-27.6,178.7-48.6,248.7-8.5c45.8,26.3,64,133.9,71.2,211.5l0.7-0.1
	c-7.2-77.8-25.5-185.6-71.6-212.1C53,68.7-24.5,89.8-126,117.5c-4.8,1.3-9.7,2.6-16.1,4.4c-36.6,9.9-69-11.9-95.9-45.2L-238.8,76.7z
	"/>
<linearGradient id="SVGID_00000092416436078423692820000008849748314615910794_" gradientUnits="userSpaceOnUse" x1="-142.5977" y1="94.5858" x2="183.7242" y2="-38.942" gradientTransform="matrix(1 0 0 -1 0 181)">
	<stop  offset="0" style="stop-color:#B85E00"/>
	<stop  offset="0.5816" style="stop-color:#FFB888"/>
	<stop  offset="1" style="stop-color:#B85E00"/>
</linearGradient>
<path style="fill:url(#SVGID_00000092416436078423692820000008849748314615910794_);" d="M-229,75c28.2,38,63.1,64.3,102.8,53.5
	c4.5-1.2,10.3-2.8,16.1-4.4c101.4-27.6,178.7-48.6,248.7-8.5c44.1,25.3,62.6,126.2,70.4,202.9l0.7-0.1
	c-7.8-76.9-26.4-178-70.7-203.4C68.8,74.7-8.7,95.8-110.2,123.4c-4.8,1.3-9.7,2.6-16.1,4.4c-39.3,10.6-73.8-15.3-101.9-52.9L-229,75
	z"/>
<linearGradient id="SVGID_00000007416192513876006600000006280777156372848567_" gradientUnits="userSpaceOnUse" x1="-126.28" y1="109.4752" x2="194.131" y2="-31.8496" gradientTransform="matrix(1 0 0 -1 0 181)">
	<stop  offset="0" style="stop-color:#B85E00"/>
	<stop  offset="0.5816" style="stop-color:#FFB888"/>
	<stop  offset="1" style="stop-color:#B85E00"/>
</linearGradient>
<path style="fill:url(#SVGID_00000007416192513876006600000006280777156372848567_);" d="M-218.5,73.1c29.2,42.2,66.1,73,108.6,61.5
	c4.5-1.2,10.3-2.8,16.1-4.4c101.4-27.6,178.7-48.6,248.7-8.5c39.7,22.8,58.7,106.7,67.7,179.3l0.3-3.9
	c-9.3-71.8-28.3-153.5-67.6-176C85,80.8,7.5,101.9-94,129.5c-4.8,1.3-9.7,2.6-16.1,4.4c-42.1,11.4-78.6-19.1-107.6-60.9L-218.5,73.1
	z"/>
<linearGradient id="SVGID_00000097478644753532731100000011777916050399937973_" gradientUnits="userSpaceOnUse" x1="-111.3985" y1="121.9296" x2="169.8916" y2="-40.8749" gradientTransform="matrix(1 0 0 -1 0 181)">
	<stop  offset="0" style="stop-color:#B85E00"/>
	<stop  offset="0.5816" style="stop-color:#FFB888"/>
	<stop  offset="1" style="stop-color:#B85E00"/>
</linearGradient>
<path style="fill:url(#SVGID_00000097478644753532731100000011777916050399937973_);" d="M-208.2,71.3c30,46,68.7,81.3,113.7,69.1
	c4.5-1.2,10.3-2.8,16.1-4.4c101.4-27.6,178.7-48.6,248.7-8.5c27.7,15.9,45.3,61.5,56.5,112.3l0.2-2.6c-11.3-50-28.8-94.6-56.3-110.4
	c-70.2-40.3-147.7-19.2-249.2,8.5c-4.8,1.3-9.7,2.6-16.1,4.4c-44.6,12.1-82.9-22.9-112.7-68.5L-208.2,71.3L-208.2,71.3z"/>
<linearGradient id="SVGID_00000178163304902466870480000002354966888596229760_" gradientUnits="userSpaceOnUse" x1="-95.4634" y1="131.8282" x2="147.1516" y2="-40.1539" gradientTransform="matrix(1 0 0 -1 0 181)">
	<stop  offset="0" style="stop-color:#B85E00"/>
	<stop  offset="0.5816" style="stop-color:#FFB888"/>
	<stop  offset="1" style="stop-color:#B85E00"/>
</linearGradient>
<path style="fill:url(#SVGID_00000178163304902466870480000002354966888596229760_);" d="M-196.9,69.3
	c30.7,49.9,71.2,90.3,118.9,77.4c4.5-1.2,10.3-2.8,16.1-4.4c101.4-27.6,178.7-48.6,248.7-8.5c18.3,10.5,32.2,34,42.7,63.3l0.1-1.8
	c-10.5-28.8-24.4-51.8-42.5-62.2C117,92.9,39.5,114-62.1,141.6c-4.8,1.3-9.7,2.6-16.1,4.4c-47.2,12.8-87.5-27.2-117.9-76.8
	L-196.9,69.3z"/>
</svg>
