<?xml version="1.0" encoding="utf-8"?>
<!-- Generator: Adobe Illustrator 25.4.1, SVG Export Plug-In . SVG Version: 6.00 Build 0)  -->
<svg version="1.1" id="圖層_1" xmlns="http://www.w3.org/2000/svg" xmlns:xlink="http://www.w3.org/1999/xlink" x="0px" y="0px"
	 width="773px" height="754px" viewBox="0 0 773 754" style="enable-background:new 0 0 773 754;" xml:space="preserve">
<style type="text/css">
	.st0{fill:#FFE9DB;}
</style>
<path class="st0" d="M483.8,753.9c1.2-38.9-9.5-73.1-39.9-95.6c-5.1-3.8-11.8-8.7-18.4-13.6c-116.2-85.6-204.9-151-221.3-260.5
	C192,302.9,322.7,170.6,400.7,99.7L400,99c-78.2,71.1-209.1,203.7-196.8,285.4c16.5,109.9,105.4,175.4,221.7,261.2
	c5.5,4.1,11.1,8.2,18.4,13.6c29.9,22.1,40.6,55.6,39.5,93.9L483.8,753.9L483.8,753.9z"/>
<path class="st0" d="M474.2,745.4c5.3-46.1-3.7-87.3-38.6-113.1c-5.1-3.8-11.8-8.7-18.4-13.6c-116.2-85.6-204.9-151-221.3-260.5
	c-11.7-77.8,107.5-202.4,186.2-275.1l-0.8-0.7c-78.8,72.9-198.2,197.7-186.4,276c16.5,109.9,105.4,175.4,221.7,261.2
	c5.5,4.1,11.1,8.2,18.4,13.6c34.4,25.4,43.3,66,38.3,111.5L474.2,745.4L474.2,745.4z"/>
<path class="st0" d="M463.5,735.9c9.5-52.7,2.9-100.8-36.1-129.6c-5.1-3.8-11.8-8.7-18.4-13.6c-116.2-85.6-204.9-151-221.3-260.5
	c-11.2-74.5,97.6-191.9,175.9-265.6l-0.8-0.7c-78.5,73.9-187.4,191.5-176.2,266.4C203.1,442.2,292,507.7,408.3,593.5
	c5.5,4.1,11.1,8.2,18.4,13.6c38.5,28.4,45.1,75.9,35.9,128L463.5,735.9z"/>
<path class="st0" d="M453.4,726.9c13.2-58,9.1-112.1-33.3-143.4c-5.1-3.8-11.8-8.7-18.4-13.6c-116.2-85.6-204.9-151-221.3-260.5
	c-10.8-71.7,89.6-183.2,167-257.1l-0.8-0.7c-77.5,74.1-178.1,185.8-167.3,258C195.8,419.5,284.6,485,401,570.7
	c5.5,4.1,11.1,8.2,18.4,13.6c41.9,30.9,46.1,84.4,33.1,141.8L453.4,726.9z"/>
<path class="st0" d="M443.1,717.8C459.9,655,458.5,595,413,561.4c-5.1-3.8-11.8-8.7-18.4-13.6c-116.2-85.6-204.9-151-221.3-260.5
	c-10.4-69.1,82.4-175.1,158.5-248.9l-0.8-0.7c-76.2,74-169.2,180.2-158.7,249.7c16.5,110,105.3,175.5,221.7,261.2
	c5.5,4.1,11.1,8.2,18.4,13.6c45,33.3,46.5,92.6,29.9,154.8L443.1,717.8z"/>
<path class="st0" d="M432.1,708.1c20.5-67.4,22.3-133.4-26.4-169.4c-5.1-3.8-11.8-8.7-18.4-13.6c-116.2-85.6-204.9-151-221.3-260.5
	c-9.4-62.2,64.9-154.2,135.3-225.8l-4.4,3C227.5,113,155.7,203.3,165,264.8C181.5,374.7,270.4,440.2,386.7,526
	c5.5,4.1,11.1,8.2,18.4,13.6c48.1,35.6,46.5,100.9,26.2,167.8L432.1,708.1z"/>
<path class="st0" d="M421.5,698.6c23.9-71.5,29-143.3-22.6-181.4c-5.1-3.8-11.8-8.7-18.4-13.6c-116.2-85.6-204.9-151-221.3-260.5
	c-6.5-43.4,27.6-101.3,72.7-156.6l-2.9,2c-44.2,54.8-77.3,111.8-70.9,154.8c16.5,109.9,105.4,175.4,221.7,261.2
	c5.5,4.1,11.1,8.2,18.4,13.6c51,37.7,46.1,108.8,22.4,179.8L421.5,698.6L421.5,698.6z"/>
<path class="st0" d="M409.6,688.1c27.6-75.6,36.5-153.7-18.1-194.1c-5.1-3.8-11.8-8.7-18.4-13.6c-116.2-85.6-204.9-151-221.3-260.5
	c-4.3-28.7,9.1-63.6,31.7-100l-2,1.4c-22,35.9-35.1,70.5-30.8,98.8C167.2,330,256.1,395.5,372.4,481.2c5.5,4.1,11.1,8.2,18.4,13.6
	c54.1,40,45.3,117.4,17.9,192.5L409.6,688.1z"/>
</svg>
