<?xml version="1.0" encoding="utf-8"?>
<!-- Generator: Adobe Illustrator 25.4.1, SVG Export Plug-In . SVG Version: 6.00 Build 0)  -->
<svg version="1.1" id="圖層_1" xmlns="http://www.w3.org/2000/svg" xmlns:xlink="http://www.w3.org/1999/xlink" x="0px" y="0px"
	 width="366px" height="533px" viewBox="0 0 366 533" style="enable-background:new 0 0 366 533;" xml:space="preserve">
<style type="text/css">
	.st0{fill:url(#SVGID_1_);}
	.st1{fill:url(#SVGID_00000155836612008385948460000011106158661244889009_);}
	.st2{fill:url(#SVGID_00000057115507876682589010000008172244807936952764_);}
	.st3{fill:url(#SVGID_00000085955882243480269840000013457878323230837181_);}
	.st4{fill:url(#SVGID_00000067926933324872992050000006710575761315834002_);}
	.st5{fill:url(#SVGID_00000078738178622621025640000012534951908046870666_);}
	.st6{fill:url(#SVGID_00000057844184199095461440000003087842853091425166_);}
	.st7{fill:url(#SVGID_00000119095500061951208950000013964175076114805649_);}
</style>
<linearGradient id="SVGID_1_" gradientUnits="userSpaceOnUse" x1="335.3364" y1="68.8183" x2="203.1514" y2="378.5033" gradientTransform="matrix(1 0 0 -1 0 533)">
	<stop  offset="0" style="stop-color:#B85E00"/>
	<stop  offset="0.5816" style="stop-color:#FFB888"/>
	<stop  offset="1" style="stop-color:#B85E00"/>
</linearGradient>
<path class="st0" d="M379.4,532.9c-1.8-28.3-11.8-52.4-35.4-66.6c-4-2.4-9.2-5.5-14.3-8.6c-90-54.1-158.7-95.5-178.1-173.7
	c-14.4-58.1,71.3-162.9,123.1-219.6l-0.6-0.4c-51.8,56.8-137.6,161.8-123.2,220.3c19.5,78.6,88.3,119.9,178.5,174.2
	c4.3,2.6,8.6,5.2,14.3,8.6c23.2,14,33.2,37.6,35,65.4L379.4,532.9L379.4,532.9z"/>
<linearGradient id="SVGID_00000104665735065630228430000003838109549906909100_" gradientUnits="userSpaceOnUse" x1="324.7672" y1="74.5626" x2="193.4342" y2="390.2486" gradientTransform="matrix(1 0 0 -1 0 533)">
	<stop  offset="0" style="stop-color:#B85E00"/>
	<stop  offset="0.5816" style="stop-color:#FFB888"/>
	<stop  offset="1" style="stop-color:#B85E00"/>
</linearGradient>
<path style="fill:url(#SVGID_00000104665735065630228430000003838109549906909100_);" d="M371.9,527.4c0.7-33.8-8.6-63-35.6-79.3
	c-3.9-2.4-9.1-5.5-14.3-8.6c-90-54.1-158.7-95.5-178.1-173.7C130,210.1,207.9,111.7,260,53.7l-0.6-0.4
	C207.2,111.4,129.2,210,143.1,265.9c19.5,78.6,88.3,119.9,178.5,174.2c4.3,2.6,8.6,5.2,14.3,8.6c26.6,16.1,35.9,44.9,35.3,78.2
	L371.9,527.4L371.9,527.4z"/>
<linearGradient id="SVGID_00000008147321751643409900000000861068564507644311_" gradientUnits="userSpaceOnUse" x1="314.1785" y1="81.1535" x2="183.6545" y2="401.9145" gradientTransform="matrix(1 0 0 -1 0 533)">
	<stop  offset="0" style="stop-color:#B85E00"/>
	<stop  offset="0.5816" style="stop-color:#FFB888"/>
	<stop  offset="1" style="stop-color:#B85E00"/>
</linearGradient>
<path style="fill:url(#SVGID_00000008147321751643409900000000861068564507644311_);" d="M363.4,521.2c3.3-38.8-4.8-73.2-35-91.5
	c-4-2.4-9.2-5.5-14.3-8.6c-90-54.1-158.7-95.5-178.1-173.7C122.8,194.2,193.7,101.7,245.4,43l-0.6-0.4
	C193,101.4,122,194.1,135.3,247.6c19.5,78.6,88.3,119.9,178.5,174.2c4.3,2.6,8.6,5.2,14.3,8.6c29.8,18,37.9,51.9,34.7,90.3
	L363.4,521.2z"/>
<linearGradient id="SVGID_00000087394895620730680600000009675851036785088418_" gradientUnits="userSpaceOnUse" x1="304.9137" y1="87.4184" x2="175.0647" y2="412.0774" gradientTransform="matrix(1 0 0 -1 0 533)">
	<stop  offset="0" style="stop-color:#B85E00"/>
	<stop  offset="0.5816" style="stop-color:#FFB888"/>
	<stop  offset="1" style="stop-color:#B85E00"/>
</linearGradient>
<path style="fill:url(#SVGID_00000087394895620730680600000009675851036785088418_);" d="M355.5,515.4c5.6-42.9-1.1-81.9-33.9-101.7
	c-4-2.4-9.2-5.5-14.3-8.6c-90-54.1-158.7-95.5-178.1-173.7c-12.7-51.3,52.5-138.8,103.5-197.7l-0.6-0.4
	C181,92.2,115.7,180,128.5,231.6c19.5,78.6,88.3,119.9,178.5,174.2c4.3,2.6,8.6,5.2,14.3,8.6c32.5,19.6,39.1,58,33.6,100.5
	L355.5,515.4z"/>
<linearGradient id="SVGID_00000031915897479902014800000014489259811357430189_" gradientUnits="userSpaceOnUse" x1="295.9472" y1="93.8345" x2="166.7262" y2="421.8855" gradientTransform="matrix(1 0 0 -1 0 533)">
	<stop  offset="0" style="stop-color:#B85E00"/>
	<stop  offset="0.5816" style="stop-color:#FFB888"/>
	<stop  offset="1" style="stop-color:#B85E00"/>
</linearGradient>
<path style="fill:url(#SVGID_00000031915897479902014800000014489259811357430189_);" d="M347.4,509.5c7.9-46.7,2.8-90-32.5-111.3
	c-4-2.4-9.2-5.5-14.3-8.6c-90-54.1-158.7-95.5-178.1-173.7c-12.2-49.4,47.8-132.5,97.9-191.2l-0.6-0.4
	C169.7,83,109.5,166.4,121.8,216c19.5,78.6,88.3,119.9,178.5,174.2c4.3,2.6,8.6,5.2,14.3,8.6c34.9,21,40,63.9,32.2,110.2
	L347.4,509.5z"/>
<linearGradient id="SVGID_00000072980111030467275330000004210737881512830909_" gradientUnits="userSpaceOnUse" x1="273.9081" y1="95.3236" x2="154.4061" y2="424.4976" gradientTransform="matrix(1 0 0 -1 0 533)">
	<stop  offset="0" style="stop-color:#B85E00"/>
	<stop  offset="0.5816" style="stop-color:#FFB888"/>
	<stop  offset="1" style="stop-color:#B85E00"/>
</linearGradient>
<path style="fill:url(#SVGID_00000072980111030467275330000004210737881512830909_);" d="M338.8,503.2c10.3-50.3,7.1-98.2-30.6-121
	c-4-2.4-9.2-5.5-14.3-8.6c-90-54.1-158.7-95.5-178.1-173.7c-11-44.5,36.5-116.2,82.7-172.9l-3,2.5C150,85.8,104.2,156.1,115,200.1
	c19.5,78.6,88.3,119.9,178.5,174.2c4.3,2.6,8.6,5.2,14.3,8.6c37.3,22.5,40.5,70,30.4,119.8L338.8,503.2z"/>
<linearGradient id="SVGID_00000147200197278408383830000014440840201927314818_" gradientUnits="userSpaceOnUse" x1="254.6207" y1="97.4609" x2="177.6886" y2="413.2309" gradientTransform="matrix(1 0 0 -1 0 533)">
	<stop  offset="0" style="stop-color:#B85E00"/>
	<stop  offset="0.5816" style="stop-color:#FFB888"/>
	<stop  offset="1" style="stop-color:#B85E00"/>
</linearGradient>
<path style="fill:url(#SVGID_00000147200197278408383830000014440840201927314818_);" d="M330.4,497
	c12.5-53.4,11.2-105.8-28.7-129.9c-4-2.4-9.2-5.5-14.3-8.6c-90-54.1-158.7-95.5-178.1-173.7c-7.7-31,13.1-75.3,42-118.4l-2,1.6
	c-28.3,42.7-48.4,86.3-40.8,117c19.5,78.6,88.3,119.9,178.5,174.2c4.3,2.6,8.6,5.2,14.3,8.6c39.5,23.9,40.8,75.7,28.5,128.8
	L330.4,497L330.4,497z"/>
<linearGradient id="SVGID_00000096759807699080278150000015430930790232988804_" gradientUnits="userSpaceOnUse" x1="236.4502" y1="102.1256" x2="192.8942" y2="396.3066" gradientTransform="matrix(1 0 0 -1 0 533)">
	<stop  offset="0" style="stop-color:#B85E00"/>
	<stop  offset="0.5816" style="stop-color:#FFB888"/>
	<stop  offset="1" style="stop-color:#B85E00"/>
</linearGradient>
<path style="fill:url(#SVGID_00000096759807699080278150000015430930790232988804_);" d="M321.1,490.2
	c14.8-56.6,16-113.9-26.3-139.4c-4-2.4-9.2-5.5-14.3-8.6c-90-54.1-158.7-95.5-178.1-173.7c-5.1-20.5,2.3-46.7,16.2-74.7l-1.4,1.1
	c-13.5,27.5-20.6,53.4-15.6,73.7c19.5,78.6,88.3,119.9,178.5,174.2c4.3,2.6,8.6,5.2,14.3,8.6c41.9,25.3,40.8,82,26.1,138.3
	L321.1,490.2z"/>
</svg>
