<?xml version="1.0" encoding="utf-8"?>
<!-- Generator: Adobe Illustrator 25.4.1, SVG Export Plug-In . SVG Version: 6.00 Build 0)  -->
<svg version="1.1" id="圖層_1" xmlns="http://www.w3.org/2000/svg" xmlns:xlink="http://www.w3.org/1999/xlink" x="0px" y="0px"
	 width="392px" height="635px" viewBox="0 0 392 635" style="enable-background:new 0 0 392 635;" xml:space="preserve">
<style type="text/css">
	.st0{fill-rule:evenodd;clip-rule:evenodd;fill:url(#SVGID_1_);}
</style>
<linearGradient id="SVGID_1_" gradientUnits="userSpaceOnUse" x1="263.417" y1="591.9429" x2="96.6" y2="189.0884" gradientTransform="matrix(1 0 0 -1 0 635)">
	<stop  offset="0.2424" style="stop-color:#B85E00"/>
	<stop  offset="0.4646" style="stop-color:#FFB888"/>
	<stop  offset="0.9298" style="stop-color:#B85E00"/>
</linearGradient>
<path class="st0" d="M278.2,403.4c-14.2,5.9-26.1,15.9-35.6,27.8c-9.1,11.6-16.1,24.6-21.6,38.3c-5.9,14.8-10.3,30.9-14.7,47l0,0
	l0,0v0l0,0l0,0v0l0,0h0v0l0,0l0,0v0l0,0l0,0v0l0,0l0,0v0l0,0h0c-10.7,39.5-21.6,79.6-56.2,104.3c-19.9,14.2-44.4,17.8-67.5,10
	c-21.9-7.4-40.9-23.4-52.5-43.3c-13.6-23.1-17.1-51-14.6-77.3c2.6-27.6,12.2-53.2,23.3-78.3c0.9-2.1,1.9-4.2,2.8-6.3
	c9.7-21.8,19.7-44.1,22.6-68c1.7-14.1,0.5-28.3-3.3-42c-3.9-14.1-10-27.4-16.3-40.6c-0.4-0.9-0.9-1.8-1.3-2.7
	c-12-25.3-24.2-50.8-23.5-79.5c0.2-6.8,0.8-13.5,1.5-20.3l0,0l0,0h0v0l0,0h0l0,0l0,0l0,0l0,0l0,0l0,0l0,0l0,0l0,0h0v0l0,0h0l0,0
	c0.8-8.3,1.6-16.6,1.5-24.9c-0.2-15.2-3.6-31.8-14.8-42.9c-3.8-3.7-6.4-7.3-7.1-12.7C0.2,87,1.4,81.5,3.8,76.9
	c6.1-11.7,20-16.7,31.9-20.5c21.3-6.7,42.6-13.3,63.9-19.9l0,0l0,0l0,0l0,0l0,0l0,0l0,0l0,0l0,0l0,0l0,0l0,0l0,0l0,0l0,0l0,0l0,0
	l0,0l0,0c10.5-3.2,20.9-6.4,31.4-9.7c5.1-1.6,10.2-3.2,15.3-4.8l0,0c10.6-3.3,21.2-6.6,31.8-9.8c11.8-3.6,23.7-7,35.8-9.2
	c23.2-4.3,48.3-4.1,68.5,9.5c22.1,14.8,33.8,40.7,44.5,64.3l0,0l0,0l0,0l0,0l0,0l0,0l0,0c0.5,1.1,1,2.1,1.4,3.1
	c13.7,30.2,25.6,61.1,35.6,92.7c9.8,30.6,18.2,61.9,23.9,93.5c4.9,27.1,6.4,56-5.1,81.7c-4.9,11-12.1,21.2-21.6,28.7
	c-11.2,9-25,13.2-38.9,16c-3.6,0.7-7.2,1.4-10.8,2.1h0l0,0h0l0,0h0l0,0l0,0h0l0,0C300.2,396.9,288.9,399,278.2,403.4z M242,430.7
	C242,430.7,242,430.7,242,430.7c-19.6,24.9-27.7,54.8-35.8,84.6c-6.9,25.4-13.8,50.9-27.9,73.4c-13.9,22.2-35.2,41.6-62.1,45
	c-23.8,3-47.5-6.7-65.2-22.2C8.1,574,9.7,511.2,27.5,461.6c4.2-11.7,9.3-23.1,14.4-34.5c5.4-12.1,10.8-24.3,15.2-36.9
	c4-11.6,7.2-23.5,8.3-35.7c1.2-12.6,0-25.3-3.3-37.5c-4.3-16.4-11.6-31.6-18.9-46.8c-5-10.4-10-20.9-14-31.7
	c-5.1-13.6-8.5-27.8-8.5-42.4c0-7.9,0.7-15.7,1.5-23.5l0,0l0,0c0.7-6.9,1.3-13.9,1.5-20.8c0.3-13.5-1.6-27.9-8.9-39.6
	c-1.6-2.5-3.4-5-5.5-7.1c-0.4-0.4-0.8-0.9-1.2-1.3c-2-2-3.9-3.9-5-6.7c-2.3-5.7-1.6-12.4,0.8-18C9.4,65.7,25,60.6,37.8,56.6
	c10.4-3.2,20.7-6.4,31.1-9.7c5.2-1.6,10.4-3.2,15.6-4.8c10.2-3.2,20.5-6.4,30.7-9.5l0,0l0,0l0,0l0,0l0,0l0,0l0,0l0,0l0,0l0,0l0,0
	l0,0l0,0l0,0l0,0l0,0l0,0c20.8-6.5,41.5-12.9,62.3-19.3c23.2-7.2,48-14.1,72.5-11.4c12.3,1.4,24.1,5.5,34.1,12.8
	c11,8,19.2,19,26,30.6c7.5,12.9,13.7,26.6,19.7,40.2c6.6,14.8,12.7,29.8,18.5,44.9c11.4,30.1,21.1,60.9,29,92.1l0.4,1.4
	c7.3,28.9,15,59.2,12.8,89.1c-1.8,25.5-12.5,52.2-34.6,66.7c-13.5,8.9-29.2,11.7-44.9,14.6c-13.3,2.4-26.6,4.9-38.7,10.9
	C260.4,411.3,250.3,420.3,242,430.7C242,430.7,242,430.7,242,430.7z M274.4,394.4c-13.6,5.6-24.9,15.2-34,26.6
	c-8.7,11.1-15.4,23.5-20.6,36.6c-5.7,14.2-9.8,29.5-14,44.9v0c-10.2,37.7-20.6,76-53.7,99.7c-19,13.5-42.4,17-64.5,9.6
	c-20.9-7.1-39-22.4-50.2-41.4c-12.9-22-16.3-48.7-13.9-73.8c2.5-26.4,11.6-50.8,22.3-74.8c0.9-2,1.8-4,2.7-6l0,0l0,0
	c9.3-20.9,18.8-42.1,21.6-65c1.7-13.5,0.5-27-3.1-40.1c-3.7-13.4-9.6-26.2-15.5-38.7c-0.4-0.9-0.8-1.7-1.2-2.6l0,0
	c-11.5-24.1-23.1-48.6-22.5-75.9c0.1-6.5,0.8-12.9,1.4-19.4l0,0l0,0c0.8-7.9,1.5-15.9,1.4-23.8c-0.2-14.6-3.4-30.4-14.2-41
	c-3.6-3.6-6.1-6.9-6.7-12.2c-0.6-5,0.5-10.2,2.8-14.6c5.9-11.2,19.1-16,30.4-19.6c20.3-6.5,40.7-12.7,61.1-19l0,0v0v0l0,0v0v0l0,0v0
	l0,0v0v0l0,0v0l0,0v0v0l0,0v0l0,0l0,0l0,0l0,0l0,0l0,0l0,0l0,0l0,0l0,0l0,0l0,0l0,0l0,0l0,0l0,0l0,0l0,0l0,0l0,0l0,0l0,0
	c10-3.1,20-6.1,29.9-9.2c4.7-1.5,9.5-2.9,14.2-4.4l0,0l0,0l0,0c10.2-3.2,20.5-6.4,30.7-9.5c11.3-3.5,22.6-6.7,34.2-8.8
	c22.1-4.1,46.1-3.9,65.5,9.1c21.1,14.1,32.3,38.9,42.5,61.4c0.5,1,0.9,2.1,1.4,3.1c13.1,28.8,24.4,58.4,34.1,88.6
	c9.3,29.2,17.4,59.1,22.9,89.3c4.7,25.9,6.1,53.5-4.9,78.1c-4.7,10.5-11.6,20.2-20.6,27.5c-10.7,8.6-23.9,12.6-37.1,15.3
	c-3.4,0.7-6.9,1.3-10.3,2C295.5,388.2,284.6,390.1,274.4,394.4z M239.8,420.5c-18.7,23.8-26.4,52.3-34.2,80.8
	c-6.6,24.3-13.2,48.6-26.6,70.1c-13.3,21.2-33.6,39.7-59.3,43c-22.7,2.9-45.4-6.4-62.3-21.2c-40.9-35.8-39.4-95.9-22.4-143.3
	c4-11.2,8.9-22.1,13.7-33c5.2-11.6,10.3-23.2,14.5-35.2c3.8-11.1,6.8-22.5,7.9-34.1c1.1-12.1,0-24.1-3.1-35.9
	c-4.1-15.6-11.1-30.2-18.1-44.7l0,0c-4.8-10-9.5-19.9-13.4-30.2c-4.9-13-8.1-26.6-8.1-40.5c0-7.5,0.7-15,1.4-22.4l0,0
	c0.6-6.6,1.3-13.2,1.4-19.9c0.3-12.9-1.5-26.6-8.5-37.8c-1.5-2.4-3.3-4.7-5.3-6.8c-0.4-0.4-0.8-0.8-1.2-1.2
	c-1.9-1.9-3.7-3.7-4.8-6.4c-2.2-5.5-1.6-11.9,0.7-17.2c5.5-12.7,20.4-17.6,32.6-21.4c10-3.1,20-6.2,30-9.3l0,0
	c4.9-1.5,9.7-3,14.6-4.5c9.8-3,19.6-6.1,29.3-9.1l0,0c19.8-6.2,39.7-12.3,59.5-18.5c22.2-6.8,45.8-13.5,69.3-10.9
	c11.7,1.3,23,5.3,32.6,12.2c10.5,7.6,18.4,18.2,24.9,29.2c7.2,12.3,13.1,25.4,18.8,38.4c6.3,14.1,12.2,28.4,17.6,42.9
	c10.9,28.8,20.1,58.1,27.7,87.9l0.3,1.3c7,27.6,14.3,56.5,12.2,85.1c-1.8,24.3-11.9,49.9-33,63.7c-12.9,8.5-27.9,11.2-42.9,13.9
	c-12.7,2.3-25.4,4.6-36.9,10.5C257.4,401.8,247.8,410.5,239.8,420.5C239.8,420.4,239.8,420.5,239.8,420.5z M238.2,410.6
	c8.7-10.8,19.5-20,32.4-25.3c9.7-4,20.1-5.9,30.4-7.8l0,0h0l0,0h0l0,0h0l0,0h0l0,0l0,0h0l0,0h0l0,0h0l0,0h0l0,0h0l0,0
	c3.3-0.6,6.5-1.2,9.8-1.9c12.6-2.6,25.2-6.4,35.4-14.6c8.6-6.9,15.2-16.1,19.7-26.2c10.5-23.4,9.1-49.7,4.7-74.4
	c-5.2-28.8-12.9-57.3-21.8-85.2c-9.2-28.7-20-56.9-32.5-84.4c-0.4-1-0.9-2-1.3-3c-9.7-21.5-20.4-45.1-40.5-58.6
	c-18.4-12.3-41.3-12.5-62.4-8.6c-11.1,2-21.9,5.1-32.6,8.4c-9.6,2.9-19.2,5.9-28.7,8.9c-4.7,1.5-9.4,2.9-14.1,4.4
	c-9.5,2.9-19,5.9-28.5,8.8c-19.4,6-38.9,12-58.3,18.1c-10.8,3.4-23.4,8-29,18.7c-2.2,4.2-3.2,9.2-2.7,13.9c0.6,5,3,8.2,6.4,11.6
	c10.2,10.1,13.3,25.2,13.5,39c0.1,7.6-0.6,15.2-1.4,22.7l0,0c-0.6,6.1-1.2,12.3-1.3,18.5C34.8,219.7,45.8,243,56.8,266l0.7,1.5
	l0.5,1c5.7,12,11.2,24.1,14.8,36.9c3.5,12.5,4.6,25.3,3,38.2c-2.7,21.8-11.7,42-20.6,61.9c-0.9,1.9-1.7,3.8-2.6,5.7
	c-10.1,22.9-18.8,46.2-21.2,71.3c-2.3,24,0.9,49.3,13.3,70.4c10.6,18.1,27.9,32.7,47.8,39.4c21,7.1,43.4,3.8,61.5-9.1
	c31.5-22.5,41.5-59,51.2-95c4-14.7,8-29.3,13.4-42.8C223.6,433.1,229.9,421.2,238.2,410.6z M237.6,410.1
	C237.6,410.1,237.6,410.1,237.6,410.1C237.7,410.1,237.7,410.1,237.6,410.1c7.6-9.5,16.8-17.8,27.7-23.3c11-5.5,23.1-7.8,35.2-10
	c14.3-2.6,28.5-5.2,40.9-13.3c20.1-13.2,29.8-37.5,31.5-60.7c2-27.3-5-54.9-11.7-81.1l-0.3-1.3c-7.2-28.4-16-56.4-26.4-83.8
	c-5.2-13.8-10.8-27.4-16.8-40.9c-5.5-12.4-11.1-24.9-18-36.6c-6.2-10.6-13.7-20.6-23.7-27.9c-9.1-6.6-19.9-10.4-31-11.7
	c-22.4-2.5-44.9,3.8-66,10.3c-18.8,5.8-37.6,11.6-56.5,17.5l0,0l0,0l0,0l0,0c-9.4,2.9-18.8,5.9-28.2,8.8c-4.6,1.4-9.3,2.9-13.9,4.3
	l0,0l0,0c-9.5,2.9-19.1,5.9-28.6,8.9c-11.6,3.6-25.8,8.3-31,20.4c-2.2,5.1-2.8,11.2-0.7,16.4c1,2.5,2.7,4.3,4.6,6.1l0,0
	c0.4,0.4,0.8,0.8,1.1,1.2c1.9,2,3.6,4.2,5,6.5c6.6,10.7,8.3,23.7,8.1,36c-0.1,6.3-0.7,12.6-1.3,18.9l0,0c-0.7,7.1-1.4,14.2-1.4,21.4
	c0,13.3,3.1,26.2,7.7,38.6c3.7,9.8,8.2,19.3,12.8,28.8c6.6,13.9,13.3,27.7,17.2,42.6c3,11.2,4.1,22.7,3,34.2
	c-1,11.1-3.9,22-7.5,32.5c-4,11.4-8.9,22.5-13.8,33.6l0,0h0l0,0h0h0h0l0,0h0h0h0l0,0h0h0h0l0,0h0h0h0l0,0
	c-4.6,10.4-9.2,20.7-13.1,31.4c-16.2,45.1-17.6,102.4,21.3,136.5c16.1,14.1,37.7,23,59.4,20.2c24.5-3.1,43.9-20.7,56.5-41
	c12.8-20.5,19.1-43.7,25.4-66.8C212.4,460,219.8,432.8,237.6,410.1z M266.9,376.2c-12.3,5.1-22.6,13.8-30.8,24.1
	c-7.9,10-14,21.3-18.7,33.1c-5.1,12.8-8.9,26.7-12.7,40.7c-9.3,34.2-18.7,68.9-48.7,90.3c-17.2,12.3-38.5,15.4-58.5,8.7
	c-19-6.4-35.4-20.3-45.5-37.5c-11.7-20-14.8-44.1-12.6-66.9c2.3-23.9,10.6-46,20.2-67.8c0.8-1.8,1.6-3.6,2.4-5.5
	c8.4-18.9,17-38.2,19.6-58.9c1.5-12.2,0.5-24.4-2.8-36.3c-3.4-12.2-8.7-23.7-14.1-35.1c-0.2-0.4-0.4-0.8-0.6-1.2l-0.6-1.2
	c-10.4-21.9-20.9-44-20.4-68.8c0.1-5.9,0.7-11.7,1.3-17.6l0,0l0,0c0.7-7.2,1.4-14.4,1.3-21.6c-0.2-13.2-3.1-27.5-12.8-37.1
	c-3.3-3.2-5.6-6.3-6.1-11c-0.5-4.5,0.4-9.2,2.5-13.2C34.6,83.4,46.6,79,56.9,75.8c18.4-5.8,36.9-11.5,55.4-17.2
	c9.1-2.8,18.1-5.6,27.2-8.4c4.5-1.4,9-2.8,13.6-4.2l0,0l0,0l0,0l0,0l0,0l0,0l0,0l0,0l0,0l0,0l0,0l0,0l0,0l0,0l0,0l0,0l0,0l0,0
	c9-2.8,18.1-5.6,27.1-8.4c10.2-3.1,20.5-6,31-8c20.1-3.7,41.8-3.5,59.4,8.2c19.1,12.8,29.3,35.3,38.5,55.7l0,0
	c0.4,0.9,0.8,1.9,1.3,2.8c11.8,26.1,22.1,52.9,30.9,80.3c8.4,26.5,15.8,53.6,20.7,81c4.2,23.5,5.6,48.5-4.4,70.8
	c-4.3,9.6-10.5,18.3-18.7,24.9c-9.7,7.8-21.6,11.4-33.6,13.9c-3.1,0.6-6.2,1.2-9.4,1.8l0,0h0l0,0l0,0l0,0h0l0,0l0,0l0,0v0h0l0,0l0,0
	l0,0h0l0,0l0,0l0,0C286,370.6,276.2,372.4,266.9,376.2z M235.5,399.8c-17,21.6-24,47.4-31,73.2c-6,22-12,44.1-24.1,63.6
	c-12,19.2-30.4,36-53.7,38.9c-20.6,2.6-41.1-5.8-56.4-19.2c-37.1-32.5-35.7-86.9-20.3-129.8c3.6-10.2,8-20,12.4-29.9
	c4.7-10.5,9.4-21,13.2-31.9c3.5-10,6.2-20.4,7.2-30.9c1-11,0-21.9-2.9-32.5c-3.8-14.2-10.1-27.3-16.4-40.5l0,0h0l0,0h0l0,0h0l0,0h0
	h0l0,0h0l0,0h0l0,0h0l0,0h0l0,0c-4.3-9-8.6-18.1-12.1-27.4c-4.4-11.8-7.3-24.1-7.4-36.7c0-6.8,0.6-13.6,1.3-20.3
	c0.6-6,1.2-12,1.3-18c0.2-11.7-1.4-24.1-7.7-34.3c-1.4-2.2-3-4.3-4.8-6.2c-0.4-0.4-0.7-0.7-1.1-1.1h0c-1.7-1.7-3.4-3.4-4.3-5.8
	c-2-4.9-1.4-10.7,0.7-15.5c5-11.5,18.5-15.9,29.5-19.4c9.1-2.8,18.1-5.6,27.2-8.4l0,0l0,0l0,0l0,0l0,0l0,0l0,0l0,0l0,0l0,0l0,0l0,0
	l0,0l0,0l0,0l0,0l0,0l0,0c4.4-1.4,8.8-2.7,13.2-4.1c8.9-2.8,17.9-5.5,26.8-8.3l0,0l0,0l0,0l0,0c17.9-5.6,35.8-11.1,53.7-16.6
	c20.1-6.2,41.5-12.2,62.8-9.8c10.6,1.2,20.8,4.8,29.5,11.1c9.5,6.9,16.6,16.5,22.5,26.5c6.5,11.1,11.8,23,17.1,34.7
	c5.7,12.8,11,25.8,16,38.9c9.9,26.1,18.2,52.7,25.1,79.7l0.3,1.2c6.3,25,13,51.2,11.1,77.1c-1.6,22-10.8,45.2-29.9,57.7
	c-11.7,7.7-25.3,10.2-38.9,12.6c-11.5,2.1-23,4.2-33.5,9.5C251.5,382.9,242.7,390.8,235.5,399.8
	C235.5,399.8,235.5,399.8,235.5,399.8z M233.9,390c7.8-9.8,17.6-18,29.2-22.8c8.8-3.6,18.1-5.3,27.4-7c3-0.5,5.9-1.1,8.9-1.7
	c11.4-2.3,22.7-5.8,31.9-13.2c7.8-6.2,13.7-14.6,17.7-23.6c9.5-21.1,8.2-44.8,4.2-67.1c-4.7-26-11.6-51.7-19.7-76.8
	c-8.3-25.9-18-51.3-29.3-76.1c-0.4-0.9-0.8-1.8-1.2-2.7c-8.8-19.4-18.4-40.7-36.5-52.8C250,35,229.4,34.9,210.3,38.4
	c-10,1.8-19.7,4.6-29.4,7.6c-8.7,2.7-17.4,5.4-26.1,8.1l0,0c-4.2,1.3-8.3,2.6-12.5,3.9c-8.6,2.7-17.2,5.3-25.8,8
	C99,71.3,81.5,76.7,64,82.2c-9.7,3.1-21.1,7.2-26.2,16.8c-2,3.8-2.9,8.3-2.4,12.5c0.5,4.5,2.7,7.4,5.8,10.5
	c9.2,9.1,12,22.7,12.2,35.2c0.1,6.8-0.6,13.7-1.2,20.5c-0.5,5.5-1.1,11.1-1.2,16.7c-0.5,23.5,9.4,44.5,19.3,65.3
	c0.4,0.8,0.7,1.5,1.1,2.2c5.1,10.8,10.1,21.7,13.3,33.3c3.1,11.2,4.1,22.8,2.7,34.4c-2.4,19.6-10.5,37.9-18.5,55.8l0,0
	c-0.8,1.7-1.5,3.5-2.3,5.2c-9.1,20.6-17,41.7-19.1,64.3c-2.1,21.6,0.8,44.5,12,63.5c9.6,16.3,25.2,29.5,43.2,35.6
	c19,6.4,39.1,3.4,55.5-8.2c28.4-20.3,37.4-53.2,46.2-85.7c3.6-13.3,7.2-26.4,12.1-38.6C220.7,410.2,226.4,399.5,233.9,390z
	 M233.3,389.5C233.3,389.5,233.3,389.5,233.3,389.5c6.9-8.6,15.2-16,25-21c9.9-5,20.8-7,31.7-9c12.9-2.3,25.7-4.7,36.8-12
	c18.1-11.9,26.8-33.8,28.4-54.7c1.8-24.6-4.5-49.4-10.5-73.1h0l-0.3-1.2c-6.5-25.6-14.4-50.9-23.8-75.6
	c-4.7-12.4-9.8-24.7-15.2-36.9c-5-11.2-10-22.4-16.2-32.9c-5.6-9.5-12.4-18.6-21.4-25.1c-8.2-6-17.9-9.4-28-10.5
	c-20.1-2.3-40.4,3.4-59.5,9.3c-17.2,5.3-34.3,10.6-51.5,16l0,0l0,0c-8.3,2.6-16.6,5.2-24.9,7.7c-4.4,1.3-8.7,2.7-13.1,4l0,0
	c-8.4,2.6-16.8,5.2-25.2,7.8c-10.5,3.3-23.2,7.4-28,18.4c-2,4.6-2.5,10-0.6,14.7c0.9,2.3,2.5,3.8,4.1,5.5l0,0c0.3,0.3,0.7,0.7,1,1
	c1.7,1.8,3.2,3.8,4.5,5.9c6,9.6,7.5,21.4,7.3,32.5c-0.1,5.7-0.7,11.4-1.2,17.1c-0.6,6.4-1.2,12.8-1.2,19.3c0,12,2.8,23.6,7,34.8
	c3.3,8.9,7.4,17.4,11.5,26c6,12.5,12,25,15.5,38.4c2.7,10.1,3.7,20.4,2.7,30.8c-0.9,10-3.5,19.9-6.8,29.4
	c-3.6,10.3-8,20.3-12.5,30.3c-4.2,9.4-8.3,18.7-11.8,28.3c-14.6,40.7-15.9,92.3,19.2,123c14.5,12.7,34,20.7,53.5,18.2
	c22.1-2.8,39.5-18.7,50.9-36.9c11.4-18.2,16.9-39,22.5-59.5l0,0c0.6-2.2,1.2-4.5,1.8-6.7C211.4,430.6,218.7,408,233.3,389.5z
	 M259.4,358.1c-11,4.5-20.2,12.3-27.6,21.6c-7.1,9-12.5,19.1-16.7,29.7c-4.6,11.5-8,24-11.4,36.5v0c-8.3,30.6-16.8,61.8-43.7,81
	c-15.4,11-34.5,13.8-52.5,7.8c-17-5.7-31.8-18.2-40.8-33.6c-10.5-17.9-13.3-39.6-11.3-60c2.1-21.4,9.5-41.3,18.1-60.8
	c0.7-1.6,1.4-3.3,2.2-4.9c7.6-17,15.3-34.2,17.5-52.8c1.3-11,0.4-21.9-2.5-32.5c-3-10.9-7.8-21.3-12.6-31.5c-0.3-0.7-0.7-1.4-1-2.1
	c-9.3-19.6-18.8-39.5-18.3-61.7c0.1-5.3,0.6-10.5,1.1-15.7c0.6-6.4,1.2-12.9,1.2-19.4c-0.2-11.8-2.8-24.6-11.5-33.2
	c-3-2.9-5-5.7-5.5-9.9c-0.5-4,0.4-8.3,2.3-11.9c4.8-9.1,15.6-13,24.8-15.9c16.5-5.2,33-10.3,49.6-15.4l0,0c8.1-2.5,16.3-5,24.4-7.5
	c4-1.2,8-2.5,12-3.7c8.2-2.5,16.4-5.1,24.5-7.6c9.2-2.8,18.4-5.4,27.8-7.2c18-3.3,37.5-3.2,53.2,7.4c17.2,11.5,26.3,31.6,34.5,49.9
	l0,0c0.4,0.8,0.8,1.7,1.1,2.5c10.6,23.4,19.9,47.5,27.7,72c7.6,23.8,14.2,48.1,18.6,72.6c3.8,21.1,5,43.5-4,63.5
	c-3.8,8.6-9.4,16.4-16.8,22.3c-8.7,7-19.4,10.2-30.2,12.4c-2.8,0.6-5.6,1.1-8.4,1.6C276.5,353.1,267.7,354.7,259.4,358.1z
	 M231.1,379.2c-13.8,17.5-20.7,38.8-26.5,60.1c-0.6,2.1-1.1,4.2-1.7,6.4c-5.2,19.4-10.5,39.1-21.2,56.2
	c-10.8,17.2-27.3,32.2-48.1,34.9c-18.4,2.3-36.8-5.2-50.6-17.2c-33.2-29.1-32-77.9-18.2-116.3c3.3-9.1,7.2-18,11.1-26.8
	c4.2-9.4,8.4-18.9,11.8-28.6c3.1-9,5.6-18.3,6.4-27.8c0.9-9.8,0-19.6-2.6-29.2c-3.4-12.7-9-24.5-14.7-36.3
	c-3.9-8.1-7.7-16.2-10.9-24.6c-4-10.6-6.6-21.6-6.6-32.9c0-6.1,0.6-12.2,1.2-18.2c0.5-5.4,1-10.8,1.1-16.2
	c0.2-10.5-1.2-21.6-6.9-30.8c-1.2-2-2.7-3.9-4.3-5.6c-0.3-0.3-0.6-0.7-1-1c-1.6-1.6-3-3-3.9-5.2c-1.8-4.4-1.3-9.6,0.6-13.9
	C50.8,96,62.9,92,72.8,88.9c8-2.5,15.9-4.9,23.9-7.4l0,0c4.1-1.3,8.2-2.5,12.4-3.8c7.9-2.4,15.7-4.9,23.6-7.3
	c16.2-5,32.4-10.1,48.7-15.1c18-5.6,37.2-11,56.3-8.8c9.5,1.1,18.7,4.3,26.4,9.9c8.5,6.2,14.9,14.8,20.2,23.7
	c5.8,10,10.6,20.6,15.3,31.1c5.1,11.5,9.9,23.1,14.3,34.9c8.8,23.4,16.4,47.2,22.5,71.5l0.3,1.1c5.7,22.4,11.6,45.9,9.9,69.1
	c-1.4,19.8-9.7,40.5-26.8,51.7c-10.5,6.9-22.7,9.1-34.8,11.3l0,0c-10.3,1.9-20.6,3.8-30,8.5C245.5,364,237.7,371.1,231.1,379.2
	C231.1,379.2,231.1,379.2,231.1,379.2z M229.6,369.4c7-8.7,15.6-16,26-20.3c7.8-3.2,16.1-4.7,24.4-6.3l0,0l0,0h0l0,0l0,0h0l0,0l0,0
	l0,0h0c2.6-0.5,5.3-1,7.9-1.5c10.2-2.1,20.2-5.1,28.4-11.7c6.9-5.6,12.2-13,15.8-21.1c8.4-18.8,7.3-40,3.7-59.8
	c-4.2-23.1-10.4-46-17.5-68.4c-7.4-23.1-16.1-45.7-26.1-67.8c-0.4-0.8-0.7-1.6-1.1-2.4l0,0c-7.8-17.3-16.4-36.3-32.6-47.1
	c-14.8-9.9-33.2-10.1-50.2-7c-8.9,1.6-17.6,4.1-26.2,6.7c-7.8,2.4-15.7,4.8-23.5,7.3l0,0c-3.6,1.1-7.3,2.3-10.9,3.4
	c-7.7,2.4-15.3,4.7-23,7.1l0,0c-15.6,4.8-31.2,9.6-46.7,14.5c-8.7,2.8-18.8,6.4-23.4,15c-1.8,3.4-2.6,7.4-2.2,11.2
	c0.5,4,2.4,6.6,5.2,9.4c8.2,8.1,10.7,20.2,10.8,31.3c0.1,6.1-0.5,12.2-1.1,18.2h0c-0.5,4.9-1,9.9-1.1,14.8
	c-0.5,21,8.4,39.7,17.2,58.2c0.3,0.7,0.6,1.3,0.9,2c4.6,9.6,9,19.4,11.9,29.7c2.8,10,3.7,20.3,2.4,30.6
	c-2.1,17.5-9.4,33.7-16.5,49.7l0,0c-0.7,1.5-1.4,3.1-2.1,4.6c-8.1,18.4-15.1,37.1-17.1,57.3c-1.8,19.3,0.8,39.7,10.7,56.6
	c8.5,14.6,22.4,26.3,38.5,31.7c16.9,5.7,34.9,3,49.4-7.3c25.3-18.1,33.3-47.4,41.2-76.3c3.2-11.8,6.4-23.6,10.7-34.4
	C217.8,387.4,222.9,377.8,229.6,369.4z M204,425.5c5.5-20,11.9-40.1,24.9-56.6c0,0,0,0,0,0c0,0,0,0,0,0c6.1-7.6,13.5-14.3,22.3-18.7
	c8.8-4.4,18.5-6.2,28.2-8c11.5-2.1,22.9-4.2,32.8-10.7c16.1-10.6,23.9-30.1,25.2-48.7c1.6-21.9-4-44-9.4-65.1l-0.3-1
	c-5.8-22.8-12.9-45.3-21.2-67.3c-4.2-11.1-8.7-22-13.5-32.8c-4.4-9.9-8.9-20-14.4-29.3c-5-8.5-11-16.5-19-22.4
	c-7.3-5.3-15.9-8.3-24.9-9.3c-17.9-2-36,3.1-53,8.3c-15.2,4.7-30.4,9.4-45.6,14.1l0,0l0,0l0,0l0,0l0,0l0,0l0,0
	c-7.4,2.3-14.9,4.6-22.3,6.9c-3.6,1.1-7.2,2.2-10.8,3.4l0,0l0,0l0,0l0,0l0,0l0,0l0,0l0,0l0,0l0,0l0,0l0,0l0,0l0,0l0,0
	c-7.8,2.4-15.5,4.8-23.2,7.2c-9.3,2.9-20.7,6.6-24.9,16.3c-1.8,4-2.2,8.9-0.6,13.1c0.8,2,2.2,3.4,3.7,4.9l0,0
	c0.3,0.3,0.6,0.6,0.9,0.9c1.5,1.6,2.9,3.4,4,5.2c5.3,8.6,6.7,19.1,6.5,29c-0.1,5.1-0.6,10.2-1.1,15.2c-0.6,5.7-1.1,11.4-1.1,17.2
	c0,10.7,2.5,21,6.2,31c3,7.9,6.6,15.5,10.3,23.2h0h0l0,0h0h0h0v0h0h0h0h0l0,0h0l0,0h0l0,0c5.3,11.1,10.7,22.3,13.8,34.2
	c2.4,9,3.3,18.2,2.4,27.5c-0.8,8.9-3.1,17.7-6.1,26.2c-3.2,9.2-7.2,18.1-11.1,27h0l0,0h0l0,0h0h0l0,0h0h0l0,0h0l0,0h0h0l0,0
	c-3.7,8.3-7.4,16.7-10.5,25.2c-13,36.2-14.2,82.2,17.1,109.6c12.9,11.3,30.3,18.4,47.6,16.2c19.6-2.5,35.2-16.6,45.3-32.9
	c10.1-16.2,15.1-34.7,20-53C202.9,429.5,203.5,427.5,204,425.5z M251.9,340c-9.7,4-17.9,10.9-24.4,19.1
	c-6.3,7.9-11.1,16.9-14.8,26.3c-4.1,10.2-7.1,21.2-10.1,32.3c-7.4,27.1-14.8,54.7-38.6,71.7c-13.7,9.8-30.5,12.2-46.4,6.9
	c-15.1-5.1-28.1-16.1-36.1-29.8c-9.3-15.9-11.8-35-10-53.1c1.8-19,8.4-36.5,16-53.8c0.6-1.4,1.3-2.9,1.9-4.3
	c6.7-15,13.5-30.3,15.5-46.7c1.2-9.7,0.4-19.4-2.2-28.8c-2.7-9.7-6.9-18.8-11.2-27.8c-0.3-0.6-0.6-1.2-0.9-1.8l0,0l0,0l0,0l0,0l0,0
	c-8.3-17.4-16.6-34.9-16.2-54.6c0.1-4.7,0.6-9.3,1-13.9l0,0c0.6-5.7,1.1-11.4,1-17.1c-0.2-10.4-2.4-21.8-10.1-29.4
	c-2.6-2.6-4.4-5-4.9-8.8c-0.4-3.6,0.3-7.3,2-10.5c4.2-8.1,13.8-11.5,21.9-14.1c14.6-4.6,29.2-9.1,43.9-13.7
	c7.2-2.2,14.4-4.4,21.6-6.7c3.5-1.1,6.9-2.2,10.4-3.2v0c7.3-2.3,14.6-4.5,21.9-6.8c8.1-2.5,16.3-4.8,24.6-6.3
	c15.9-2.9,33.2-2.8,47.1,6.5c15.2,10.2,23.2,28,30.6,44.2c0.3,0.7,0.7,1.5,1,2.2c9.4,20.7,17.6,42,24.5,63.7
	c6.7,21,12.5,42.5,16.4,64.2c3.4,18.6,4.4,38.5-3.5,56.2c-3.4,7.6-8.3,14.6-14.9,19.8c-7.7,6.2-17.2,9.1-26.7,11
	c-2.5,0.5-4.9,1-7.4,1.4C267,335.5,259.2,337,251.9,340z M226.9,358.5C226.9,358.5,226.8,358.5,226.9,358.5
	c-12.3,15.6-18.3,34.4-23.5,53.2c-0.5,1.9-1,3.7-1.5,5.6l0,0l0,0c-4.6,17.2-9.3,34.5-18.8,49.7c-9.5,15.2-24.1,28.5-42.5,30.8
	c-16.3,2.1-32.6-4.6-44.7-15.2C66.5,457,67.6,413.8,79.8,379.8c2.9-8.1,6.4-15.9,9.9-23.7h0l0,0h0h0h0l0,0h0h0h0l0,0h0h0h0l0,0h0
	l0,0l0,0l0,0h0l0,0l0,0l0,0h0l0,0l0,0l0,0l0,0h0c3.7-8.3,7.4-16.7,10.4-25.3c2.8-8,4.9-16.2,5.7-24.6c0.8-8.7,0-17.4-2.3-25.8
	c-3-11.2-8-21.7-13-32.2h0l0,0c-3.4-7.2-6.9-14.3-9.6-21.7c-3.5-9.3-5.8-19.1-5.8-29.1c0-5.4,0.5-10.8,1-16.1
	c0.5-4.8,0.9-9.5,1-14.3c0.2-9.3-1.1-19.2-6.1-27.2c-1.1-1.8-2.4-3.4-3.8-4.9c-0.3-0.3-0.6-0.6-0.9-0.9c-1.4-1.4-2.6-2.6-3.4-4.5
	c-1.6-3.9-1.1-8.5,0.5-12.3c3.9-9.1,14.6-12.6,23.4-15.3c7.1-2.2,14.2-4.4,21.3-6.6l0,0l0,0c3.6-1.1,7.1-2.2,10.7-3.3
	c7-2.2,14-4.4,21-6.5c14.3-4.4,28.6-8.9,42.9-13.3c15.9-4.9,32.9-9.7,49.7-7.8c8.4,0.9,16.5,3.8,23.4,8.8c7.5,5.5,13.2,13,17.9,21
	c5.2,8.8,9.4,18.2,13.5,27.5c4.5,10.2,8.8,20.4,12.7,30.8c7.8,20.7,14.5,41.8,19.9,63.2l0.2,1c5,19.8,10.3,40.6,8.8,61.1
	c-1.3,17.5-8.6,35.8-23.7,45.7c-9.3,6.1-20,8.1-30.8,10c-9.1,1.7-18.2,3.3-26.5,7.5C239.6,345.1,232.6,351.4,226.9,358.5z
	 M225.3,348.7c6.1-7.6,13.7-14.1,22.8-17.8c6.9-2.8,14.1-4.2,21.4-5.5c2.3-0.4,4.6-0.9,7-1.3c8.9-1.8,17.8-4.5,25-10.3
	c6.1-4.9,10.7-11.4,13.9-18.5c7.4-16.5,6.4-35.1,3.3-52.5c-3.7-20.3-9.1-40.4-15.4-60.1c-6.5-20.3-14.1-40.1-22.9-59.5
	c-0.2-0.4-0.4-0.8-0.5-1.2l-0.4-0.9c-6.9-15.2-14.4-31.8-28.6-41.3c-13-8.7-29.2-8.8-44.1-6.1c-7.8,1.4-15.5,3.6-23,5.9
	c-6.8,2.1-13.5,4.2-20.3,6.3l0,0l0,0l0,0l0,0c-3.3,1-6.6,2-9.9,3.1c-6.7,2.1-13.5,4.2-20.2,6.2l0,0l0,0l0,0l0,0l0,0l0,0l0,0l0,0v0v0
	l0,0v0l0,0v0l0,0v0v0l0,0v0l0,0c-13.7,4.2-27.3,8.4-41,12.7c-7.6,2.4-16.6,5.7-20.5,13.2c-1.6,3-2.3,6.5-1.9,9.9
	c0.4,3.5,2.1,5.8,4.6,8.3c7.2,7.1,9.3,17.7,9.5,27.4c0.1,5.4-0.4,10.7-1,16v0c-0.4,4.3-0.8,8.7-0.9,13c-0.4,18.4,7.4,34.8,15.1,51.1
	l0,0c0.3,0.6,0.5,1.1,0.8,1.7c4,8.4,7.9,17,10.4,26c2.4,8.8,3.2,17.8,2.1,26.9c-1.9,15.3-8.2,29.6-14.5,43.6l0,0l0,0
	c-0.6,1.4-1.2,2.7-1.8,4c-7.1,16.1-13.3,32.6-15,50.3c-1.6,16.9,0.7,34.8,9.4,49.7c7.5,12.8,19.7,23.1,33.8,27.8
	c14.9,5,30.6,2.7,43.4-6.4c22.3-15.9,29.2-41.7,36.1-67l0,0c2.8-10.4,5.6-20.7,9.4-30.2C214.9,364.5,219.4,356.2,225.3,348.7z
	 M202.7,398c4.8-17.6,10.5-35.2,21.9-49.7c0,0,0,0,0,0c5.4-6.7,11.9-12.5,19.6-16.4c7.7-3.9,16.3-5.5,24.8-7
	c10.1-1.8,20.1-3.7,28.8-9.4c14.1-9.3,21-26.4,22.1-42.7c1.4-19.2-3.5-38.6-8.2-57.1l-0.2-0.9c-5.1-20-11.3-39.8-18.6-59.1
	c-3.7-9.7-7.6-19.3-11.9-28.8c-3.9-8.7-7.8-17.5-12.6-25.7c-4.4-7.4-9.7-14.5-16.7-19.6c-6.4-4.7-14-7.3-21.8-8.2
	c-15.7-1.8-31.6,2.7-46.5,7.3c-13.3,4.1-26.6,8.2-39.8,12.3c-6.6,2.1-13.3,4.1-19.9,6.2c-3.3,1-6.6,2.1-10,3.1l0,0l0,0
	c-6.7,2.1-13.3,4.1-20,6.2c-8.2,2.5-18.1,5.8-21.8,14.3c-1.5,3.5-1.9,7.8-0.5,11.4c0.7,1.8,1.9,3,3.2,4.2c0.3,0.3,0.6,0.6,0.8,0.8
	c1.3,1.4,2.5,3,3.6,4.6c4.7,7.5,5.9,16.7,5.7,25.5c-0.1,4.5-0.5,8.9-0.9,13.4l0,0c-0.5,5-1,10-1,15.1c0,9.4,2.2,18.5,5.4,27.2
	c2.6,6.9,5.8,13.6,9,20.3l0,0c4.7,9.8,9.4,19.5,12.1,30.1c2.1,7.9,2.9,16,2.1,24.2c-0.7,7.9-2.7,15.5-5.3,23
	c-2.8,8.1-6.3,15.9-9.8,23.7c-3.3,7.3-6.5,14.6-9.2,22.1c-11.4,31.8-12.4,72.1,15,96.1c11.3,9.9,26.6,16.2,41.8,14.2
	c17.2-2.2,30.8-14.6,39.7-28.8c8.9-14.2,13.2-30.5,17.6-46.5C201.8,401.4,202.3,399.7,202.7,398z M244.3,321.9
	c-8.5,3.5-15.5,9.5-21.2,16.6c-5.4,6.9-9.6,14.7-12.9,22.8c-3.5,8.9-6.2,18.4-8.8,28.1v0c-6.4,23.6-12.9,47.6-33.6,62.3
	c-11.9,8.5-26.6,10.7-40.4,6c-13.1-4.4-24.5-14-31.5-25.9c-8.1-13.8-10.2-30.5-8.7-46.2c1.6-16.5,7.3-31.8,13.9-46.8
	c0.6-1.3,1.1-2.5,1.7-3.8c5.8-13,11.7-26.3,13.5-40.6c1-8.4,0.3-16.8-1.9-25c-2.3-8.4-6-16.4-9.7-24.2l-0.4-0.8l-0.4-0.8h0
	c-7.2-15.1-14.5-30.4-14.1-47.5c0.1-4,0.5-8.1,0.9-12.1v0c0.5-5,1-9.9,0.9-14.9c-0.1-9.1-2.1-18.9-8.8-25.5
	c-2.3-2.3-3.9-4.4-4.3-7.7c-0.4-3.1,0.3-6.4,1.8-9.2c3.7-7,12-10.1,19.1-12.3c12.7-4,25.4-7.9,38.1-11.9c6.3-1.9,12.5-3.9,18.8-5.8
	c3.1-1,6.1-1.9,9.2-2.9l0,0l0,0l0,0l0,0l0,0l0,0l0,0l0,0l0,0l0,0l0,0l0,0c6.3-2,12.6-3.9,18.9-5.8c7.1-2.2,14.2-4.2,21.4-5.5
	c13.9-2.5,28.9-2.4,41,5.7c13.2,8.8,20.2,24.4,26.6,38.5l0,0l0,0l0,0l0,0c0.3,0.6,0.6,1.2,0.8,1.8c8.2,18,15.3,36.5,21.3,55.4
	c5.8,18.3,10.9,37,14.3,55.9c2.9,16.2,3.8,33.5-3.1,48.9c-3,6.6-7.3,12.7-12.9,17.2c-6.7,5.4-14.9,7.9-23.2,9.6
	c-2.1,0.4-4.3,0.8-6.5,1.2C257.5,318,250.7,319.2,244.3,321.9z M222.5,337.9C222.5,337.9,222.5,337.9,222.5,337.9L222.5,337.9
	L222.5,337.9c-10.7,13.5-16,29.9-20.4,46.3c-0.4,1.6-0.9,3.2-1.3,4.9l0,0l0,0l0,0l0,0v0l0,0v0c-4,14.9-8.1,30-16.3,43.2
	c-8.3,13.2-20.9,24.7-36.9,26.8c-14.1,1.8-28.3-4-38.8-13.2c-25.5-22.3-24.6-59.8-14-89.4c2.5-7,5.5-13.8,8.6-20.6v0h0l0,0l0,0v0
	l0,0l0,0l0,0l0,0l0,0l0,0l0,0v0c3.2-7.3,6.5-14.5,9.1-22c2.4-6.9,4.3-14.1,5-21.4c0.7-7.6,0-15.1-2-22.5c-2.6-9.8-6.9-18.9-11.3-28
	c-3-6.2-6-12.5-8.4-18.9c-3-8.1-5.1-16.6-5.1-25.3c0-4.7,0.4-9.3,0.9-14l0,0v0h0l0,0v0l0,0l0,0l0,0l0,0v0l0,0l0,0
	c0.4-4.1,0.8-8.3,0.9-12.4c0.2-8.1-1-16.7-5.3-23.7c-1-1.5-2.1-3-3.3-4.3c-0.3-0.3-0.5-0.5-0.8-0.8c-1.2-1.2-2.3-2.3-2.9-3.9
	c-1.4-3.4-1-7.3,0.5-10.6c3.4-7.9,12.7-10.9,20.3-13.3c6.2-1.9,12.4-3.8,18.6-5.8c3.1-1,6.2-1.9,9.3-2.9c6.2-1.9,12.4-3.8,18.5-5.8
	l0,0c12.3-3.8,24.7-7.7,37-11.5c13.8-4.3,28.6-8.4,43.2-6.8c7.3,0.8,14.3,3.3,20.3,7.6c6.5,4.8,11.5,11.3,15.5,18.3
	c4.5,7.7,8.1,15.8,11.8,23.9c3.9,8.8,7.6,17.8,11,26.8c6.8,18,12.6,36.3,17.3,55l0.2,0.9l0,0c4.4,17.2,8.9,35.3,7.6,53.1
	c-1.1,15.2-7.4,31.1-20.6,39.7c-8.1,5.3-17.4,7-26.8,8.7c-7.9,1.4-15.9,2.9-23.1,6.5C233.6,326.2,227.6,331.7,222.5,337.9z
	 M221,328.1c5.3-6.6,11.8-12.1,19.6-15.3c5.9-2.4,12.2-3.6,18.4-4.7c2-0.4,4-0.7,6-1.1c7.7-1.6,15.3-3.9,21.5-8.9
	c5.2-4.2,9.2-9.8,12-15.9c6.4-14.2,5.5-30.2,2.8-45.2c-3.2-17.5-7.8-34.8-13.2-51.7c-5.6-17.4-12.1-34.5-19.7-51.2
	c-0.3-0.6-0.5-1.2-0.8-1.8c-5.9-13.1-12.4-27.4-24.6-35.6c-11.2-7.5-25.1-7.6-38-5.3c-6.7,1.2-13.3,3.1-19.8,5.1
	c-5.8,1.8-11.5,3.6-17.3,5.4l0,0l0,0l0,0c-2.9,0.9-5.7,1.8-8.6,2.7c-5.8,1.8-11.6,3.6-17.4,5.4c-11.8,3.6-23.5,7.2-35.3,11
	c-6.6,2.1-14.3,4.9-17.7,11.4c-1.4,2.6-2,5.6-1.6,8.5c0.4,3.1,1.8,5,4,7.1c6.2,6.1,8,15.2,8.1,23.6c0.1,4.6-0.4,9.2-0.8,13.8
	c-0.4,3.7-0.7,7.5-0.8,11.2c-0.4,15.8,6.4,30,13,44c0.2,0.5,0.5,1,0.7,1.5c3.5,7.3,6.8,14.6,9,22.4c2.1,7.5,2.8,15.3,1.8,23.1
	c-1.6,13.2-7.1,25.5-12.5,37.5c-0.5,1.2-1,2.3-1.6,3.5c-6.2,13.9-11.4,28.1-12.9,43.3c-1.4,14.6,0.6,30,8.1,42.8
	c6.5,11,17,19.9,29.1,24c12.8,4.3,26.4,2.3,37.4-5.6c19.2-13.7,25.2-35.8,31.1-57.7c2.4-8.9,4.8-17.8,8.1-26
	C212.1,341.7,215.9,334.5,221,328.1z M201.5,370.4c4.1-15.1,9-30.3,18.8-42.8c0,0,0,0,0,0l0,0c4.6-5.8,10.2-10.8,16.9-14.2
	c6.7-3.4,14-4.7,21.3-6c8.7-1.6,17.3-3.2,24.8-8.1c12.2-8,18-22.7,19-36.7c1.2-16.5-3-33.2-7.1-49.1l-0.2-0.8
	c-4.4-17.2-9.7-34.2-16-50.8c-3.2-8.4-6.6-16.6-10.2-24.8c-3.3-7.5-6.7-15.1-10.9-22.1c-3.8-6.4-8.3-12.5-14.3-16.9
	c-5.5-4-12-6.3-18.7-7c-13.5-1.5-27.2,2.3-40,6.3c-11.3,3.5-22.7,7-34,10.5l0,0c-5.8,1.8-11.6,3.6-17.4,5.4
	c-2.8,0.9-5.5,1.7-8.3,2.6c-5.8,1.8-11.6,3.6-17.5,5.4c-7,2.2-15.6,5-18.7,12.3c-1.3,3-1.7,6.7-0.4,9.8c0.6,1.5,1.6,2.5,2.7,3.6h0h0
	l0,0h0c0.2,0.2,0.5,0.5,0.7,0.7c1.2,1.2,2.2,2.6,3.1,4c4,6.5,5.1,14.4,4.9,21.9c-0.1,3.8-0.4,7.7-0.8,11.5c-0.4,4.3-0.8,8.6-0.8,13
	c0,8.1,1.9,15.9,4.7,23.4c2.2,6,5,11.7,7.8,17.5c4,8.4,8.1,16.8,10.5,25.9c1.8,6.8,2.5,13.8,1.8,20.8c-0.6,6.8-2.4,13.4-4.6,19.8
	c-2.4,6.9-5.4,13.7-8.4,20.4c-2.8,6.3-5.6,12.6-7.9,19.1c-9.8,27.3-10.7,62,12.9,82.6c9.7,8.5,22.8,13.9,35.9,12.2
	c14.8-1.9,26.5-12.5,34.1-24.8c7.6-12.2,11.4-26.2,15.1-40C200.7,373.4,201.1,371.9,201.5,370.4z M236.8,303.7
	c-7.2,3-13.2,8-18,14.1c-4.6,5.9-8.2,12.5-10.9,19.4c-3,7.5-5.2,15.7-7.5,23.9v0l0,0h0v0l0,0l0,0v0l0,0l0,0v0
	c-5.4,20.1-11,40.4-28.6,53c-10.1,7.2-22.6,9.1-34.4,5.1c-11.2-3.8-20.8-11.9-26.8-22c-6.9-11.8-8.7-26-7.4-39.4
	c1.3-14,6.2-27,11.8-39.8c0.5-1.1,0.9-2.1,1.4-3.2c4.9-11.1,10-22.4,11.4-34.5c0.9-7.1,0.3-14.3-1.7-21.2c-2-7.1-5.1-13.9-8.2-20.6
	l-0.2-0.4l-0.4-0.9c-6.1-12.8-12.3-25.8-12-40.4c0.1-3.4,0.4-6.9,0.7-10.3c0.4-4.2,0.8-8.4,0.8-12.7c-0.1-7.7-1.8-16-7.5-21.6
	c-2-1.9-3.3-3.8-3.7-6.6c-0.3-2.7,0.3-5.5,1.5-7.8c3.1-6,10.2-8.6,16.3-10.5c10.8-3.4,21.5-6.7,32.3-10.1l0,0h0l0,0v0h0l0,0h0l0,0h0
	l0,0c5.4-1.6,10.7-3.3,16.1-5c2.5-0.8,5-1.6,7.5-2.3l0,0l0,0l0,0l0,0l0,0l0,0l0,0c5.4-1.7,10.9-3.4,16.3-5c6-1.8,12.1-3.6,18.2-4.7
	c11.8-2.2,24.6-2.1,34.9,4.9c11.2,7.5,17.2,20.7,22.6,32.7l0,0l0.2,0.5l0.1,0.3c0.1,0.3,0.3,0.6,0.4,0.8c6.9,15.3,13,31,18.1,47.1
	c5,15.5,9.3,31.4,12.2,47.5c2.5,13.8,3.2,28.5-2.6,41.6c-2.5,5.6-6.2,10.8-11,14.7c-5.7,4.6-12.7,6.7-19.8,8.2
	c-1.8,0.4-3.7,0.7-5.5,1h0C248,300.4,242.2,301.5,236.8,303.7z M218.2,317.3L218.2,317.3C218.2,317.3,218.2,317.3,218.2,317.3
	c-9.1,11.5-13.6,25.5-17.4,39.4c-0.4,1.4-0.7,2.8-1.1,4.1l0,0c-3.4,12.7-6.9,25.5-13.9,36.8c-7,11.2-17.8,21-31.3,22.7
	c-12,1.5-24-3.4-33-11.2c-21.7-19-20.9-50.8-11.9-75.9c2.1-6,4.7-11.7,7.3-17.5c2.7-6.2,5.5-12.3,7.7-18.7c2-5.9,3.6-12,4.2-18.2
	c0.6-6.5,0-12.9-1.7-19.1c-2.2-8.3-5.9-16-9.6-23.8c-2.5-5.3-5.1-10.6-7.1-16.1c-2.6-6.9-4.3-14.1-4.3-21.5c0-4,0.4-7.9,0.8-11.9
	c0.3-3.5,0.7-7,0.7-10.6c0.1-6.9-0.8-14.2-4.5-20.2c-0.8-1.3-1.8-2.5-2.8-3.7c-0.2-0.2-0.4-0.4-0.7-0.7l0,0h0c-1-1-1.9-1.9-2.5-3.3
	c-1.2-2.9-0.8-6.2,0.4-9c2.9-6.7,10.8-9.3,17.2-11.3c5.4-1.7,10.7-3.3,16.1-5l0,0c2.5-0.8,5-1.6,7.6-2.3c5.1-1.6,10.1-3.1,15.2-4.7
	l0,0h0h0l0,0h0h0l0,0h0h0h0c10.7-3.3,21.3-6.6,32-9.9c11.8-3.6,24.3-7.2,36.7-5.8c6.2,0.7,12.2,2.8,17.2,6.5
	c5.5,4,9.7,9.6,13.2,15.5c3.8,6.5,6.9,13.4,10,20.3c3.3,7.5,6.5,15.1,9.4,22.8c5.8,15.3,10.7,30.9,14.7,46.7l0.2,0.8
	c3.7,14.6,7.6,29.9,6.5,45.1c-0.9,12.9-6.3,26.4-17.5,33.7c-6.9,4.5-14.8,6-22.8,7.4c-6.7,1.2-13.5,2.5-19.6,5.5
	C227.6,307.3,222.5,311.9,218.2,317.3L218.2,317.3C218.2,317.3,218.2,317.3,218.2,317.3z M216.6,307.5c4.4-5.5,9.9-10.1,16.4-12.8
	c4.9-2,10.2-3,15.4-4c1.7-0.3,3.4-0.6,5-1c6.4-1.3,12.8-3.3,18-7.4c4.4-3.5,7.8-8.2,10.1-13.4c5.3-11.9,4.7-25.3,2.4-37.9
	c-2.6-14.7-6.6-29.2-11.1-43.3c-4.7-14.6-10.2-28.9-16.5-42.9c-0.2-0.5-0.4-1-0.7-1.5c-4.9-11-10.4-23-20.7-29.9
	c-9.4-6.3-21.1-6.4-31.9-4.4c-5.6,1-11.2,2.6-16.6,4.3c-4.9,1.5-9.8,3-14.7,4.5l0,0l0,0l0,0c-2.4,0.7-4.7,1.5-7.1,2.2
	c-4.9,1.5-9.7,3-14.6,4.5h0h0l0,0h0h0l0,0h0h0l0,0l0,0c-9.8,3-19.7,6.1-29.5,9.2c-5.5,1.8-12,4.1-14.9,9.6c-1.1,2.2-1.7,4.7-1.4,7.2
	c0.3,2.6,1.5,4.3,3.3,6c5.2,5.1,6.7,12.7,6.8,19.7c0.1,3.9-0.3,7.7-0.7,11.5c-0.3,3.1-0.6,6.2-0.7,9.4c-0.3,13.3,5.3,25.1,10.9,36.9
	l0,0c0.2,0.4,0.4,0.8,0.6,1.2c2.9,6.1,5.7,12.3,7.5,18.8c1.8,6.3,2.3,12.8,1.5,19.3c-1.4,11-5.9,21.3-10.4,31.4l0,0
	c-0.4,1-0.9,1.9-1.3,2.9c-5.2,11.7-9.6,23.5-10.8,36.3c-1.2,12.2,0.5,25.2,6.8,35.9c5.4,9.2,14.3,16.7,24.4,20.1
	c10.7,3.6,22.2,1.9,31.4-4.7c16.1-11.5,21.1-30,26.1-48.3c2-7.5,4.1-14.9,6.8-21.8C209.2,318.9,212.4,312.8,216.6,307.5z
	 M200.2,342.9c3.5-12.7,7.6-25.4,15.8-35.9c0,0,0,0,0,0c0,0,0,0,0,0l0,0l0,0c3.9-4.9,8.6-9.1,14.2-11.9c5.6-2.8,11.7-3.9,17.9-5
	c7.3-1.3,14.5-2.6,20.8-6.7c10.2-6.7,15.1-19,15.9-30.7c1-13.8-2.5-27.8-5.9-41.1l-0.2-0.7c-3.7-14.4-8.1-28.7-13.4-42.6
	c-2.6-7-5.5-13.9-8.5-20.8c-2.8-6.3-5.6-12.6-9.1-18.5c-3.1-5.4-7-10.4-12-14.1c-4.6-3.4-10-5.2-15.7-5.9
	c-11.3-1.3-22.7,1.9-33.5,5.2c-9.7,3-19.3,6-29,9c-4.7,1.5-9.4,2.9-14.1,4.4c-2.3,0.7-4.6,1.4-6.9,2.1l0,0c-4.9,1.5-9.8,3-14.7,4.6
	c-5.8,1.8-13,4.2-15.7,10.3c-1.1,2.5-1.4,5.6-0.3,8.2c0.5,1.2,1.4,2.1,2.3,3c0.2,0.2,0.4,0.4,0.6,0.6c1,1,1.8,2.1,2.6,3.3
	c3.4,5.5,4.3,12.1,4.1,18.4c-0.1,3.2-0.4,6.4-0.7,9.6l0,0l0,0l0,0l0,0l0,0v0l0,0l0,0l0,0c-0.3,3.6-0.7,7.2-0.7,10.9
	c0,6.7,1.6,13.3,3.9,19.6c1.9,5,4.2,9.8,6.5,14.6l0,0v0c3.4,7,6.7,14.1,8.8,21.7c1.5,5.7,2.1,11.6,1.5,17.5
	c-0.5,5.7-2,11.2-3.8,16.6c-2,5.8-4.5,11.4-7,17.1c-2.3,5.3-4.7,10.5-6.6,16c-8.2,22.9-8.9,51.9,10.8,69.2
	c8.2,7.1,19.1,11.6,30,10.2c12.4-1.6,22.2-10.5,28.6-20.7c6.4-10.2,9.5-21.9,12.7-33.5C199.5,345.4,199.9,344.1,200.2,342.9z
	 M229.3,285.6c-5.9,2.4-10.8,6.6-14.8,11.6c-3.8,4.8-6.7,10.3-9,16c-2.5,6.2-4.3,12.9-6.1,19.7l0,0c-4.5,16.5-9.1,33.3-23.6,43.7
	c-8.4,6-18.7,7.5-28.4,4.2c-9.2-3.1-17.2-9.8-22.1-18.2c-5.7-9.7-7.2-21.4-6.1-32.5c1.1-11.5,5.1-22.3,9.8-32.8
	c0.4-0.9,0.8-1.8,1.2-2.6l0,0l0,0c4.1-9.1,8.2-18.4,9.4-28.4c0.7-5.9,0.2-11.7-1.4-17.4c-1.6-5.9-4.2-11.5-6.8-16.9l-0.3-0.7
	l-0.2-0.4c-5-10.6-10.1-21.3-9.9-33.3c0.1-2.8,0.3-5.7,0.6-8.5v0c0.3-3.5,0.7-6.9,0.6-10.4c-0.1-6.3-1.5-13.2-6.1-17.8
	c-1.6-1.6-2.7-3.1-3-5.5c-0.3-2.2,0.2-4.5,1.2-6.5c2.6-5,8.4-7.1,13.4-8.7c8.8-2.8,17.7-5.5,26.6-8.3c4.4-1.4,8.9-2.7,13.3-4.1
	c2.2-0.7,4.3-1.3,6.5-2l0,0l0,0l0,0l0,0l0,0l0,0l0,0l0,0c4.4-1.4,8.7-2.7,13.1-4.1c4.9-1.5,9.9-2.9,15-3.9c9.7-1.8,20.3-1.7,28.8,4
	c9.3,6.2,14.2,17.1,18.7,27l0,0l0,0.1c0.2,0.4,0.4,0.9,0.6,1.3c5.7,12.6,10.7,25.6,14.9,38.8c4.1,12.8,7.6,25.9,10,39.1
	c2.1,11.4,2.7,23.5-2.2,34.3c-2.1,4.6-5.1,8.9-9.1,12.1c-4.7,3.8-10.5,5.5-16.3,6.7c-1.5,0.3-3,0.6-4.5,0.9h0l0,0h0h0l0,0h0h0
	C238.5,282.9,233.7,283.8,229.3,285.6z M213.9,296.7c-7.5,9.5-11.2,21-14.3,32.4c-0.3,1.1-0.6,2.3-0.9,3.4l0,0v0l0,0v0l0,0v0
	c-2.8,10.4-5.7,21-11.4,30.3c-5.8,9.2-14.6,17.3-25.8,18.7c-9.9,1.3-19.7-2.8-27.1-9.2c-17.8-15.6-17.1-41.8-9.7-62.4
	c1.8-4.9,3.9-9.7,6-14.4v0l0,0l0,0v0l0,0h0v0l0,0c2.3-5.1,4.5-10.2,6.3-15.4c1.7-4.9,3-9.9,3.5-15c0.5-5.3,0-10.6-1.4-15.8
	c-1.8-6.8-4.9-13.2-7.9-19.6v0l0,0l0,0l0,0v0l0,0l0,0l0,0c-2.1-4.4-4.2-8.7-5.9-13.2c-2.1-5.7-3.5-11.6-3.5-17.7
	c0-3.3,0.3-6.5,0.6-9.8l0,0l0,0v0l0,0v0l0,0v0l0,0c0.3-2.9,0.6-5.8,0.6-8.7c0.1-5.7-0.7-11.7-3.7-16.7c-0.7-1.1-1.5-2.1-2.3-3
	c-0.2-0.2-0.4-0.4-0.5-0.5c-0.8-0.8-1.6-1.6-2-2.7c-0.9-2.3-0.7-5.1,0.3-7.3c2.4-5.5,8.9-7.6,14.1-9.3c4.2-1.3,8.5-2.6,12.7-4l0,0h0
	l0,0c2.2-0.7,4.5-1.4,6.7-2.1c4.2-1.3,8.5-2.6,12.7-3.9c8.7-2.7,17.5-5.4,26.2-8.1c9.7-3,20-5.9,30.2-4.7c5.1,0.6,10,2.3,14.1,5.3
	c4.6,3.3,8,7.9,10.8,12.8c3.1,5.4,5.7,11.1,8.2,16.7c2.8,6.2,5.3,12.4,7.7,18.8c4.8,12.6,8.8,25.4,12.1,38.5l0.2,0.6
	c3,12,6.2,24.6,5.3,37.1c-0.8,10.6-5.2,21.7-14.4,27.7c-5.7,3.7-12.2,4.9-18.7,6.1c-5.5,1-11.1,2-16.1,4.6
	C221.7,288.5,217.4,292.3,213.9,296.7z M212.3,286.9c3.5-4.4,7.9-8.1,13.2-10.3c4-1.6,8.2-2.4,12.4-3.2c1.4-0.2,2.7-0.5,4.1-0.8
	c5.2-1.1,10.4-2.6,14.6-6c3.6-2.9,6.3-6.7,8.1-10.8c4.3-9.6,3.8-20.5,1.9-30.6c-2.1-11.8-5.3-23.5-8.9-35
	c-3.8-11.8-8.2-23.3-13.3-34.6c-0.2-0.4-0.4-0.8-0.5-1.2c-4-8.8-8.4-18.6-16.7-24.1c-7.6-5.1-17-5.2-25.7-3.6
	c-4.6,0.8-9,2.1-13.4,3.5c-4,1.2-8,2.5-12.1,3.7c-1.8,0.6-3.7,1.1-5.5,1.7c-3.9,1.2-7.7,2.4-11.6,3.6c-8,2.5-16,4.9-24,7.5
	c-4.5,1.4-9.7,3.3-12,7.8c-0.9,1.8-1.4,3.8-1.1,5.8c0.3,2.1,1.3,3.5,2.7,4.9c4.2,4.1,5.4,10.2,5.5,15.8c0,3.1-0.3,6.2-0.6,9.3
	c-0.2,2.5-0.5,5-0.5,7.6c-0.2,10.7,4.3,20.3,8.8,29.8l0,0c0.2,0.3,0.3,0.7,0.5,1c2.3,4.9,4.6,9.9,6.1,15.1
	c1.4,5.1,1.9,10.3,1.2,15.5c-1.1,8.9-4.8,17.2-8.4,25.3c-0.3,0.8-0.7,1.6-1,2.4c-4.2,9.4-7.7,19-8.7,29.3c-0.9,9.9,0.4,20.3,5.5,29
	c4.4,7.5,11.5,13.5,19.8,16.3c8.7,2.9,17.9,1.6,25.4-3.8c13-9.3,17-24.2,21.1-39c1.6-6,3.3-12,5.5-17.6
	C206.3,296,208.9,291.2,212.3,286.9z M198.9,315.3c2.8-10.2,6.1-20.5,12.8-29c0,0,0,0,0,0l0,0l0,0c3.1-3.9,7-7.3,11.5-9.6
	c4.5-2.3,9.4-3.2,14.4-4.1c5.8-1.1,11.7-2.1,16.7-5.4c8.2-5.4,12.1-15.3,12.8-24.7c0.8-11.1-2-22.4-4.8-33.1l-0.1-0.6
	c-2.9-11.6-6.6-23.1-10.8-34.4c-2.1-5.7-4.4-11.2-6.9-16.8c-2.3-5.1-4.5-10.1-7.3-14.9c-2.5-4.3-5.6-8.4-9.7-11.4
	c-3.7-2.7-8.1-4.2-12.6-4.7c-9.1-1-18.3,1.6-26.9,4.2c-7.7,2.4-15.4,4.8-23.2,7.2c-3.9,1.2-7.7,2.4-11.6,3.6c-2,0.6-4,1.3-6.1,1.9
	l0,0c-3.8,1.2-7.6,2.3-11.3,3.5c-4.7,1.5-10.5,3.3-12.6,8.2c-0.9,2-1.1,4.5-0.3,6.5c0.4,1,1.1,1.7,1.8,2.4l0,0l0,0
	c0.2,0.2,0.3,0.3,0.5,0.5c0.8,0.8,1.5,1.7,2.1,2.7c2.7,4.4,3.4,9.8,3.3,14.9c-0.1,2.6-0.3,5.2-0.6,7.8l0,0c-0.3,2.9-0.6,5.8-0.6,8.8
	c0,5.4,1.3,10.7,3.2,15.8c1.5,4,3.4,7.9,5.2,11.8c2.7,5.7,5.4,11.4,7.1,17.5c1.2,4.6,1.7,9.4,1.2,14.1c-0.4,4.6-1.6,9.1-3.1,13.4
	c-1.6,4.7-3.6,9.2-5.7,13.8c-1.9,4.3-3.8,8.5-5.4,12.9c-6.6,18.4-7.2,41.8,8.7,55.7c6.6,5.7,15.4,9.4,24.2,8.2
	c9.9-1.3,17.8-8.4,23-16.7c5.2-8.2,7.7-17.7,10.2-27l0,0C198.4,317.4,198.7,316.3,198.9,315.3z M221.8,267.5
	c-4.6,1.9-8.5,5.2-11.6,9.1c-3,3.8-5.3,8.1-7.1,12.5c-2,4.9-3.4,10.2-4.8,15.5l0,0c-3.5,13-7.1,26.2-18.5,34.3
	c-6.6,4.7-14.7,5.9-22.4,3.3c-7.3-2.4-13.6-7.7-17.4-14.3c-4.5-7.6-5.7-16.9-4.8-25.6c0.9-9.1,4-17.5,7.7-25.8
	c0.3-0.7,0.6-1.3,0.9-2l0,0l0,0l0,0l0,0c3.2-7.2,6.4-14.4,7.4-22.3c0.6-4.6,0.2-9.2-1.1-13.6c-1.3-4.6-3.3-9-5.3-13.3
	c-0.1-0.3-0.3-0.6-0.4-0.9c-4-8.3-8-16.8-7.8-26.2c0.1-2.2,0.3-4.4,0.5-6.7c0.3-2.7,0.5-5.4,0.5-8.2c-0.1-4.9-1.1-10.3-4.8-13.9
	c-1.3-1.3-2.2-2.5-2.4-4.4c-0.2-1.7,0.2-3.6,1-5.1c2.1-3.9,6.7-5.6,10.6-6.9c7-2.2,14.1-4.4,21.1-6.6l0,0l0,0l0,0
	c3.4-1,6.8-2.1,10.2-3.1c1.7-0.5,3.3-1,5-1.5l0,0l0,0l0,0l0,0l0,0l0,0c3.5-1.1,7-2.2,10.5-3.2c3.9-1.2,7.8-2.3,11.8-3
	c7.7-1.4,16-1.3,22.7,3.2c7.3,4.9,11.2,13.5,14.7,21.2l0.3,0.6l0.2,0.5c4.5,9.9,8.4,20.1,11.7,30.4c3.2,10.1,6,20.4,7.9,30.8
	c1.6,9,2.1,18.5-1.7,27c-1.6,3.7-4,7-7.2,9.5c-3.7,3-8.2,4.4-12.8,5.3c-1.2,0.2-2.4,0.5-3.6,0.7h0C229,265.4,225.3,266,221.8,267.5z
	 M209.5,276.1c-5.9,7.5-8.8,16.5-11.2,25.5c-0.2,0.9-0.5,1.8-0.7,2.7c-2.2,8.2-4.4,16.5-9,23.8c-4.5,7.2-11.4,13.5-20.2,14.6
	c-7.7,1-15.5-2.2-21.2-7.2c-14-12.2-13.4-32.8-7.6-48.9c1.4-3.9,3-7.6,4.7-11.3v0c1.8-4,3.6-8,5-12.1c1.3-3.8,2.4-7.8,2.7-11.8
	c0.4-4.2,0-8.4-1.1-12.5c-1.4-5.4-3.8-10.4-6.2-15.4l0,0c-1.6-3.4-3.3-6.8-4.6-10.4c-1.7-4.5-2.8-9.1-2.8-13.9
	c0-2.6,0.2-5.1,0.5-7.7c0.2-2.3,0.4-4.6,0.5-6.8c0.1-4.5-0.5-9.2-3-13.1c-0.5-0.9-1.2-1.7-1.9-2.4c-0.1-0.1-0.3-0.3-0.4-0.4v0
	c-0.6-0.6-1.2-1.2-1.6-2.1c-0.7-1.8-0.5-3.9,0.2-5.7c1.9-4.3,6.9-5.9,11.1-7.2c3.6-1.1,7.2-2.2,10.8-3.4l0,0c1.5-0.5,3-0.9,4.5-1.4
	c3.4-1.1,6.8-2.1,10.2-3.2l0,0c6.8-2.1,13.6-4.2,20.4-6.3c7.6-2.3,15.7-4.6,23.7-3.7c4,0.4,7.8,1.8,11.1,4.1c3.6,2.6,6.3,6.2,8.5,10
	c2.5,4.2,4.5,8.7,6.4,13.1c2.2,4.9,4.2,9.8,6.1,14.7c3.7,9.9,6.9,20,9.5,30.2l0.1,0.5c2.4,9.4,4.9,19.3,4.2,29.1
	c-0.6,8.3-4.1,17-11.2,21.7c-4.4,2.9-9.6,3.8-14.7,4.8c-4.4,0.8-8.7,1.6-12.7,3.6C215.7,269.6,212.3,272.6,209.5,276.1
	C209.6,276,209.6,276,209.5,276.1z M208,266.2c2.7-3.3,6-6.2,10-7.8c3-1.2,6.2-1.8,9.5-2.4l0,0h0h0l0,0h0c1-0.2,2.1-0.4,3.1-0.6
	c4-0.8,7.9-2,11.1-4.6c2.7-2.2,4.8-5.1,6.2-8.3c3.3-7.3,2.9-15.6,1.5-23.3c-1.6-9-4-17.9-6.8-26.6c-2.9-9-6.2-17.7-10.1-26.3
	l-0.2-0.5l-0.2-0.4c-3-6.7-6.4-14.1-12.7-18.4c-5.8-3.9-13-4-19.6-2.8c-3.5,0.6-6.9,1.6-10.2,2.6c-3.2,1-6.4,2-9.5,3
	c-1.3,0.4-2.5,0.8-3.8,1.2c-2.9,0.9-5.9,1.8-8.8,2.7l0,0l0,0l0,0c-6.1,1.9-12.1,3.7-18.2,5.7c-3.4,1.1-7.4,2.6-9.2,6
	c-0.7,1.3-1,2.9-0.9,4.5c0.2,1.6,1,2.7,2.1,3.8c3.1,3.1,4,7.7,4.1,12c0,2.4-0.2,4.7-0.4,7.1c-0.2,1.9-0.4,3.8-0.4,5.8
	c-0.2,8.2,3.3,15.5,6.7,22.7v0l0.4,0.7c1.8,3.7,3.5,7.5,4.6,11.5c1.1,3.8,1.4,7.8,0.9,11.8c-0.8,6.8-3.6,13-6.4,19.2
	c-0.3,0.6-0.5,1.2-0.8,1.8c-3.2,7.2-5.9,14.4-6.6,22.3c-0.7,7.5,0.3,15.5,4.2,22.1c3.3,5.7,8.8,10.3,15.1,12.4
	c6.6,2.2,13.7,1.2,19.4-2.9c9.9-7,13-18.4,16-29.7c1.2-4.6,2.5-9.1,4.2-13.4C203.5,273.2,205.4,269.5,208,266.2z M197.7,287.8
	c2.1-7.8,4.7-15.6,9.7-22.1c0,0,0,0,0,0c2.4-3,5.3-5.6,8.8-7.3c3.4-1.7,7.2-2.4,10.9-3.1h0c4.4-0.8,8.9-1.6,12.7-4.1
	c6.2-4.1,9.2-11.6,9.7-18.7c0.6-8.4-1.6-17-3.6-25.1l-0.1-0.4c-2.2-8.8-5-17.6-8.2-26.1c-1.6-4.3-3.4-8.5-5.2-12.7
	c-1.7-3.8-3.4-7.7-5.6-11.3c-1.9-3.3-4.2-6.4-7.3-8.6c-2.8-2-6.1-3.2-9.5-3.6c-6.9-0.8-13.9,1.2-20.4,3.2
	c-5.8,1.8-11.5,3.6-17.3,5.4c-3,0.9-6.1,1.9-9.1,2.8c-1.4,0.4-2.9,0.9-4.4,1.3l0,0l0,0l0,0c-2.9,0.9-5.9,1.8-8.8,2.7
	c-3.5,1.1-7.9,2.5-9.5,6.2c-0.7,1.5-0.8,3.3-0.2,4.9c0.3,0.7,0.8,1.2,1.3,1.8c0.1,0.1,0.2,0.2,0.4,0.4c0.6,0.6,1.1,1.3,1.6,2.1
	c2.1,3.4,2.6,7.5,2.6,11.4c0,2-0.2,3.9-0.4,5.9c-0.2,2.2-0.4,4.4-0.4,6.7c0,4.1,1,8.1,2.4,12c1.1,3.1,2.6,6,4,9
	c2.1,4.3,4.1,8.6,5.4,13.3c0.9,3.5,1.3,7.1,0.9,10.8c-0.3,3.5-1.2,6.9-2.4,10.2c-1.2,3.6-2.8,7-4.3,10.5c-1.4,3.2-2.9,6.5-4.1,9.8
	c-5,13.9-5.5,31.7,6.6,42.2c5,4.4,11.6,7.1,18.3,6.2c7.5-1,13.5-6.4,17.4-12.6c3.9-6.3,5.8-13.4,7.7-20.5
	C197.3,289.3,197.5,288.6,197.7,287.8z M214.4,249.3c-3.4,1.4-6.3,3.8-8.6,6.6c-2.2,2.7-3.8,5.9-5.1,9.1c-1.4,3.6-2.5,7.4-3.5,11.3
	l0,0c-2.6,9.5-5.2,19-13.5,25c-4.8,3.4-10.6,4.3-16.2,2.5c-5.3-1.7-10-5.6-12.8-10.4c-3.3-5.5-4.2-12.1-3.6-18.4
	c0.6-6.6,2.8-12.8,5.5-18.8c0.3-0.6,0.5-1.2,0.8-1.8c2.3-5.1,4.6-10.3,5.3-15.9c0.4-3.3,0.2-6.6-0.7-9.9c-0.9-3.4-2.3-6.5-3.8-9.7
	c-0.1-0.2-0.2-0.4-0.3-0.6l-0.2-0.5c-2.8-5.9-5.7-11.9-5.6-18.6c0-1.7,0.2-3.4,0.4-5.1v0c0.2-2,0.4-3.9,0.4-5.9
	c0-3.6-0.8-7.5-3.4-10.1c-0.9-0.9-1.6-1.8-1.8-3.1c-0.2-1.3,0.1-2.6,0.6-3.7c1.4-2.9,4.7-4.2,7.5-5.1c5.1-1.7,10.3-3.2,15.4-4.8l0,0
	c2.5-0.8,5.1-1.5,7.6-2.3c1.2-0.4,2.5-0.8,3.7-1.1l0.1,0l0,0c2.5-0.8,5-1.6,7.5-2.3c2.8-0.9,5.7-1.7,8.6-2.2
	c5.6-1.1,11.7-1,16.6,2.2c5.4,3.5,8.2,9.8,10.8,15.4l0,0l0.1,0.2l0.1,0.3c3.3,7.2,6.1,14.5,8.5,22.1c2.4,7.4,4.4,14.9,5.8,22.5
	c1.2,6.6,1.6,13.5-1.1,19.8c-1.2,2.7-2.9,5.1-5.1,7c-2.6,2.2-5.9,3.3-9.2,4c-1,0.2-2,0.4-3,0.6h0
	C219.6,247.8,216.9,248.3,214.4,249.3z M205.2,255.4c-4.2,5.4-6.4,11.9-8.1,18.4c-0.1,0.3-0.2,0.6-0.2,0.9c-0.1,0.4-0.2,0.9-0.3,1.3
	c-1.6,5.8-3.2,11.7-6.3,16.9c-3.2,5.3-8.3,10-14.7,10.9c-5.6,0.7-11.2-1.5-15.4-5.2c-10.2-8.9-9.8-23.8-5.6-35.5
	c1-2.8,2.2-5.5,3.4-8.2v0l0,0v0h0c1.3-2.9,2.5-5.7,3.6-8.7c2-5.7,2.8-11.6,1.3-17.5c-1-4-2.8-7.8-4.6-11.5c-1.1-2.4-2.3-4.7-3.2-7.2
	c-1.2-3.2-2.1-6.5-2.1-10c0-2,0.2-4,0.4-6.1l0,0l0,0l0,0v0c0.1-1.5,0.3-3.1,0.3-4.6c0.1-3.3-0.3-6.7-1.9-9.5
	c-0.4-0.7-0.9-1.3-1.4-1.9c-0.2-0.2-0.3-0.3-0.5-0.5h0c-0.4-0.3-0.7-0.7-1-1.1c-0.7-1.3-0.6-3-0.1-4.3c1.3-3.2,5-4.4,8-5.4
	c2.4-0.7,4.8-1.5,7.2-2.2l0,0c1.3-0.4,2.6-0.8,3.9-1.2c2.5-0.8,4.9-1.5,7.4-2.3c4.9-1.5,9.8-3.1,14.8-4.6c5.5-1.7,11.4-3.4,17.2-2.8
	c2.9,0.3,5.7,1.3,8.1,3c2.6,1.9,4.5,4.5,6.1,7.2c1.8,3,3.2,6.3,4.7,9.5c1.6,3.5,3,7.1,4.4,10.6c2.7,7.2,5,14.5,6.9,22l0.1,0.5l0,0v0
	c1.7,6.9,3.6,14.1,3.1,21.2c-0.4,6-2.9,12.3-8.1,15.7c-3.2,2.2-7,2.8-10.8,3.5c-3.2,0.6-6.4,1.2-9.3,2.6
	C209.7,250.7,207.2,252.9,205.2,255.4C205.2,255.4,205.2,255.4,205.2,255.4z M203.7,245.6c1.9-2.3,4.2-4.3,6.9-5.4
	c2-0.8,4.2-1.2,6.3-1.6c0.8-0.2,1.7-0.3,2.5-0.5c2.7-0.6,5.3-1.5,7.5-3.3c1.8-1.6,3.2-3.6,4.2-5.8c2.1-5.1,1.8-10.7,0.8-16
	c-1.1-6.2-2.8-12.3-4.7-18.3c-2-6.2-4.3-12.2-7-18.1l-0.2-0.3c-2.1-4.6-4.4-9.7-8.8-12.5c-4-2.6-9-2.6-13.6-1.7
	c-4.2,0.8-8.2,2.1-12.3,3.4h0c-1.3,0.4-2.6,0.8-3.9,1.2c-2,0.6-4,1.2-6.1,1.9l0,0l0,0l0,0c-4.2,1.3-8.3,2.5-12.5,3.9
	c-2.3,0.8-4.9,1.8-6.1,4.1c-0.9,1.9-0.8,4.1,0.8,5.6c3.6,3.4,3.1,8.5,2.6,13.2c-0.1,1.2-0.2,2.5-0.3,3.6c-0.2,5.8,2.3,10.9,4.7,16
	l0,0l0,0.1c2.4,5.1,4.6,10.3,3.9,16.1c-0.6,4.6-2.5,8.9-4.4,13.1l0,0c-0.2,0.5-0.4,0.9-0.6,1.4c-2.2,4.9-4,10-4.5,15.4
	c-0.4,5.1,0.3,10.5,3,15c2.3,3.9,6.1,7,10.4,8.5c4.5,1.5,9.3,0.8,13.2-2c6.8-4.8,8.9-12.7,11-20.4c0.8-3.1,1.7-6.2,2.8-9
	C200.6,250.4,201.9,247.9,203.7,245.6z M196.5,259.9c1.4-5.2,3.2-10.4,6.5-14.7c0,0,0,0,0,0c0,0,0,0,0,0c1.6-2,3.6-3.8,6-5
	c2.3-1.2,4.9-1.7,7.5-2.1c3.1-0.6,6.1-1.1,8.8-2.9c4.3-2.9,6.3-8.1,6.5-13.1c0.3-5.7-1.2-11.5-2.6-17.1l-0.1-0.3
	c-1.5-6-3.4-12-5.6-17.8c-1.1-2.9-2.3-5.8-3.6-8.6c-1.2-2.6-2.3-5.2-3.8-7.6c-1.3-2.2-2.9-4.3-5-5.8c-2-1.4-4.3-2.1-6.6-2.4
	c-4.8-0.5-9.6,1-14.1,2.4c-5.9,1.8-11.7,3.6-17.6,5.5l-0.4,0.1c-0.9,0.3-1.9,0.6-2.8,0.9c-2,0.6-4.1,1.3-6.1,1.9
	c-2.5,0.8-5.5,1.8-6.4,4.5c-0.3,1.1-0.4,2.4,0.3,3.4c0.2,0.3,0.4,0.5,0.7,0.8c0.2,0.2,0.3,0.3,0.5,0.5c0.4,0.5,0.8,1,1.1,1.6
	c1.2,2.3,1.6,5,1.5,7.6c0,1.3-0.2,2.5-0.3,3.8l0,0l0,0v0c-0.1,1.6-0.3,3.1-0.3,4.7c0,2.8,0.7,5.5,1.7,8.1c0.8,2.1,1.7,4.1,2.7,6.1
	l0,0c1.4,3,2.8,5.9,3.7,9.1c1.3,4.8,0.7,9.6-0.9,14.2c-0.9,2.5-2,5-3,7.4l0,0l0,0l0,0c-0.9,2.1-1.9,4.2-2.7,6.4
	c-3.5,9.6-3.9,21.8,4.4,29c3.4,3,8,4.8,12.5,4.2c5.2-0.7,9.3-4.6,11.9-9c2.5-4.2,3.8-8.9,5-13.5l0,0
	C196.1,261.2,196.3,260.5,196.5,259.9z M207.2,231c-2.3,0.8-4.2,2.4-5.7,4.3c-1.4,1.8-2.4,3.8-3.3,5.9c-0.8,2.2-1.5,4.5-2.1,6.8v0
	c-1.6,5.9-3.3,12-8.5,15.7c-3,2.1-6.7,2.7-10.2,1.6c-3.4-1.1-6.3-3.5-8.1-6.5c-4.4-7.3-2.1-16.1,1.1-23.3c0.2-0.4,0.4-0.8,0.5-1.2
	c1.4-3.2,2.9-6.4,3.3-9.9c0.6-4.5-1.1-8.6-3-12.6c-1.9-3.9-3.7-7.8-3.6-12.3c0-1,0.1-1.9,0.2-2.9l0,0v0c0.1-1.3,0.3-2.6,0.2-3.9
	c0-1.2-0.2-2.4-0.6-3.6c-0.4-1.1-1.1-1.9-1.9-2.7c-1-1.1-1-2.9-0.3-4.2c0.9-1.7,2.9-2.6,4.6-3.1c3.3-1.1,6.6-2.1,9.8-3.1
	c1.6-0.5,3.2-1,4.8-1.5c1-0.3,1.9-0.6,2.9-0.9h0c3.1-1,6.3-2,9.5-2.6c3.5-0.6,7.3-0.6,10.4,1.4c3.4,2.2,5.1,6.1,6.8,9.6l0.1,0.2
	c2.1,4.6,4,9.4,5.5,14.2c1.5,4.6,2.7,9.3,3.6,14.1c0.7,4.1,1,8.4-0.7,12.3c-0.7,1.6-1.8,3.1-3.1,4.3c-1.6,1.4-3.6,2.1-5.6,2.5
	c-0.7,0.2-1.4,0.3-2.2,0.4l0,0C210.2,230.2,208.7,230.5,207.2,231z M200.9,234.8c-2.9,3.7-4.1,8.2-5.3,12.6c-1,3.6-2,7.2-3.9,10.5
	c-2,3.4-5.2,6.5-9.2,7.1c-3.5,0.5-7.1-1-9.7-3.3c-6.4-5.7-5.9-15.2-3.1-22.5c0.6-1.5,1.2-3,1.9-4.5c0.9-2,1.7-3.9,2.4-5.9
	c1.2-3.5,1.6-7.1,0.6-10.7c-0.6-2.5-1.7-4.7-2.8-7l0,0l0,0c-0.7-1.5-1.4-2.9-2-4.4c-0.8-2-1.3-4.1-1.4-6.2c0-1.3,0.1-2.6,0.2-3.9
	c0.1-0.8,0.2-1.7,0.2-2.5c0.1-2.1-0.1-4.2-1-6.1c-0.4-0.8-0.9-1.4-1.6-2.1c-0.7-0.7-0.8-1.7-0.6-2.7c0.6-2.2,3-3,4.9-3.6
	c1.5-0.5,3.1-1,4.6-1.4c0.8-0.2,1.5-0.5,2.3-0.7c0.9-0.3,1.8-0.6,2.7-0.8l1.9-0.6l0,0l0,0c3.1-1,6.1-1.9,9.2-2.8
	c3.4-1.1,7.1-2.1,10.8-1.8c1.8,0.2,3.6,0.8,5.1,1.9c1.6,1.2,2.8,2.9,3.8,4.6c2.3,4,4,8.4,5.7,12.6c1.7,4.5,3.1,9,4.3,13.7l0.1,0.3
	c1.1,4.3,2.2,8.8,1.8,13.3c-0.3,3.7-2,7.6-5.3,9.6c-1.9,1.2-4.2,1.6-6.4,2c-2,0.4-4,0.7-5.9,1.7
	C203.7,231.9,202.2,233.2,200.9,234.8C200.9,234.8,200.9,234.8,200.9,234.8C200.9,234.8,200.9,234.8,200.9,234.8z M199.4,225
	c1.1-1.3,2.4-2.4,4-3c1-0.3,2-0.5,3-0.7l0,0c0.6-0.1,1.1-0.2,1.7-0.3c2.8-0.7,5-2.3,6.1-5c1.1-2.8,0.9-5.8,0.4-8.7
	c-0.6-3.4-1.5-6.7-2.6-9.9c-1.1-3.3-2.3-6.6-3.8-9.7l0-0.1c-1.2-2.5-2.4-5.3-4.8-6.8c-2.2-1.4-4.9-1.4-7.4-1
	c-2.3,0.4-4.5,1.1-6.7,1.9l0,0c-0.7,0.2-1.4,0.4-2.1,0.7c-1.1,0.3-2.2,0.7-3.3,1c-2.3,0.7-4.7,1.4-7,2.2c-1.2,0.4-2.5,1-3.1,2.2
	c-0.4,0.9-0.5,2.1,0.2,2.9c0.1,0.2,0.2,0.3,0.4,0.4c0.3,0.4,0.7,0.8,0.9,1.3c0.3,0.8,0.5,1.6,0.5,2.4c0.1,1,0,2-0.1,3.1
	c-0.1,0.6-0.1,1.3-0.1,1.9c-0.1,3.2,1.2,6,2.5,8.8c1.3,2.8,2.5,5.6,2.1,8.8c-0.3,2.4-1.3,4.6-2.3,6.9l0,0c-0.2,0.4-0.4,0.8-0.5,1.2
	c-2.2,5.1-3.6,11.4-0.4,16.4c2.7,4.2,8.4,6.3,12.7,3.3c3.8-2.6,4.9-6.9,6.1-11.1c0.4-1.6,0.9-3.2,1.5-4.7
	C197.7,227.6,198.4,226.2,199.4,225z M198.8,224.5C198.8,224.4,198.8,224.4,198.8,224.5c0.9-1.1,1.9-2,3.1-2.7
	c1.3-0.7,2.7-1,4.2-1.2l0,0c1.5-0.3,3.1-0.6,4.4-1.4c2.4-1.4,3.6-4.3,3.7-7.1c0.2-3.1-0.6-6.2-1.4-9.1l0-0.2c-0.8-3.2-1.8-6.3-3-9.4
	c-1.1-3-2.3-6-3.9-8.7c-1.4-2.4-3.4-4.3-6.3-4.5c-2.6-0.2-5.2,0.6-7.7,1.3l0,0l0,0c-1.6,0.5-3.1,1-4.7,1.4c-1.6,0.5-3.3,1-4.9,1.5
	c-0.5,0.2-1.1,0.3-1.6,0.5c-1,0.3-2.1,0.6-3.1,1c-1.4,0.5-3.2,1.1-3.4,2.9c-0.1,0.7,0.2,1.1,0.7,1.6c0.4,0.5,0.8,1,1,1.6
	c0.5,1.3,0.6,2.8,0.5,4.1c0,0.5-0.1,1-0.1,1.5c-0.1,1-0.2,2-0.1,3.1c0.1,1.5,0.5,2.9,1.1,4.3c0.4,0.9,0.8,1.8,1.2,2.7v0
	c0.8,1.7,1.6,3.4,2.1,5.3c1,4.1-0.7,7.8-2.3,11.5l0,0c-0.5,1-0.9,2.1-1.3,3.1c-1.9,5.1-2.3,11.7,2.2,15.7c1.9,1.6,4.4,2.6,6.9,2.2
	c2.8-0.5,5-2.8,6.3-5.2c1.2-2.2,1.9-4.6,2.5-7l0,0C195.9,230.2,196.7,227.1,198.8,224.5z M199.6,212.9c-1,0.3-1.7,0.9-2.4,1.7
	c-1.1,1.5-1.6,3.3-2.1,5c-0.6,2.2-1.2,4.3-3,5.9c-2.6,2.4-6.4,1.3-8.2-1.6c-1.8-2.9-1-6.5,0.3-9.4c0.1-0.2,0.2-0.5,0.3-0.7
	c0.6-1.3,1.2-2.6,1.3-4.1c0.2-1.8-0.6-3.4-1.3-5c-0.1-0.1-0.1-0.2-0.2-0.3c-0.8-1.7-1.3-3.3-1.1-5.2c0-0.2,0-0.3,0-0.5
	c0.1-0.8,0.2-1.6,0-2.4c-0.1-0.5-0.4-0.9-0.7-1.3c-0.2-0.2-0.3-0.4-0.4-0.7c-0.4-1.5,1-2.4,2.2-2.8c1.3-0.5,2.7-0.9,4.1-1.3
	c0.7-0.2,1.4-0.4,2-0.6c0.4-0.1,0.8-0.3,1.2-0.4c2.5-0.9,5.6-1.9,7.9-0.3c1.4,0.9,2.1,2.5,2.7,3.9c0.9,1.8,1.6,3.8,2.2,5.7
	c0.6,1.9,1.1,3.8,1.5,5.8c0.3,1.6,0.4,3.3-0.2,4.9c-0.6,1.4-1.6,2.5-3.1,2.9c-0.5,0.2-1,0.2-1.5,0.3
	C200.6,212.7,200.1,212.8,199.6,212.9z M196.6,214.1c1.2-1.4,2.7-1.9,4.5-2.3c1-0.2,2.1-0.4,2.9-1.2c0.6-0.6,1-1.4,1.2-2.2
	c0.5-1.9,0-3.8-0.4-5.7c-0.5-2-1.1-3.9-1.8-5.8c-0.6-1.7-1.3-3.4-2.2-5c-0.8-1.4-1.8-2.6-3.5-2.8c-1.5-0.2-3,0.3-4.4,0.7l-0.1,0
	c-1.1,0.3-2.1,0.7-3.2,1c-0.7,0.2-1.4,0.4-2.1,0.7c-0.3,0.1-0.7,0.2-1,0.3c-0.6,0.2-1.2,0.4-1.8,0.6l-0.1,0
	c-0.8,0.2-1.9,0.6-1.9,1.6c0,0.3,0.2,0.6,0.4,0.8c0.1,0.1,0.2,0.2,0.2,0.3c0.2,0.3,0.3,0.6,0.4,0.9c0.2,0.7,0.3,1.4,0.2,2
	c0,0.3,0,0.7-0.1,1c0,0.5-0.1,1-0.1,1.5c0,0.8,0.2,1.6,0.5,2.4c0.2,0.6,0.5,1.2,0.8,1.8c0.4,0.9,0.9,1.8,1.1,2.8
	c0.7,2.5-0.3,4.8-1.3,7c-0.1,0.3-0.3,0.6-0.4,1c-1.2,2.9-1.8,6.9,0.8,9.3c1,1,2.5,1.6,3.9,1.4c1.7-0.3,2.9-1.7,3.6-3.1
	c0.6-1.2,1-2.5,1.3-3.8C195,217.4,195.4,215.7,196.6,214.1C196.6,214.1,196.6,214.1,196.6,214.1z"/>
</svg>
