<?xml version="1.0" encoding="utf-8"?>
<!-- Generator: Adobe Illustrator 25.4.1, SVG Export Plug-In . SVG Version: 6.00 Build 0)  -->
<svg version="1.1" id="圖層_1" xmlns="http://www.w3.org/2000/svg" xmlns:xlink="http://www.w3.org/1999/xlink" x="0px" y="0px"
	 width="548px" height="518px" viewBox="0 0 548 518" style="enable-background:new 0 0 548 518;" xml:space="preserve">
<style type="text/css">
	.st0{fill-rule:evenodd;clip-rule:evenodd;fill:url(#SVGID_1_);}
</style>
<linearGradient id="SVGID_1_" gradientUnits="userSpaceOnUse" x1="99.9566" y1="470.146" x2="416.7186" y2="99.0573" gradientTransform="matrix(1 0 0 -1 0 519)">
	<stop  offset="0.19" style="stop-color:#CCEEFF"/>
	<stop  offset="0.4893" style="stop-color:#66CCFF;stop-opacity:0.18"/>
	<stop  offset="0.9955" style="stop-color:#CCEEFF"/>
</linearGradient>
<path class="st0" d="M425,210c-2.2,15.2,0.5,30.5,5.9,44.8c5.4,13.7,13.1,26.4,22.1,38c9.8,12.6,21.4,24.5,33.1,36.5v0l0,0l0,0l0,0
	l0,0l0,0l0,0l0,0h0v0l0,0l0,0h0v0l0,0l0,0l0,0l0,0l0,0l0,0c28.6,29.2,57.7,59,61.4,101.3c2.2,24.3-7.2,47.3-25.6,63.3
	c-17.5,15.1-40.9,23.4-63.9,23.3c-26.8,0-52.6-11.1-74-26.6c-22.4-16.3-39.7-37.5-55.7-59.8c-1.3-1.9-2.7-3.7-4-5.6
	c-13.9-19.5-28.1-39.3-47.2-53.9c-11.3-8.7-24.1-14.8-37.8-18.5c-14.1-3.8-28.7-5.3-43.2-6.5c-1-0.1-2-0.2-3-0.3
	c-27.9-2.4-56.1-4.9-80.4-20c-5.8-3.6-11.3-7.6-16.7-11.5h0h0h0l0,0h0h0h0h0h0h0l0,0h0h0h0h0h0l0,0h0h0h0
	c-6.7-4.9-13.5-9.8-20.7-13.9c-13.2-7.5-29.2-13-44.5-8.9c-5.1,1.4-9.5,1.8-14.5-0.4c-4.8-2.1-8.9-5.8-11.7-10.2
	c-7-11.2-4.3-25.7-1.5-37.8c5-21.8,10.1-43.5,15.3-65.2l0,0l0,0l0,0l0,0l0,0l0,0l0,0l0,0l0,0l0,0l0,0l0,0l0,0l0,0l0,0l0,0l0,0l0,0
	l0,0c2.5-10.7,5.1-21.3,7.6-32c1.2-5.2,2.4-10.4,3.7-15.6l0,0c2.5-10.8,5-21.6,7.6-32.4c2.9-12,6-24,10.2-35.6
	c8.1-22.1,21-43.7,42.9-54.3c23.9-11.6,52.2-8.5,78-5.8l0,0l0,0l0,0l0,0l0,0l0,0l0,0c1.2,0.1,2.3,0.2,3.4,0.4
	c32.9,3.5,65.7,8.9,98,16.3c31.3,7.1,62.6,15.7,92.7,26.8c25.9,9.5,51.5,22.8,67.9,45.8c7,9.8,12.1,21.2,13.8,33.2
	c2.1,14.2-1.3,28.2-5.9,41.6c-1.2,3.5-2.4,6.9-3.7,10.3v0l0,0l0,0l0,0l0,0l0,0l0,0l0,0l0,0C430.6,187.8,426.6,198.6,425,210z
	 M430.2,255.1C430.2,255.1,430.2,255.1,430.2,255.1c11.5,29.6,33.1,51.7,54.8,73.8c18.4,18.9,36.9,37.7,49.2,61.2
	c12.1,23.2,18,51.4,7.3,76.3c-9.4,22-29.9,37.6-52.2,45c-54,17.9-107.5-15.3-141.2-55.8c-8-9.6-15.2-19.7-22.5-29.9
	c-7.7-10.8-15.5-21.6-24.1-31.8c-7.9-9.3-16.6-18.1-26.6-25.3c-10.3-7.4-21.8-12.8-34-16.2c-16.3-4.6-33.1-6-50-7.4
	c-11.5-1-23-2-34.4-3.9c-14.3-2.5-28.3-6.8-40.9-14.2c-6.8-4-13.1-8.6-19.5-13.2l0,0h0c-5.6-4.1-11.3-8.2-17.2-11.8
	c-11.5-7.1-24.8-12.8-38.6-12.4c-3,0.1-6,0.4-8.9,1.1c-0.6,0.1-1.2,0.3-1.7,0.4c-2.8,0.7-5.4,1.4-8.4,0.9
	c-6.1-0.9-11.5-4.9-15.1-9.8c-8.6-11.7-5.1-27.8-2-40.8c2.5-10.6,5-21.1,7.4-31.7c1.2-5.3,2.5-10.6,3.7-15.8
	c2.5-10.4,4.9-20.9,7.3-31.3l0,0l0,0l0,0l0,0l0,0l0,0l0,0l0,0l0,0l0,0l0,0l0,0l0,0l0,0l0,0l0,0l0,0c5-21.2,9.9-42.3,14.9-63.5
	c5.6-23.7,12.1-48.5,27-68.3c7.4-9.9,17-18,28.3-22.9C105.4,2.5,119.1,1,132.5,1c14.9,0,29.8,1.7,44.6,3.3
	c16.1,1.8,32.1,4.1,48.1,6.8c31.7,5.4,63.1,12.7,94,21.7l1.4,0.4c28.6,8.3,58.6,17.1,83.3,34.1c21,14.5,38.7,37.2,40,63.6
	c0.8,16.2-4.7,31.1-10.2,46.1c-4.6,12.7-9.3,25.4-10.2,38.9C422.8,229.3,425.4,242.6,430.2,255.1
	C430.2,255.1,430.2,255.1,430.2,255.1z M415.3,208.7c-2.1,14.6,0.5,29.2,5.7,42.8c5.1,13.1,12.5,25.2,21.1,36.3
	c9.3,12.1,20.4,23.4,31.6,34.9l0,0c27.3,27.9,55.1,56.3,58.7,96.8c2.1,23.2-6.8,45.2-24.4,60.4c-16.7,14.5-39.1,22.3-61.1,22.3
	c-25.6,0-50.2-10.6-70.7-25.4c-21.4-15.5-37.9-35.8-53.2-57.1c-1.3-1.8-2.5-3.6-3.8-5.3l0,0l0,0c-13.3-18.6-26.8-37.5-45.1-51.5
	c-10.8-8.3-23-14.1-36.1-17.6c-13.5-3.6-27.4-5-41.3-6.2c-1-0.1-1.9-0.2-2.9-0.3h0c-26.6-2.3-53.6-4.7-76.8-19.1
	c-5.5-3.4-10.7-7.2-16-11h0v0c-6.4-4.7-12.9-9.4-19.8-13.3c-12.7-7.2-27.9-12.4-42.5-8.5c-4.9,1.3-9.1,1.8-13.9-0.3
	c-4.6-2-8.5-5.6-11.1-9.8c-6.7-10.7-4.1-24.6-1.4-36.2c4.7-20.8,9.7-41.6,14.6-62.3l0,0h0h0l0,0h0h0v0h0l0,0h0h0l0,0h0l0,0h0h0l0,0
	h0l0,0l0,0l0,0l0,0l0,0l0,0l0,0l0,0l0,0l0,0l0,0l0,0l0,0l0,0l0,0l0,0l0,0l0,0l0,0l0,0l0,0l0,0c2.4-10.2,4.8-20.3,7.2-30.5
	c1.1-4.8,2.3-9.7,3.4-14.5l0,0l0,0l0,0c2.4-10.4,4.9-20.9,7.4-31.3c2.7-11.5,5.7-22.9,9.8-34c7.7-21.1,20-41.7,41-51.8
	c22.9-11,49.9-8.1,74.5-5.5c1.1,0.1,2.3,0.2,3.4,0.4c31.5,3.3,62.7,8.5,93.6,15.5c29.9,6.8,59.8,15,88.6,25.6
	c24.7,9.1,49.2,21.8,64.8,43.8c6.7,9.4,11.6,20.2,13.2,31.7c2,13.6-1.2,27-5.6,39.8c-1.1,3.3-2.3,6.6-3.5,9.9
	C420.6,187.4,416.8,197.8,415.3,208.7z M420.2,251.8c11,28.2,31.6,49.3,52.3,70.4c17.6,18,35.2,36,47,58.5
	c11.6,22.2,17.2,49.1,7,72.9c-9,21-28.5,35.9-49.9,43C425,513.7,374,482,341.8,443.3c-7.6-9.2-14.5-18.8-21.5-28.5
	c-7.4-10.3-14.8-20.7-23-30.4c-7.6-8.9-15.9-17.3-25.4-24.1c-9.9-7.1-20.8-12.2-32.5-15.5c-15.6-4.3-31.6-5.7-47.7-7.1h0
	c-11-0.9-22-1.9-32.9-3.8c-13.7-2.4-27-6.5-39-13.5c-6.5-3.8-12.5-8.2-18.6-12.6l0,0c-5.4-3.9-10.8-7.8-16.4-11.3
	c-11-6.8-23.7-12.2-36.9-11.9c-2.9,0.1-5.7,0.4-8.5,1.1c-0.6,0.1-1.1,0.3-1.6,0.4c-2.6,0.7-5.1,1.3-8,0.9c-5.8-0.9-11-4.7-14.4-9.3
	c-8.2-11.2-4.8-26.5-2-38.9c2.4-10.2,4.8-20.4,7.2-30.6l0,0c1.2-4.9,2.3-9.9,3.5-14.8c2.3-10,4.7-19.9,7-29.9l0,0
	c4.7-20.2,9.5-40.5,14.3-60.7C50.6,80.1,56.9,56.4,71,37.5c7.1-9.4,16.2-17.2,27-21.9c11.9-5.2,25-6.6,37.8-6.6
	c14.2,0,28.5,1.6,42.6,3.2c15.4,1.7,30.7,3.9,45.9,6.5c30.3,5.2,60.3,12.1,89.8,20.7l1.3,0.4c27.3,8,56,16.3,79.6,32.6
	c20.1,13.9,36.9,35.6,38.2,60.7c0.8,15.5-4.5,29.7-9.7,44c-4.4,12.1-8.9,24.2-9.7,37.1C413.1,227.1,415.7,239.8,420.2,251.8
	C420.2,251.8,420.2,251.8,420.2,251.8z M411,248.1c-4.9-13-7.4-26.9-5.4-40.8c1.5-10.4,5.1-20.3,8.7-30.2v0l0,0l0,0l0,0v0l0,0l0,0
	l0,0l0,0l0,0l0,0l0,0l0,0l0,0l0,0l0,0l0,0l0,0l0,0l0,0c1.1-3.1,2.3-6.2,3.4-9.4c4.2-12.2,7.2-24.9,5.4-37.9
	c-1.6-10.9-6.2-21.2-12.6-30.2c-14.9-20.9-38.2-33.1-61.8-41.7c-27.5-10.1-55.9-17.9-84.5-24.4c-29.4-6.7-59.2-11.6-89.2-14.8
	c-1.1-0.1-2.1-0.2-3.2-0.3c-23.4-2.5-49.2-5.3-71,5.2c-20,9.6-31.7,29.3-39.1,49.4c-3.9,10.6-6.7,21.5-9.3,32.4
	c-2.3,9.8-4.6,19.5-6.9,29.3c-1.1,4.8-2.2,9.6-3.4,14.4c-2.3,9.7-4.6,19.4-6.9,29.1c-4.7,19.8-9.4,39.6-13.9,59.4
	c-2.5,11-5,24.2,1.4,34.5c2.5,4,6.3,7.4,10.6,9.3c4.6,2,8.6,1.6,13.3,0.3c13.9-3.7,28.4,1.3,40.5,8.1c6.6,3.8,12.7,8.2,18.9,12.7v0
	c5,3.6,10,7.3,15.2,10.5c22.2,13.7,47.9,16,73.2,18.2l1.6,0.1l1.1,0.1c13.2,1.2,26.5,2.5,39.3,6c12.5,3.3,24.1,8.9,34.4,16.8
	c17.4,13.3,30.3,31.4,42.9,49.1c1.2,1.7,2.4,3.4,3.7,5.1c14.6,20.3,30.3,39.6,50.7,54.5c19.5,14.1,43,24.2,67.4,24.2
	c21,0,42.3-7.5,58.2-21.3c16.8-14.5,25.3-35.5,23.3-57.6c-3.4-38.6-29.9-65.7-55.9-92.3c-10.7-10.9-21.2-21.7-30.1-33.2
	C422.9,272.2,415.8,260.6,411,248.1z M410.2,248.4C410.2,248.4,410.2,248.4,410.2,248.4C410.2,248.4,410.2,248.4,410.2,248.4
	c-4.3-11.4-6.8-23.5-6-35.7c0.8-12.3,5-23.8,9.2-35.4c5-13.6,10-27.2,9.3-42c-1.2-24-17.2-44.7-36.4-57.9
	c-22.5-15.5-49.8-23.5-75.8-31.1l-1.3-0.4c-28.1-8.2-56.7-14.8-85.6-19.7c-14.5-2.5-29.1-4.6-43.8-6.2c-13.5-1.5-27-3-40.6-3
	c-12.2,0-24.7,1.4-36,6.3c-10.3,4.5-19,11.9-25.8,20.8c-13.5,18-19.4,40.6-24.5,62.2c-4.5,19.2-9,38.4-13.5,57.5l0,0l0,0l0,0l0,0
	c-2.2,9.6-4.5,19.2-6.8,28.8c-1.1,4.7-2.2,9.4-3.3,14.2l0,0l0,0c-2.3,9.7-4.6,19.4-6.8,29.1c-2.8,11.8-5.9,26.4,1.9,37.1
	c3.3,4.5,8.2,8.1,13.7,8.9c2.7,0.4,5.1-0.2,7.6-0.8h0c0.5-0.1,1-0.3,1.6-0.4c2.7-0.6,5.4-1,8.1-1c12.6-0.3,24.6,4.9,35.2,11.3
	c5.4,3.3,10.5,7,15.7,10.8l0,0c5.8,4.2,11.6,8.4,17.7,12c11.5,6.7,24.2,10.6,37.2,12.9c10.3,1.8,20.8,2.7,31.3,3.6
	c15.3,1.3,30.6,2.6,45.5,6.8c11.1,3.1,21.6,8,31,14.7c9.1,6.5,17,14.5,24.2,23c7.9,9.2,14.9,19.1,21.9,28.9h0l0,0v0l0,0h0l0,0v0l0,0
	l0,0l0,0v0h0l0,0l0,0v0l0,0l0,0l0,0l0,0c6.6,9.2,13.2,18.5,20.5,27.2c30.7,36.8,79.3,67.1,128.5,50.8c20.3-6.7,38.9-20.9,47.5-40.9
	c9.7-22.7,4.4-48.3-6.7-69.5c-11.2-21.4-28-38.6-44.8-55.8C440.4,295.4,420.7,275.3,410.2,248.4z M395.9,206
	c-1.9,13.2,0.4,26.4,5.1,38.8c4.6,11.9,11.3,22.8,19.1,32.9c8.5,10.9,18.5,21.2,28.7,31.6c24.8,25.3,49.9,51.1,53.2,87.8
	c1.9,21.1-6.2,41-22.2,54.8c-15.1,13.1-35.4,20.2-55.4,20.2c-23.2,0-45.6-9.6-64.1-23c-19.4-14.1-34.3-32.4-48.2-51.8
	c-1.2-1.6-2.3-3.2-3.5-4.9c-12-16.8-24.3-34-40.8-46.7c-9.8-7.5-20.8-12.8-32.7-16c-12.2-3.3-24.8-4.6-37.4-5.7
	c-0.4,0-0.9-0.1-1.3-0.1l-1.3-0.1c-24.1-2.1-48.6-4.3-69.7-17.3c-5-3.1-9.7-6.5-14.5-10l0,0l0,0c-5.8-4.2-11.7-8.5-18-12.1
	c-11.5-6.5-25.3-11.3-38.5-7.7c-4.5,1.2-8.2,1.6-12.6-0.3c-4.2-1.8-7.7-5-10.1-8.9c-6.1-9.7-3.7-22.3-1.3-32.8
	c4.3-18.8,8.8-37.6,13.2-56.4c2.2-9.2,4.4-18.5,6.5-27.7c1.1-4.6,2.2-9.2,3.2-13.8l0,0l0,0l0,0l0,0l0,0l0,0l0,0l0,0l0,0l0,0l0,0l0,0
	l0,0l0,0l0,0l0,0l0,0l0,0c2.2-9.2,4.3-18.4,6.5-27.7c2.5-10.4,5.2-20.8,8.9-30.8c7-19.2,18.2-37.8,37.2-47c20.7-10,45.2-7.4,67.5-5
	l0,0c1,0.1,2,0.2,3.1,0.3c28.5,3,56.9,7.7,84.8,14.1c27.1,6.1,54.2,13.6,80.3,23.2c22.4,8.3,44.6,19.8,58.8,39.7
	c6.1,8.5,10.5,18.3,12,28.7c1.8,12.3-1.1,24.4-5.1,36c-1,3-2.1,6-3.2,9l0,0l0,0l0,0v0l0,0l0,0l0,0v0l0,0l0,0l0,0v0l0,0l0,0l0,0v0
	l0,0l0,0C400.7,186.7,397.3,196.1,395.9,206z M400.2,245.1c10,25.6,28.7,44.7,47.4,63.8c16,16.3,31.9,32.7,42.6,53
	c10.5,20.1,15.6,44.5,6.3,66c-8.2,19-25.8,32.5-45.2,38.9c-46.8,15.5-93-13.3-122.2-48.3c-6.9-8.3-13.2-17.1-19.5-25.9
	c-6.7-9.4-13.4-18.7-20.9-27.5c-6.9-8.1-14.4-15.7-23-21.9c-8.9-6.4-18.9-11.1-29.5-14c-14.1-3.9-28.7-5.2-43.2-6.4h0l0,0h0l0,0v0h0
	l0,0h0l0,0h0l0,0h0l0,0h0l0,0l0,0l0,0h0c-10-0.8-19.9-1.7-29.8-3.4c-12.4-2.2-24.5-5.9-35.4-12.3c-5.9-3.4-11.4-7.4-16.9-11.4
	c-4.9-3.5-9.8-7.1-14.9-10.2c-10-6.1-21.5-11.1-33.4-10.8c-2.6,0.1-5.2,0.4-7.7,1c-0.5,0.1-1,0.2-1.5,0.4h0
	c-2.4,0.6-4.6,1.2-7.2,0.8c-5.3-0.8-10-4.2-13.1-8.4c-7.4-10.1-4.4-24-1.8-35.3c2.2-9.2,4.3-18.5,6.5-27.7l0,0l0,0l0,0l0,0l0,0l0,0
	l0,0l0,0l0,0l0,0l0,0l0,0l0,0l0,0l0,0l0,0l0,0l0,0c1.1-4.5,2.1-9,3.2-13.4c2.1-9.1,4.3-18.2,6.4-27.3l0,0l0,0l0,0l0,0
	c4.3-18.2,8.6-36.5,12.9-54.7C65.4,89.5,71,68,83.9,50.9c6.4-8.5,14.7-15.5,24.5-19.8c10.8-4.7,22.6-6,34.3-6
	c12.9,0,25.8,1.4,38.6,2.9c13.9,1.6,27.8,3.5,41.6,5.9c27.5,4.7,54.7,11,81.4,18.8l1.2,0.4c24.7,7.2,50.7,14.8,72.1,29.5
	c18.2,12.6,33.5,32.2,34.6,55c0.7,14-4.1,26.9-8.8,39.9c-4,11-8,22-8.8,33.6C393.8,222.7,396.1,234.2,400.2,245.1
	C400.2,245.1,400.2,245.1,400.2,245.1z M391,241.4c-4.5-11.7-6.6-24.3-4.9-36.8c1.3-9.4,4.6-18.3,7.8-27.2c1-2.8,2.1-5.7,3-8.5
	c3.8-11,6.5-22.5,4.8-34.2c-1.4-9.9-5.6-19.2-11.4-27.3C377,88.6,356,77.7,334.7,69.9c-24.8-9.1-50.4-16.1-76.2-22
	c-26.5-6-53.4-10.5-80.4-13.3c-1-0.1-1.9-0.2-2.9-0.3c-21.1-2.3-44.4-4.8-64,4.7c-18,8.7-28.6,26.4-35.3,44.6
	c-3.5,9.5-6,19.4-8.4,29.2c-2.1,8.9-4.2,17.7-6.3,26.6l0,0c-1,4.3-2,8.5-3,12.8c-2.1,8.8-4.1,17.5-6.2,26.2
	c-4.2,17.8-8.5,35.7-12.5,53.5c-2.3,9.9-4.5,21.9,1.2,31.1c2.3,3.6,5.6,6.7,9.6,8.4c4.2,1.8,7.7,1.4,12,0.3
	c12.5-3.3,25.6,1.2,36.5,7.3c6,3.4,11.5,7.4,17,11.4c4.5,3.3,9,6.5,13.7,9.5c20,12.4,43.2,14.4,66.1,16.4c0.8,0.1,1.7,0.1,2.5,0.2
	c11.9,1.1,23.9,2.3,35.5,5.4c11.3,3,21.8,8,31,15.1c15.7,12,27.3,28.3,38.7,44.3l0,0c1.1,1.5,2.2,3.1,3.3,4.6
	c13.2,18.3,27.3,35.8,45.7,49.1c17.6,12.7,38.8,21.8,60.8,21.8c18.9,0,38.2-6.7,52.5-19.2c15.1-13.1,22.8-32,21-52
	c-3.1-34.8-27-59.2-50.4-83.2c-9.6-9.8-19.2-19.6-27.2-30C401.7,263.1,395.4,252.7,391,241.4z M390.3,241.7
	C390.2,241.7,390.2,241.6,390.3,241.7c-3.9-10.3-6.1-21.2-5.4-32.2c0.7-11.1,4.5-21.5,8.3-31.9c4.5-12.3,9-24.6,8.3-37.8
	c-1.1-21.6-15.5-40.3-32.8-52.2c-20.3-14-44.9-21.2-68.3-28v0l-1.2-0.3c-25.4-7.4-51.2-13.3-77.2-17.8c-13.1-2.2-26.3-4.1-39.5-5.6
	c-12.1-1.4-24.4-2.7-36.6-2.7c-11,0-22.3,1.3-32.5,5.7c-9.3,4-17.2,10.7-23.2,18.8c-12.2,16.2-17.5,36.6-22.1,56
	c-4.1,17.5-8.2,35-12.3,52.5l0,0l0,0c-2,8.5-4,16.9-6,25.4c-1,4.4-2.1,8.9-3.1,13.3l0,0c-2,8.6-4,17.2-6,25.7
	c-2.5,10.7-5.4,23.8,1.7,33.4c2.9,4,7.4,7.3,12.4,8c2.4,0.4,4.6-0.2,6.8-0.8h0c0.5-0.1,0.9-0.2,1.4-0.4c2.4-0.6,4.9-0.9,7.4-0.9
	c11.3-0.3,22.2,4.4,31.7,10.2c4.9,3,9.5,6.3,14.1,9.7c5.2,3.8,10.4,7.6,16,10.8c10.3,6.1,21.8,9.6,33.5,11.6
	c9.3,1.6,18.8,2.4,28.2,3.2c13.8,1.2,27.6,2.4,41,6.1c10,2.8,19.5,7.2,28,13.3c8.2,5.9,15.3,13.1,21.9,20.7
	c7.1,8.3,13.4,17.2,19.8,26.1c6,8.3,11.9,16.7,18.5,24.5c27.7,33.2,71.5,60.5,115.8,45.8c18.3-6.1,35.1-18.8,42.8-36.9
	c8.8-20.4,3.9-43.5-6-62.6c-9.9-19-25-34.4-39.9-49.5l0,0c-1.6-1.7-3.2-3.3-4.9-5C414.6,281.4,398.8,263.7,390.3,241.7z
	 M376.4,203.3c-1.7,11.8,0.4,23.7,4.6,34.7c4.2,10.6,10.1,20.5,17.1,29.5c7.6,9.8,16.6,19,25.7,28.3l0,0
	c22.2,22.7,44.8,45.8,47.7,78.7c1.7,18.9-5.6,36.8-19.9,49.2c-13.6,11.8-31.8,18.2-49.7,18.1c-20.8,0-40.9-8.6-57.5-20.7
	c-17.4-12.6-30.8-29.1-43.2-46.4c-1-1.4-2.1-2.9-3.1-4.4c-10.8-15.1-21.8-30.5-36.6-41.9c-8.8-6.7-18.7-11.5-29.3-14.3
	c-10.9-2.9-22.3-4.1-33.5-5.1c-0.8-0.1-1.6-0.1-2.3-0.2c-21.6-1.9-43.5-3.8-62.5-15.5c-4.5-2.8-8.7-5.9-13-9
	c-5.2-3.8-10.5-7.6-16.1-10.8c-10.3-5.8-22.6-10.1-34.5-6.9c-4,1.1-7.4,1.4-11.4-0.3c-3.7-1.6-6.9-4.5-9.1-8
	c-5.4-8.7-3.3-20-1.2-29.4c3.9-16.9,7.8-33.7,11.8-50.6l0,0c2-8.3,3.9-16.6,5.9-24.9c1-4.1,1.9-8.1,2.9-12.2c2-8.3,3.9-16.7,5.9-25
	c2.2-9.3,4.7-18.6,7.9-27.6c6.3-17.2,16.3-33.9,33.3-42.2c18.6-9,40.6-6.6,60.6-4.5l0,0c0.9,0.1,1.8,0.2,2.7,0.3
	c25.6,2.7,51,6.9,76.1,12.6c24.3,5.5,48.6,12.2,72,20.8c20.1,7.4,40,17.7,52.7,35.6c5.4,7.6,9.4,16.5,10.8,25.8
	c1.6,11-1,21.9-4.6,32.3c-0.9,2.7-1.9,5.4-2.9,8.1C380.7,186,377.7,194.4,376.4,203.3z M380.3,238.3c8.1,20.8,23,37.5,38.4,53.3
	c1.5,1.6,3.1,3.1,4.6,4.7c14.1,14.3,28.3,28.8,37.7,46.8c9.4,18,14,39.8,5.7,59.2c-7.3,17.1-23.2,29.1-40.5,34.9
	c-41.9,13.9-83.3-11.9-109.5-43.3c-6.2-7.4-11.8-15.3-17.5-23.2c-6-8.4-12-16.8-18.7-24.7c-6.2-7.2-12.9-14-20.7-19.6
	c-8-5.8-16.9-9.9-26.4-12.6c-12.7-3.5-25.7-4.6-38.8-5.8c-8.9-0.8-17.9-1.5-26.7-3.1c-11.1-1.9-21.9-5.3-31.7-11
	c-5.3-3.1-10.2-6.7-15.1-10.2c-4.4-3.2-8.7-6.3-13.3-9.2c-9-5.5-19.3-9.9-30-9.7c-2.3,0.1-4.7,0.3-7,0.9c-0.5,0.1-0.9,0.2-1.3,0.3
	c-2.1,0.6-4.1,1.1-6.4,0.7c-4.7-0.7-8.9-3.8-11.7-7.6c-6.6-9.1-3.9-21.5-1.6-31.6c1.9-8.1,3.8-16.2,5.7-24.3l0,0c1-4.2,2-8.4,3-12.6
	c1.9-8,3.8-16,5.6-24c3.9-16.5,7.8-33.1,11.7-49.6c4.3-18.4,9.4-37.6,20.9-53c5.7-7.6,13.1-13.9,21.9-17.7
	c9.6-4.2,20.3-5.4,30.7-5.4c11.6,0,23.1,1.3,34.6,2.6c12.5,1.4,24.9,3.2,37.3,5.3c24.6,4.2,49,9.8,73,16.8l1.1,0.3
	c22.2,6.5,45.5,13.2,64.6,26.5c16.3,11.2,30,28.9,31,49.3c0.6,12.6-3.6,24.2-7.9,35.8l0,0c-3.6,9.8-7.2,19.7-7.9,30.2
	C374.5,218.3,376.6,228.6,380.3,238.3C380.3,238.3,380.3,238.3,380.3,238.3z M371,234.7c-4-10.4-5.9-21.6-4.3-32.7
	c1.2-8.4,4.1-16.3,7-24.2h0l0,0v0l0,0l0,0v0l0,0h0l0,0v0c0.9-2.5,1.8-5.1,2.7-7.6c3.3-9.8,5.8-20.1,4.3-30.5
	c-1.3-8.8-5-17.1-10.1-24.3c-12-16.8-30.7-26.6-49.7-33.6c-22.1-8.1-44.9-14.4-67.9-19.6c-23.6-5.4-47.6-9.3-71.7-11.9
	c-0.9-0.1-1.7-0.2-2.6-0.3l0,0c-18.8-2-39.6-4.2-57.1,4.2C105.6,62,96.2,77.8,90.2,94c-3.1,8.5-5.4,17.2-7.5,26
	c-1.9,8-3.8,16-5.6,24l0,0c-0.9,3.7-1.7,7.4-2.6,11.1c-1.8,7.8-3.7,15.6-5.5,23.4l0,0c-3.8,15.9-7.5,31.7-11.2,47.7
	c-2,8.9-4,19.5,1.1,27.8c2,3.3,5,6,8.6,7.5c3.7,1.6,6.9,1.3,10.7,0.3c11.1-3,22.8,1,32.5,6.5c5.3,3,10.2,6.6,15.2,10.2v0
	c4,2.9,8,5.8,12.2,8.4c17.8,11,38.5,12.9,58.9,14.6c0.7,0.1,1.5,0.1,2.2,0.2c10.6,0.9,21.3,2,31.6,4.8c10,2.7,19.4,7.1,27.6,13.5
	c14,10.7,24.3,25.2,34.5,39.4l0,0c1,1.4,2,2.7,2.9,4.1c11.7,16.3,24.3,31.9,40.8,43.8c15.7,11.4,34.6,19.5,54.2,19.5
	c16.9,0,34-6,46.8-17.1c13.5-11.7,20.3-28.5,18.7-46.3c-2.8-31-24-52.8-44.9-74.2c-8.6-8.8-17.1-17.4-24.2-26.7
	C380.6,254,374.9,244.7,371,234.7z M406.5,285.2C392,270.3,378,254.6,370.3,235c0,0,0,0,0,0c0,0,0,0,0,0c-3.5-9.2-5.5-18.9-4.8-28.7
	c0.6-9.9,4-19.1,7.4-28.4c4-11,8-21.9,7.4-33.7c-0.9-19.3-13.8-35.8-29.2-46.4c-18.1-12.5-40-18.9-60.9-24.9l-1-0.3
	c-22.6-6.6-45.6-11.9-68.8-15.9c-11.7-2-23.4-3.7-35.2-5c-10.8-1.2-21.7-2.4-32.6-2.4c-9.8,0-19.8,1.1-28.9,5.1
	c-8.3,3.6-15.3,9.5-20.7,16.7c-10.8,14.4-15.6,32.6-19.7,49.9c-3.7,15.5-7.3,31-10.9,46.5l0,0l0,0l0,0l0,0l0,0l0,0l0,0
	c-1.8,7.6-3.6,15.2-5.3,22.8c-0.9,3.7-1.7,7.4-2.6,11.1l0,0l0,0l0,0l0,0l0,0l0,0l0,0l0,0l0,0l0,0l0,0l0,0l0,0l0,0l0,0
	c-1.9,7.9-3.7,15.8-5.6,23.7c-2.2,9.5-4.8,21.2,1.5,29.7c2.6,3.6,6.6,6.4,11,7.1c2.2,0.3,4.1-0.2,6.1-0.7h0c0.4-0.1,0.8-0.2,1.3-0.3
	c2.1-0.5,4.4-0.8,6.6-0.8c10.1-0.2,19.8,3.9,28.3,9.1c4.3,2.7,8.5,5.7,12.6,8.6c4.6,3.4,9.3,6.7,14.2,9.6
	c9.2,5.4,19.4,8.5,29.9,10.4c8.3,1.5,16.7,2.2,25.2,2.9l0,0l0,0h0l0,0l0,0l0,0h0l0,0l0,0l0,0h0l0,0l0,0l0,0h0l0,0
	c12.3,1,24.6,2.1,36.5,5.4c9,2.5,17.4,6.4,24.9,11.9c7.3,5.2,13.7,11.7,19.5,18.5c6.3,7.4,12,15.3,17.6,23.3v0h0l0,0v0l0,0h0v0l0,0
	l0,0l0,0l0,0l0,0v0h0l0,0c5.3,7.4,10.6,14.8,16.4,21.8c24.6,29.6,63.7,53.8,103.1,40.8c16.3-5.4,31.2-16.8,38.1-32.8
	c7.8-18.2,3.5-38.8-5.4-55.7c-8.8-16.9-22.3-30.6-35.5-44.1C409.3,288.1,407.9,286.6,406.5,285.2z M357,200.6
	c-1.5,10.4,0.4,20.9,4.1,30.7c3.7,9.4,9,18.1,15.1,26.1c6.7,8.7,14.7,16.8,22.7,25.1c19.6,20.1,39.6,40.5,42.2,69.6
	c1.5,16.7-4.9,32.5-17.6,43.5c-12,10.4-28.1,16.1-44,16.1c-18.4,0-36.2-7.6-50.9-18.3c-15.4-11.2-27.2-25.7-38.3-41.1
	c-0.9-1.3-1.8-2.6-2.8-3.9c-9.5-13.4-19.3-27-32.4-37c-7.7-5.9-16.5-10.1-25.9-12.6c-9.7-2.6-19.7-3.6-29.7-4.5
	c-0.7-0.1-1.3-0.1-2-0.2l0,0l0,0l0,0h0l0,0c-19.2-1.7-38.5-3.4-55.3-13.7c-4-2.5-7.7-5.2-11.5-7.9v0c-4.6-3.4-9.3-6.7-14.2-9.6
	c-9.1-5.2-20-8.9-30.5-6.1c-3.6,1-6.6,1.3-10.1-0.3c-3.3-1.4-6.2-4-8.1-7.1c-4.8-7.7-3-17.7-1.1-26.1c3.4-14.9,6.9-29.8,10.5-44.8
	c1.7-7.3,3.5-14.7,5.2-22c0.8-3.5,1.7-7.1,2.5-10.6h0c1.7-7.4,3.5-14.9,5.3-22.3c2-8.2,4.1-16.5,7-24.4c5.6-15.2,14.4-30,29.5-37.3
	c16.5-7.9,35.9-5.9,53.6-4c0.8,0.1,1.6,0.2,2.4,0.3c22.6,2.4,45.1,6.1,67.3,11.2c21.5,4.9,43,10.8,63.7,18.4
	c17.8,6.6,35.4,15.7,46.6,31.5c4.8,6.8,8.3,14.6,9.5,22.8c1.4,9.8-0.9,19.4-4,28.6c-0.8,2.4-1.7,4.8-2.5,7.1
	C360.8,185.3,358.1,192.7,357,200.6z M360.3,231.5C360.3,231.5,360.3,231.6,360.3,231.5c7.2,18.5,20.4,33.3,34,47.2
	c1.3,1.4,2.7,2.8,4.1,4.1l0,0l0,0c12.5,12.7,25.1,25.5,33.3,41.4c8.3,15.9,12.3,35.2,5,52.3c-6.5,15.1-20.5,25.7-35.8,30.8
	c-37,12.3-73.7-10.5-96.8-38.3c-5.5-6.6-10.5-13.5-15.4-20.5h0v0l0,0l0,0l0,0v0h0l0,0l0,0v0l0,0l0,0l0,0l0,0l0,0l0,0l0,0l0,0v0h0v0
	l0,0l0,0l0,0v0h0v0l0,0c-5.3-7.4-10.6-14.9-16.5-21.8c-5.5-6.4-11.4-12.4-18.3-17.4c-7.1-5.1-15-8.8-23.4-11.1
	c-11.2-3.1-22.8-4.1-34.3-5.1l0,0h0c-7.9-0.7-15.8-1.3-23.6-2.7c-9.8-1.7-19.4-4.6-28-9.7c-4.7-2.7-9-5.9-13.4-9.1
	c-3.9-2.8-7.7-5.6-11.8-8.1c-7.9-4.9-17.1-8.8-26.6-8.5c-2.1,0.1-4.1,0.3-6.2,0.8c-0.4,0.1-0.8,0.2-1.2,0.3
	c-1.9,0.5-3.6,0.9-5.6,0.6c-4.2-0.6-7.9-3.3-10.3-6.7c-5.9-8-3.5-19-1.4-27.9c1.7-7.3,3.4-14.5,5.1-21.8l0,0l0,0
	c0.9-3.6,1.7-7.3,2.6-10.9c1.7-7.1,3.4-14.3,5-21.4c3.4-14.6,6.8-29.1,10.3-43.7c3.8-16.2,8.3-33.3,18.5-46.8
	c5.1-6.8,11.6-12.3,19.4-15.7c8.5-3.7,17.9-4.8,27.2-4.7c10.2,0,20.5,1.1,30.6,2.3c11,1.2,22.1,2.8,33,4.7
	c21.8,3.7,43.4,8.7,64.6,14.9l1,0.3c19.6,5.7,40.2,11.7,57.1,23.4c14.4,9.9,26.5,25.5,27.4,43.6c0.5,11.1-3.2,21.4-7,31.6
	c-3.2,8.7-6.4,17.4-7,26.7C355.2,213.8,357,222.9,360.3,231.5z M351.1,227.9c-3.5-9.1-5.2-18.9-3.8-28.7c1-7.3,3.6-14.3,6.1-21.2
	c0.8-2.2,1.6-4.4,2.4-6.7c2.9-8.6,5.1-17.6,3.8-26.7c-1.1-7.7-4.4-15-8.9-21.4c-10.5-14.8-27-23.3-43.6-29.5
	c-19.4-7.1-39.4-12.6-59.6-17.2c-20.7-4.7-41.7-8.2-62.9-10.4c-0.4,0-0.9-0.1-1.3-0.1l-1-0.1c-16.5-1.8-34.7-3.7-50.1,3.7
	c-14.1,6.8-22.4,20.7-27.6,34.9c-2.7,7.5-4.7,15.1-6.6,22.9c-1.6,6.9-3.3,13.8-4.9,20.7l0,0l0,0l0,0l0,0c-0.8,3.4-1.6,6.7-2.4,10.1
	c-1.6,6.9-3.2,13.7-4.9,20.6l0,0l0,0l0,0l0,0l0,0l0,0l0,0h0l0,0h0l0,0h0l0,0h0l0,0h0h0l0,0h0l0,0c-3.3,13.9-6.6,27.8-9.8,41.8
	c-1.8,7.8-3.5,17.1,1,24.4c1.8,2.9,4.4,5.3,7.5,6.6c3.3,1.4,6.1,1.1,9.4,0.2c9.8-2.6,20,0.9,28.4,5.7c4.7,2.6,9,5.8,13.3,8.9v0
	c3.5,2.6,7,5.1,10.7,7.4c15.7,9.7,33.8,11.3,51.7,12.9l0,0c0.6,0.1,1.2,0.1,1.9,0.2c9.3,0.8,18.7,1.8,27.7,4.2
	c8.8,2.3,17,6.3,24.2,11.8c12.3,9.4,21.3,22.1,30.3,34.6l0,0l0,0c0.9,1.2,1.7,2.4,2.6,3.6c10.3,14.3,21.4,28,35.8,38.4
	c13.8,10,30.4,17.1,47.6,17.1c14.8,0,29.9-5.3,41.1-15c11.8-10.3,17.8-25.1,16.5-40.7c-2.4-27.2-21.1-46.3-39.4-65.1v0
	c-7.5-7.7-15-15.3-21.3-23.4C359.4,244.9,354.5,236.7,351.1,227.9z M382.1,272.3c-12.7-13.1-25-26.9-31.7-44.1c0,0,0,0,0,0
	c-3.1-8-4.8-16.6-4.2-25.2c0.6-8.6,3.5-16.8,6.5-24.9c3.5-9.6,7-19.2,6.5-29.6c-0.8-16.9-12.1-31.4-25.6-40.7
	c-15.8-10.9-35.1-16.5-53.4-21.9l-0.9-0.3c-19.8-5.8-40-10.4-60.4-13.9c-10.2-1.8-20.5-3.2-30.9-4.4c-9.5-1.1-19-2.1-28.6-2.1
	c-8.6,0-17.4,1-25.4,4.4c-7.3,3.2-13.4,8.3-18.1,14.7c-9.5,12.7-13.7,28.6-17.3,43.8c-3.2,13.5-6.4,27.1-9.5,40.6
	c-1.6,6.8-3.2,13.5-4.8,20.3c-0.8,3.4-1.6,6.8-2.4,10.1l0,0l0,0c-1.6,6.8-3.2,13.6-4.8,20.3c-1.9,8.3-4.2,18.6,1.3,26.1
	c2.3,3.1,5.7,5.6,9.6,6.2c1.9,0.3,3.5-0.1,5.2-0.6c0.4-0.1,0.8-0.2,1.1-0.3c1.9-0.4,3.8-0.7,5.8-0.7c8.9-0.2,17.4,3.4,24.8,8
	c3.8,2.3,7.4,5,11,7.6h0c4.1,3,8.2,5.9,12.5,8.5c8.1,4.7,17,7.5,26.2,9.1c7.3,1.3,14.7,1.9,22.1,2.5h0c10.8,0.9,21.6,1.8,32.1,4.8
	c7.9,2.2,15.3,5.6,21.9,10.4c6.4,4.6,12,10.2,17.1,16.2c5.5,6.5,10.5,13.5,15.5,20.4c4.7,6.5,9.3,13,14.4,19.2
	c21.6,25.9,55.8,47.2,90.5,35.8c14.3-4.7,27.4-14.7,33.4-28.8c6.8-15.9,3.1-34-4.7-48.8c-7.7-14.9-19.5-26.9-31.2-38.7
	C384.6,274.9,383.3,273.6,382.1,272.3z M337.5,197.9c-1.3,9.1,0.3,18.2,3.5,26.7c3.2,8.2,7.8,15.7,13.2,22.7
	c5.8,7.6,12.8,14.7,19.8,21.8l0,0c17.1,17.5,34.4,35.2,36.7,60.6c1.3,14.6-4.3,28.3-15.3,37.9c-10.5,9.1-24.5,14-38.3,14
	c-16,0-31.5-6.6-44.3-15.9c-13.4-9.7-23.7-22.4-33.3-35.7c-0.8-1.1-1.6-2.2-2.4-3.4c-8.3-11.6-16.7-23.4-28.1-32.2
	c-6.7-5.2-14.3-8.8-22.5-11c-8.4-2.2-17.1-3.1-25.8-3.9l-0.9-0.1l-0.9-0.1l0,0c-16.7-1.5-33.5-2.9-48.1-12c-3.4-2.1-6.7-4.5-10-6.9
	h0c-4-2.9-8.1-5.8-12.4-8.3c-7.9-4.5-17.4-7.8-26.4-5.3c-3.1,0.8-5.8,1.1-8.8-0.2c-2.9-1.3-5.4-3.5-7-6.2
	c-4.2-6.7-2.6-15.4-0.9-22.7c3-13,6-25.9,9.1-38.9c1.5-6.4,3-12.8,4.5-19.2c0.7-3.1,1.5-6.2,2.2-9.4l0,0v0l0,0l0,0l0,0v0l0,0l0,0
	l0,0v0l0,0l0,0c1.5-6.4,3-12.8,4.5-19.2c1.7-7.2,3.6-14.3,6.1-21.3c4.8-13.3,12.6-26.1,25.7-32.5c14.3-6.9,31.2-5.1,46.6-3.4l0,0
	l0,0l0.1,0l0,0c0.7,0.1,1.3,0.1,2,0.2c19.7,2.1,39.2,5.3,58.5,9.7c18.7,4.2,37.4,9.4,55.4,16c15.5,5.7,30.8,13.7,40.6,27.4
	c4.2,5.9,7.2,12.7,8.3,19.9c1.2,8.5-0.8,16.9-3.5,24.9c-0.7,2.1-1.5,4.1-2.2,6.2C340.9,184.6,338.5,191.1,337.5,197.9z M340.3,224.8
	C340.3,224.8,340.3,224.8,340.3,224.8L340.3,224.8L340.3,224.8c6.3,16.1,17.7,28.9,29.6,41.1c1.2,1.2,2.3,2.4,3.5,3.6l0,0l0,0l0,0
	l0,0l0,0l0,0l0,0c10.8,11,21.8,22.2,29,36c7.2,13.8,10.7,30.6,4.4,45.4c-5.6,13.1-17.8,22.4-31.1,26.8c-32.2,10.7-64-9.1-84.1-33.3
	c-4.8-5.7-9.1-11.8-13.4-17.8l0,0l0,0l0,0v0l0,0h0l0,0v0l0,0l0,0l0,0v0h0c-4.6-6.5-9.2-12.9-14.4-19c-4.7-5.6-10-10.8-15.9-15.1
	c-6.2-4.4-13.1-7.7-20.4-9.7c-9.7-2.7-19.8-3.6-29.8-4.4c-6.9-0.6-13.8-1.2-20.5-2.4c-8.5-1.5-16.8-4-24.4-8.4
	c-4-2.4-7.8-5.1-11.6-7.9h0v0l0,0h0l0,0v0h0l0,0l0,0h0v0l0,0c-3.4-2.4-6.7-4.9-10.3-7.1c-6.9-4.3-14.9-7.6-23.1-7.4
	c-1.8,0-3.6,0.3-5.4,0.7c-0.4,0.1-0.7,0.2-1.1,0.3c-1.6,0.4-3.1,0.8-4.9,0.5c-3.6-0.5-6.8-2.9-8.9-5.8c-5.1-7-3-16.5-1.2-24.2
	c1.5-6.3,3-12.6,4.4-18.9c0.7-3.2,1.5-6.3,2.2-9.5c1.5-6.3,3-12.6,4.4-18.9l0,0c2.9-12.6,5.9-25.2,8.9-37.7
	c3.3-14.1,7.2-28.9,16.1-40.7c4.4-5.9,10.1-10.7,16.8-13.6c7.4-3.2,15.6-4.1,23.6-4.1c8.9,0,17.8,1,26.6,2
	c9.6,1.1,19.2,2.4,28.7,4.1c18.9,3.2,37.7,7.6,56.1,12.9l0.9,0.3l0,0c17,5,34.9,10.2,49.6,20.3c12.5,8.6,23,22.2,23.8,37.9
	c0.5,9.7-2.8,18.6-6.1,27.5c-2.8,7.6-5.5,15.1-6.1,23.2C335.9,209.4,337.5,217.3,340.3,224.8z M331.1,221.2
	c-3-7.9-4.5-16.3-3.3-24.7c0.9-6.3,3.1-12.3,5.3-18.3c0.7-1.9,1.4-3.8,2.1-5.7c2.5-7.4,4.4-15.2,3.3-23c-1-6.7-3.8-12.9-7.7-18.4
	c-9-12.7-23.2-20.1-37.6-25.4c-16.7-6.1-34-10.9-51.3-14.8c-17.8-4-35.9-7-54.1-9c-0.6-0.1-1.3-0.1-1.9-0.2
	c-14.2-1.5-29.9-3.2-43.2,3.2c-12.2,5.9-19.3,17.8-23.8,30.1c-2.3,6.4-4.1,13-5.7,19.7c-1.4,5.9-2.8,11.8-4.2,17.6l0,0l0,0l0,0
	c-0.7,2.9-1.4,5.9-2.1,8.8c-1.4,5.9-2.8,11.8-4.2,17.7c-2.8,12-5.7,24-8.4,36c-1.5,6.7-3,14.8,0.9,21c1.5,2.5,3.8,4.6,6.5,5.7
	c2.8,1.2,5.3,1,8.2,0.2c8.4-2.2,17.2,0.8,24.4,4.9c4,2.3,7.7,5,11.5,7.7c3,2.2,6.1,4.4,9.2,6.4c13.5,8.3,29.1,9.7,44.5,11.1
	c0.5,0,1.1,0.1,1.6,0.1c8,0.7,16.1,1.5,23.9,3.6c7.6,2,14.6,5.4,20.8,10.1c10.5,8.1,18.4,19,26,29.8c0.7,1,1.5,2.1,2.2,3.1
	c8.9,12.3,18.4,24.1,30.8,33.1c11.9,8.6,26.2,14.7,41,14.7c12.8,0,25.8-4.6,35.4-13c10.2-8.9,15.4-21.6,14.2-35.1
	c-2.1-23.4-18.1-39.9-33.9-56c-6.5-6.6-12.9-13.2-18.3-20.2C338.3,235.8,334,228.8,331.1,221.2z M357.7,259.5
	c-11-11.2-21.5-23.1-27.3-37.9c0,0,0,0,0,0l0,0c-2.6-6.9-4.1-14.3-3.6-21.7c0.5-7.4,3-14.4,5.6-21.4c3-8.3,6-16.5,5.6-25.4
	c-0.7-14.5-10.4-27-22-35c-13.6-9.4-30.2-14.2-45.9-18.8l-0.8-0.2c-17.1-5-34.4-9-51.9-12c-8.8-1.5-17.7-2.8-26.5-3.8
	c-8.2-0.9-16.4-1.8-24.6-1.8c-7.4,0-15,0.8-21.8,3.8c-6.2,2.7-11.5,7.2-15.6,12.6c-8.2,10.9-11.8,24.6-14.9,37.6
	c-2.7,11.5-5.4,23.1-8.1,34.6l0,0c-1.4,5.9-2.8,11.8-4.2,17.7c-0.7,2.8-1.3,5.6-2,8.5c-1.4,5.9-2.8,11.9-4.2,17.8
	c-1.7,7.1-3.6,15.9,1.1,22.4c1.9,2.7,4.9,4.8,8.2,5.3c1.6,0.2,3-0.1,4.5-0.5l0,0l0,0l0,0l0,0c0.3-0.1,0.7-0.2,1-0.2
	c1.6-0.4,3.3-0.6,5-0.6c7.6-0.2,15,2.9,21.4,6.9c3.3,2,6.4,4.3,9.5,6.5c3.5,2.5,7,5.1,10.8,7.3c6.9,4.1,14.6,6.4,22.5,7.8
	c6.3,1.1,12.6,1.6,19,2.2c9.3,0.8,18.6,1.6,27.6,4.1c6.8,1.9,13.1,4.9,18.9,9c5.5,4,10.3,8.8,14.7,14c4.8,5.6,9,11.6,13.3,17.6
	c4,5.6,8,11.2,12.4,16.5c18.6,22.3,48,40.6,77.8,30.8c12.3-4.1,23.5-12.6,28.7-24.8c5.9-13.7,2.6-29.2-4-42
	c-6.7-12.8-16.8-23.1-26.8-33.3C359.8,261.7,358.8,260.6,357.7,259.5z M318.1,195.2c-1.1,7.7,0.3,15.4,3,22.6
	c2.7,6.9,6.6,13.4,11.2,19.3c5,6.4,10.9,12.5,16.8,18.5h0l0,0l0,0v0h0l0,0l0,0l0,0l0,0l0,0c14.5,14.9,29.3,30,31.2,51.5
	c1.1,12.4-3.6,24.1-13,32.2c-8.9,7.7-20.8,11.9-32.6,11.9c-13.6,0-26.8-5.6-37.7-13.5c-11.4-8.3-20.2-19-28.3-30.4
	c-0.7-0.9-1.4-1.9-2-2.9c-7-9.9-14.2-19.9-23.9-27.3c-5.7-4.4-12.2-7.5-19.1-9.3c-7.2-1.9-14.6-2.7-21.9-3.3l-0.5,0l-1-0.1
	c-14.2-1.2-28.5-2.5-40.9-10.2c-2.9-1.8-5.7-3.8-8.5-5.9c-3.4-2.5-6.8-5-10.5-7.1c-6.7-3.8-14.7-6.6-22.4-4.5
	c-2.7,0.7-4.9,0.9-7.5-0.2c-2.5-1.1-4.6-3-6-5.3c-3.6-5.8-2.2-13.2-0.8-19.4c2.5-11,5.1-22,7.7-33v0l0,0l0,0v0l0,0l0,0l0,0v0l0,0v0
	c1.3-5.4,2.6-10.9,3.9-16.4c0.6-2.6,1.2-5.1,1.8-7.7l0,0l0,0l0,0l0,0l0,0l0,0v0c1.3-5.5,2.6-11.1,3.9-16.6
	c1.5-6.1,3.1-12.2,5.2-18.1c4.1-11.3,10.7-22.2,21.9-27.6c12.2-5.9,26.6-4.3,39.7-2.9l0,0l0.5,0.1l0.3,0c0.3,0,0.6,0.1,0.9,0.1
	c16.7,1.8,33.3,4.5,49.7,8.3c15.9,3.6,31.8,8,47.1,13.6c13.2,4.9,26.2,11.6,34.5,23.3c3.6,5,6.2,10.8,7.1,16.9
	c1.1,7.2-0.7,14.4-3,21.2c-0.6,1.8-1.2,3.5-1.9,5.3v0C320.9,183.9,318.9,189.4,318.1,195.2z M320.3,218.1L320.3,218.1
	C320.3,218.1,320.4,218.1,320.3,218.1c5.3,13.7,15.1,24.6,25.1,34.9c1,1,2,2,3,3.1h0c9.2,9.4,18.5,18.9,24.6,30.6
	c6.1,11.7,9.1,26,3.7,38.5c-4.8,11.1-15.1,19-26.4,22.7c-27.3,9.1-54.4-7.8-71.4-28.2c-4.1-4.9-7.7-10-11.4-15.2
	c-3.9-5.5-7.8-11-12.2-16.1c-4-4.7-8.5-9.2-13.5-12.9c-5.3-3.8-11.1-6.5-17.4-8.3c-8.3-2.3-16.8-3-25.4-3.8c-5.8-0.5-11.7-1-17.5-2
	c-7.3-1.3-14.3-3.4-20.7-7.2c-3.4-2-6.7-4.4-9.9-6.7c-2.9-2.1-5.7-4.1-8.7-6c-5.9-3.6-12.7-6.5-19.7-6.3c-1.5,0-3.1,0.2-4.6,0.6
	c-0.3,0.1-0.6,0.2-0.9,0.2h0h0c-1.4,0.3-2.6,0.7-4.1,0.5c-3-0.5-5.8-2.4-7.6-4.9c-4.3-5.9-2.5-14-1-20.5c1.3-5.5,2.6-10.9,3.8-16.4
	l0,0c0.6-2.6,1.2-5.1,1.8-7.7c1.2-5.2,2.4-10.3,3.6-15.5v0v0l0,0v0v0v0l0,0v0v0v0c2.5-10.9,5.1-21.8,7.7-32.6
	c2.8-12,6.1-24.6,13.6-34.6c3.7-5,8.6-9.1,14.3-11.6c6.3-2.7,13.2-3.5,20-3.5c7.5,0,15.1,0.8,22.6,1.7c8.2,0.9,16.3,2.1,24.4,3.5
	c16.1,2.8,32,6.4,47.7,11l0.8,0.2c14.5,4.2,29.6,8.6,42.2,17.3c10.6,7.3,19.6,18.8,20.2,32.1c0.4,8.2-2.4,15.8-5.2,23.4
	c-2.4,6.4-4.7,12.9-5.2,19.7C316.6,204.9,317.9,211.7,320.3,218.1L320.3,218.1C320.3,218.1,320.3,218.1,320.3,218.1z M311.1,214.5
	c-2.5-6.6-3.7-13.6-2.7-20.6c0.7-5.3,2.6-10.3,4.4-15.3c0.6-1.6,1.2-3.2,1.7-4.8c2.1-6.2,3.7-12.7,2.7-19.3
	c-0.8-5.6-3.2-10.9-6.4-15.4c-7.6-10.7-19.5-16.9-31.5-21.3c-14-5.1-28.5-9.1-43-12.4c-14.9-3.4-30.1-5.9-45.3-7.5
	c-0.5-0.1-1.1-0.1-1.6-0.2c-11.9-1.3-25.1-2.7-36.2,2.7c-10.2,4.9-16.2,14.9-20,25.2c-2,5.4-3.4,10.9-4.7,16.5
	c-1.2,5-2.4,10-3.5,14.9l0,0l0,0l0,0c-0.6,2.4-1.1,4.8-1.7,7.2c-1.2,5-2.3,9.9-3.5,14.9l0,0v0v0v0l0,0v0v0v0l0,0l0,0
	c-2.4,10-4.8,20-7,30.1c-1.3,5.7-2.5,12.4,0.7,17.7c1.3,2.1,3.2,3.8,5.5,4.8c2.4,1,4.5,0.8,6.9,0.2c7-1.9,14.3,0.7,20.4,4.1
	c3.4,1.9,6.5,4.2,9.6,6.4c2.5,1.8,5.1,3.7,7.7,5.3c11.3,7,24.4,8.1,37.3,9.3l0,0c0.5,0,0.9,0.1,1.4,0.1c6.7,0.6,13.5,1.3,20,3
	c6.3,1.7,12.2,4.5,17.4,8.5c8.8,6.8,15.4,15.9,21.8,24.9l0,0c0.6,0.9,1.2,1.7,1.9,2.6c7.4,10.3,15.4,20.2,25.8,27.7
	c9.9,7.2,21.9,12.3,34.4,12.4c10.7,0,21.6-3.8,29.7-10.9c8.6-7.4,12.9-18.1,11.9-29.4c-1.7-19.7-15.2-33.4-28.5-47
	c-5.4-5.5-10.8-11-15.3-16.9C317.1,226.7,313.6,220.8,311.1,214.5z M333.3,246.6c-9.2-9.4-18-19.4-22.9-31.8c0,0,0,0,0,0
	c0,0,0,0,0,0l0,0l0,0c-2.2-5.8-3.5-12-3.1-18.2c0.4-6.2,2.6-12.1,4.7-17.9c2.5-6.9,5.1-13.8,4.7-21.3c-0.6-12.1-8.7-22.6-18.4-29.3
	c-11.4-7.9-25.3-11.9-38.4-15.7l-0.7-0.2c-14.3-4.2-28.8-7.5-43.5-10c-7.4-1.3-14.8-2.3-22.2-3.2c-6.8-0.8-13.7-1.5-20.6-1.5
	c-6.2,0-12.5,0.7-18.3,3.2c-5.2,2.3-9.6,6-13,10.5c-6.8,9.1-9.8,20.6-12.4,31.5c-2.3,9.8-4.6,19.7-6.9,29.6
	c-1.1,4.8-2.2,9.6-3.4,14.3c-0.6,2.3-1.1,4.7-1.7,7l0,0c-1.2,5-2.3,10-3.5,15c-1.4,6-3,13.3,0.9,18.7c1.6,2.2,4.1,4,6.9,4.4
	c1.3,0.2,2.5-0.1,3.7-0.4c0.3-0.1,0.5-0.1,0.8-0.2c1.4-0.3,2.8-0.5,4.2-0.5c6.4-0.2,12.6,2.5,18,5.8c2.7,1.7,5.3,3.6,8,5.5l0,0v0
	l0,0l0,0l0,0h0l0,0l0,0l0,0c2.9,2.1,5.9,4.3,9,6.1c5.8,3.4,12.2,5.4,18.9,6.5c5.3,0.9,10.6,1.4,15.9,1.8h0h0
	c7.8,0.7,15.6,1.3,23.1,3.4c5.7,1.6,11,4.1,15.8,7.5c4.6,3.3,8.7,7.4,12.3,11.7c4,4.7,7.6,9.7,11.1,14.7c3.4,4.7,6.7,9.4,10.4,13.8
	c15.5,18.7,40.2,34,65.1,25.7c10.3-3.4,19.7-10.6,24-20.7c4.9-11.5,2.2-24.4-3.4-35.1c-5.6-10.7-14.1-19.3-22.5-27.9
	C335.1,248.5,334.2,247.5,333.3,246.6z M298.7,192.5c-0.9,6.3,0.2,12.7,2.5,18.6c2.2,5.7,5.4,11,9.2,15.8c4.1,5.3,9,10.3,13.8,15.3
	l0,0c12,12.2,24.1,24.7,25.7,42.5c0.9,10.2-3,19.9-10.7,26.6c-7.3,6.4-17.2,9.8-26.9,9.8c-11.2,0-22.1-4.7-31.1-11.2
	c-9.4-6.8-16.6-15.7-23.3-25c-0.6-0.8-1.1-1.6-1.7-2.3l0,0l0,0c-5.8-8.1-11.7-16.4-19.7-22.5c-4.7-3.6-10-6.1-15.7-7.7
	c-5.9-1.6-12-2.2-18.1-2.7l-0.8-0.1l-0.4,0c-11.7-1-23.5-2.1-33.7-8.4c-2.4-1.5-4.7-3.2-7-4.8l0,0c-2.8-2-5.6-4.1-8.7-5.8
	c-5.5-3.1-12.1-5.4-18.4-3.7c-2.2,0.6-4.1,0.8-6.3-0.2c-2-0.9-3.8-2.5-5-4.4c-3-4.8-1.8-10.9-0.7-16c2.1-9,4.2-18.1,6.3-27.1
	c1.1-4.5,2.1-9,3.2-13.5c0.5-2.2,1-4.4,1.5-6.6l0,0l0,0l0,0l0,0l0,0l0,0l0,0l0,0c1-4.4,2.1-8.9,3.1-13.3c1.2-5,2.5-10.1,4.3-14.9
	c3.4-9.3,8.8-18.3,18.1-22.8c10-4.8,21.9-3.6,32.7-2.4l0,0l0.1,0c0.5,0,0.9,0.1,1.4,0.1c13.8,1.5,27.5,3.7,41,6.8
	c13.1,3,26.2,6.6,38.8,11.2c10.9,4,21.6,9.6,28.5,19.2c3,4.1,5.1,8.9,5.8,14c0.9,6-0.5,11.8-2.5,17.5c-0.5,1.4-1,2.9-1.5,4.3v0l0,0
	v0l0,0l0,0v0l0,0C301,183.2,299.3,187.7,298.7,192.5z M300.4,211.4c4.4,11.2,12.4,20.3,20.7,28.8c0.8,0.8,1.6,1.7,2.5,2.5l0,0l0,0
	l0,0l0,0l0,0l0,0c7.6,7.7,15.3,15.5,20.3,25.2c5,9.6,7.5,21.3,3,31.7c-3.9,9.1-12.4,15.6-21.7,18.7c-22.5,7.4-44.7-6.4-58.7-23.2
	c-3.3-4-6.4-8.2-9.4-12.5l0,0l0,0l0,0l0,0v0h0l0,0v0c-3.2-4.5-6.5-9-10.1-13.3c-3.3-3.9-7-7.6-11.2-10.6c-4.3-3.1-9.2-5.4-14.3-6.8
	c-6.8-1.9-13.8-2.5-20.9-3.1l0,0l0,0h0l0,0v0l0,0h0l0,0c-4.8-0.4-9.6-0.8-14.4-1.6c-6-1-11.8-2.8-17-5.9c-2.8-1.7-5.5-3.6-8.1-5.5
	l0,0h0v0l0,0h0l0,0l0,0l0,0c-2.4-1.7-4.7-3.4-7.2-4.9c-4.9-3-10.4-5.4-16.3-5.2c-1.3,0-2.6,0.2-3.8,0.5c-0.2,0.1-0.5,0.1-0.7,0.2
	c-1.1,0.3-2.2,0.6-3.4,0.4c-2.5-0.4-4.7-2-6.2-4c-3.5-4.9-2.1-11.5-0.8-16.9c1-4.3,2-8.7,3-13v0l0,0l0,0c0.5-2.3,1.1-4.6,1.6-6.9
	c1-4.3,2-8.6,3-12.9c2.1-8.9,4.2-17.8,6.3-26.7c2.3-9.8,5-20.2,11.2-28.4c3.1-4.1,7-7.5,11.7-9.5c5.2-2.2,10.9-2.9,16.5-2.9
	c6.2,0,12.4,0.7,18.6,1.4c6.7,0.8,13.4,1.7,20.1,2.9c13.3,2.3,26.4,5.3,39.3,9.1l0.6,0.2c11.9,3.5,24.4,7.1,34.7,14.2
	c8.7,6,16.1,15.5,16.6,26.4c0.3,6.8-2,13-4.2,19.2c-1.9,5.3-3.9,10.6-4.2,16.2C297.3,200.5,298.4,206.1,300.4,211.4z M291.1,207.8
	c-2-5.3-3-11-2.2-16.6c0.6-4.3,2.1-8.3,3.6-12.3c0.5-1.3,0.9-2.6,1.4-3.9c1.7-5,3-10.3,2.2-15.6c-0.7-4.5-2.6-8.8-5.2-12.5
	c-6.1-8.6-15.7-13.6-25.4-17.2c-11.3-4.2-23-7.4-34.7-10c-12.1-2.7-24.3-4.8-36.6-6.1c-0.4,0-0.9-0.1-1.3-0.1
	c-9.6-1-20.3-2.2-29.2,2.2c-8.3,4-13.1,12-16.1,20.4c-1.6,4.3-2.8,8.8-3.8,13.3c-1,4.1-1.9,8.2-2.9,12.3c-0.4,1.9-0.9,3.7-1.3,5.6
	c-0.9,3.9-1.9,7.9-2.8,11.8c-1.9,8.1-3.9,16.3-5.7,24.4c-1,4.6-2,10.1,0.6,14.3c1,1.7,2.6,3.1,4.4,3.9c1.9,0.8,3.6,0.7,5.6,0.1
	c5.6-1.5,11.5,0.5,16.4,3.3c2.7,1.5,5.2,3.4,7.7,5.2c2,1.5,4.1,3,6.2,4.3c9.1,5.6,19.7,6.6,30.1,7.5l0,0c0.4,0,0.7,0.1,1.1,0.1
	c5.4,0.5,10.9,1,16.1,2.4c5.1,1.4,9.8,3.6,14,6.8c7.1,5.5,12.4,12.8,17.6,20.1c0.5,0.7,1,1.4,1.5,2.1c6,8.4,12.4,16.3,20.8,22.4
	c8,5.8,17.7,10,27.8,10c8.7,0,17.5-3.1,24-8.8c6.9-6,10.4-14.7,9.6-23.8c-1.4-15.9-12.3-27-23-37.9c-4.4-4.5-8.7-8.9-12.4-13.6
	C296,217.6,293.1,212.9,291.1,207.8z M308.9,233.7c-7.4-7.6-14.6-15.6-18.5-25.7c0,0,0,0,0,0l0,0l0,0c-1.8-4.7-2.8-9.7-2.5-14.8
	c0.3-5,2.1-9.7,3.8-14.5c2-5.6,4.1-11.2,3.8-17.2c-0.5-9.8-7-18.2-14.8-23.6c-9.2-6.3-20.3-9.6-30.9-12.7l-0.6-0.2
	c-11.5-3.4-23.3-6.1-35.1-8.1c-6-1-11.9-1.9-17.9-2.5c-5.5-0.6-11-1.2-16.6-1.2c-5,0-10.1,0.6-14.7,2.6c-4.2,1.8-7.7,4.8-10.5,8.5
	c-5.5,7.3-7.9,16.6-10,25.4c-1.9,7.9-3.7,15.7-5.5,23.6c-0.9,3.9-1.8,7.9-2.8,11.8c-0.5,2.1-1,4.1-1.5,6.2l0,0
	c-0.9,3.9-1.8,7.7-2.7,11.6c-1.1,4.8-2.4,10.7,0.7,15c1.3,1.8,3.3,3.2,5.5,3.5c1.1,0.2,2-0.1,3-0.3l0,0l0,0c0.2-0.1,0.4-0.1,0.7-0.2
	c1.1-0.3,2.3-0.4,3.4-0.4c5.2-0.1,10.2,2,14.5,4.7c2.2,1.4,4.3,2.9,6.4,4.4l0,0c2.4,1.7,4.7,3.4,7.3,4.9c4.7,2.7,9.9,4.3,15.2,5.3
	c4.2,0.7,8.5,1.1,12.8,1.5c6.3,0.5,12.6,1.1,18.6,2.8c4.6,1.3,8.9,3.3,12.8,6.1c3.7,2.7,7,6,10,9.5c3.2,3.8,6.1,7.8,9,11.9
	c2.7,3.8,5.4,7.6,8.4,11.1c12.5,15,32.3,27.4,52.4,20.7c8.3-2.7,15.8-8.5,19.3-16.7c3.9-9.2,1.8-19.6-2.7-28.2
	c-4.5-8.6-11.3-15.6-18.1-22.5l0,0C310.4,235.2,309.6,234.5,308.9,233.7z M279.2,189.8c-0.7,5,0.2,9.9,1.9,14.6
	c1.8,4.5,4.3,8.6,7.2,12.4c3.2,4.2,7,8.1,10.9,12l0,0c9.4,9.6,19,19.4,20.2,33.4c0.7,8.1-2.4,15.7-8.5,21c-5.8,5-13.5,7.8-21.2,7.8
	c-8.9,0-17.4-3.7-24.5-8.8c-7.4-5.4-13.1-12.3-18.3-19.7c-0.4-0.6-0.8-1.2-1.2-1.7l0,0l0,0l0,0l0,0c-4.6-6.4-9.2-12.9-15.5-17.7
	c-3.7-2.8-7.8-4.8-12.3-6c-4.6-1.2-9.4-1.7-14.2-2.1c-0.3,0-0.6-0.1-1-0.1c-9.2-0.8-18.5-1.6-26.5-6.6c-1.9-1.2-3.7-2.5-5.5-3.8
	c-2.2-1.6-4.4-3.2-6.8-4.6c-4.3-2.4-9.5-4.2-14.4-2.9c-1.8,0.5-3.3,0.6-5-0.1c-1.6-0.7-3-2-3.9-3.5c-2.3-3.8-1.5-8.6-0.5-12.6
	c1.6-7.2,3.3-14.4,5-21.5l0,0l0,0l0,0c0.8-3.4,1.6-6.9,2.4-10.3c0.4-1.7,0.8-3.4,1.2-5.1l0,0l0,0l0,0l0,0v0l0,0
	c0.8-3.6,1.7-7.1,2.5-10.7c0.9-4,2-7.9,3.4-11.7c2.7-7.3,7-14.4,14.2-18c7.9-3.8,17.3-2.8,25.8-1.9l0.6,0.1l0.5,0.1
	c10.8,1.1,21.6,2.9,32.2,5.3c10.3,2.3,20.6,5.2,30.5,8.8c8.5,3.1,17,7.6,22.4,15.1c2.3,3.3,4,7,4.6,11c0.7,4.7-0.4,9.3-1.9,13.7
	c-0.4,1.1-0.8,2.3-1.2,3.4l0,0C281,182.5,279.7,186,279.2,189.8z M280.4,204.7c3.5,8.8,9.8,15.9,16.3,22.6c0.6,0.7,1.3,1.3,1.9,2
	c6,6.1,12,12.2,15.9,19.8c3.9,7.5,5.9,16.7,2.4,24.8c-3.1,7.2-9.7,12.2-17,14.6c-17.6,5.8-35.1-5-46.1-18.2c-2.6-3.1-5-6.5-7.4-9.8
	h0c-2.5-3.6-5.1-7.1-7.9-10.4c-2.6-3.1-5.5-6-8.8-8.3c-3.4-2.5-7.2-4.2-11.3-5.4c-5.4-1.5-10.9-2-16.4-2.4l0,0
	c-3.8-0.3-7.6-0.6-11.3-1.3c-4.7-0.8-9.2-2.2-13.4-4.6c-2.2-1.3-4.3-2.8-6.4-4.3c-1.9-1.3-3.7-2.7-5.6-3.9
	c-3.8-2.4-8.2-4.2-12.8-4.1c-1,0-2,0.2-3,0.4c-0.2,0-0.4,0.1-0.6,0.1l0,0c-0.9,0.2-1.7,0.4-2.6,0.3c-1.9-0.3-3.7-1.5-4.8-3.1
	c-2.8-3.8-1.6-9-0.6-13.2c0.9-3.7,1.7-7.3,2.6-11l0,0c0.4-1.5,0.7-3.1,1.1-4.6c0.8-3.5,1.6-6.9,2.4-10.4l0,0
	c1.6-6.9,3.2-13.8,4.9-20.8c1.8-7.7,4-15.9,8.8-22.3c2.4-3.2,5.5-5.8,9.2-7.4c4.1-1.8,8.5-2.3,12.9-2.3c4.9,0,9.7,0.5,14.6,1.1
	c5.3,0.6,10.5,1.3,15.8,2.2c10.4,1.8,20.7,4.2,30.9,7.1l0.5,0.1c9.3,2.7,19.1,5.6,27.2,11.1c6.9,4.7,12.6,12.1,13,20.7
	c0.3,5.3-1.5,10.2-3.3,15.1c-1.5,4.2-3,8.3-3.3,12.7C277.9,196.1,278.8,200.5,280.4,204.7C280.4,204.7,280.4,204.7,280.4,204.7z
	 M271.2,201c-1.5-4-2.3-8.3-1.7-12.6c0.5-3.2,1.6-6.3,2.7-9.4v0l0,0l0,0v0l0,0c0.4-1,0.7-2,1.1-3c1.3-3.8,2.3-7.8,1.7-11.9
	c-0.5-3.5-2-6.7-4-9.5c-4.7-6.6-12-10.4-19.4-13.1c-8.6-3.2-17.5-5.6-26.4-7.6c-9.2-2.1-18.4-3.6-27.8-4.6l-0.5-0.1l-0.5-0.1
	c-7.4-0.8-15.4-1.7-22.3,1.6c-6.3,3-10,9.2-12.3,15.5c-1.2,3.3-2.1,6.7-2.9,10.2c-0.8,3.2-1.5,6.5-2.3,9.7c-0.3,1.3-0.6,2.6-0.9,3.9
	c-0.7,3-1.4,6-2.1,9l0,0l0,0v0c-1.5,6.2-2.9,12.4-4.3,18.6c-0.8,3.5-1.6,7.7,0.5,10.9c0.8,1.3,2,2.4,3.4,3c1.5,0.7,2.8,0.5,4.3,0.1
	c4.3-1.1,8.7,0.4,12.4,2.5c2.1,1.2,4,2.6,5.9,3.9c1.6,1.1,3.1,2.3,4.7,3.3c6.9,4.3,15,5,22.9,5.7h0l0.8,0.1
	c4.1,0.4,8.3,0.8,12.3,1.9c3.8,1,7.4,2.7,10.6,5.2c5.4,4.1,9.4,9.7,13.3,15.2c0.4,0.5,0.8,1.1,1.1,1.6c4.6,6.4,9.5,12.4,15.8,17
	c6.1,4.4,13.5,7.6,21.2,7.6c6.6,0,13.3-2.4,18.3-6.7c5.3-4.6,7.9-11.2,7.3-18.2c-1.1-12.1-9.3-20.5-17.5-28.9
	c-3.3-3.4-6.6-6.8-9.4-10.4C274.9,208.5,272.7,204.9,271.2,201z M284.5,220.9c-5.6-5.8-11.1-11.9-14.1-19.6c0,0,0,0,0,0
	c-1.4-3.6-2.1-7.4-1.9-11.3c0.2-3.8,1.6-7.4,2.9-11l0,0c1.6-4.2,3.1-8.5,2.9-13c-0.4-7.4-5.3-13.8-11.2-17.8
	c-7-4.8-15.4-7.3-23.5-9.6l-0.4-0.1c-8.8-2.6-17.7-4.6-26.7-6.1c-4.5-0.8-9.1-1.4-13.6-1.9c-4.2-0.5-8.4-0.9-12.6-0.9
	c-3.8,0-7.6,0.4-11.2,2c-3.2,1.4-5.8,3.7-7.9,6.4c-4.2,5.6-6,12.6-7.6,19.2c-1.4,5.9-2.8,11.8-4.1,17.7c-0.7,3.1-1.4,6.2-2.2,9.3
	c-0.3,1.5-0.7,3-1,4.4l0,0l0,0l0,0c-0.7,3-1.4,6-2.1,9c-0.8,3.6-1.8,8.1,0.5,11.4c1,1.3,2.5,2.4,4.1,2.7c0.8,0.1,1.5-0.1,2.2-0.3
	c0.2,0,0.3-0.1,0.5-0.1c0.9-0.2,1.7-0.3,2.6-0.3c4-0.1,7.8,1.5,11.1,3.6c1.7,1,3.3,2.2,4.9,3.4c1.8,1.3,3.6,2.6,5.5,3.7
	c3.6,2.1,7.5,3.3,11.5,4c3.2,0.6,6.5,0.8,9.8,1.1c4.8,0.4,9.5,0.8,14.2,2.1c3.5,1,6.8,2.5,9.8,4.7c2.8,2,5.3,4.6,7.6,7.2
	c2.4,2.9,4.6,5.9,6.8,9c2.1,2.9,4.1,5.8,6.4,8.5c9.5,11.4,24.5,20.8,39.7,15.7c6.3-2.1,12-6.4,14.6-12.6c3-7,1.3-14.9-2.1-21.4
	c-3.4-6.5-8.6-11.8-13.8-17.1C285.6,222,285.1,221.4,284.5,220.9z M259.8,186.9c-0.6,3.7,0.1,7.3,1.4,10.8c1.3,3.3,3.1,6.3,5.2,9
	c2.3,3,5.1,5.9,7.9,8.7l0,0c6.8,7,13.8,14.1,14.7,24.3c0.5,5.8-1.7,11.4-6.1,15.2c-4.2,3.7-9.9,5.8-15.5,5.8
	c-6.4,0-12.6-2.6-17.7-6.2c-5.4-3.9-9.6-8.9-13.5-14.3c-0.4-0.5-0.8-1.1-1.1-1.6c-3.3-4.6-6.6-9.2-11-12.7c-2.6-2.1-5.6-3.5-8.8-4.4
	c-3.3-0.9-6.8-1.3-10.3-1.6c-0.2,0-0.4,0-0.6-0.1l-0.6,0c-6.5-0.6-13.2-1.2-18.9-4.6c-1.5-0.9-2.9-1.9-4.3-2.9l0,0
	c-1.6-1.2-3.2-2.3-4.9-3.3c-3.1-1.8-6.9-3.1-10.4-2.1c-1.3,0.3-2.3,0.5-3.6,0c-1.2-0.5-2.2-1.4-2.9-2.4c-1.8-2.7-1.2-6.1-0.6-9.1
	c1.2-5.2,2.4-10.5,3.7-15.7v0c0.6-2.6,1.2-5.1,1.8-7.7c0.3-1.3,0.6-2.5,0.9-3.8l0-0.1l0,0c0.6-2.5,1.2-5.1,1.8-7.6
	c0.7-2.9,1.4-5.7,2.4-8.5c1.9-5.4,5-10.6,10.3-13.2c5.8-2.8,12.6-2.1,18.8-1.5l0,0l0.3,0l0.4,0c7.8,0.8,15.6,2.1,23.3,3.8
	c7.5,1.7,15.1,3.8,22.3,6.4c6.3,2.3,12.5,5.5,16.5,11c1.7,2.3,2.9,5,3.4,7.9c0.6,3.4-0.2,6.7-1.2,9.9c-0.3,1-0.7,1.9-1,2.8l0,0
	C261.1,181.7,260.2,184.2,259.8,186.9z M260.5,197.9c2.5,6.4,7,11.5,11.7,16.3c0.2,0.2,0.4,0.4,0.6,0.6c0.3,0.3,0.6,0.6,0.9,1
	c4.2,4.3,8.5,8.7,11.4,14c2.9,5.5,4.4,12.2,1.9,18.2c-2.2,5.2-7,8.9-12.3,10.7c-12.8,4.3-25.5-3.6-33.4-13.2
	c-1.9-2.3-3.6-4.7-5.3-7.1h0l0,0v0h0c-1.8-2.5-3.6-5.1-5.7-7.5c-3.9-4.6-8.6-8.3-14.4-10c-4-1.2-8.1-1.5-12.3-1.9
	c-2.6-0.2-5.2-0.4-7.8-0.9c-3.4-0.6-6.7-1.5-9.7-3.2c-1.8-1-3.4-2.2-5-3.4l0,0l0,0l0,0h0c-1.2-0.9-2.5-1.8-3.8-2.6
	c-2.8-1.7-5.9-3.1-9.2-3.2c-0.8,0-1.6,0.1-2.4,0.2c-0.2,0-0.5,0.1-0.7,0.2l0,0c-0.5,0.1-1,0.3-1.5,0.2c-1.5,0-2.9-1-3.7-2.1
	c-2.1-2.7-1.3-6.5-0.6-9.6c0.6-2.4,1.1-4.9,1.7-7.3l0,0c0.3-1.3,0.6-2.6,0.9-4c0.6-2.5,1.2-5,1.8-7.5c1.2-5,2.4-10,3.5-15.1
	c1.3-5.6,2.8-11.5,6.3-16.2c1.7-2.3,4-4.3,6.7-5.5c2.9-1.3,6.2-1.6,9.3-1.6c3.5,0,7,0.4,10.5,0.8c3.8,0.4,7.6,1,11.4,1.6
	c7.6,1.3,15.1,3,22.4,5.1l0.4,0.1l0,0h0c6.8,2,14,4,19.8,8.1c5,3.4,9.1,8.7,9.5,14.9c0.2,3.9-1.1,7.5-2.4,11.1
	c-1.1,3.1-2.2,6.1-2.4,9.4C258.7,191.7,259.3,194.9,260.5,197.9C260.4,197.9,260.4,197.9,260.5,197.9z M251.2,194.3
	c-1.1-2.8-1.6-5.7-1.1-8.7c0.3-2.2,1.1-4.2,1.8-6.3c0.3-0.8,0.6-1.6,0.9-2.4c0.9-2.6,1.4-5.4,1-8.1c-0.4-2.4-1.5-4.6-2.9-6.5
	c-3.3-4.4-8.3-7-13.3-8.8c-5.9-2.2-12.1-3.8-18.2-5.2c-6.3-1.4-12.8-2.5-19.2-3.1l-0.4,0c-5.1-0.5-10.6-1.1-15.3,1.3
	c-4.3,2.2-6.8,6.5-8.4,10.9c-1.4,4-2.3,8.2-3.3,12.3v0c-0.3,1.3-0.6,2.7-0.9,4c-0.5,2.1-1,4.1-1.5,6.2l0,0v0l0,0
	c-1,4.2-2,8.5-3,12.7c-0.5,2.4-0.9,5.2,0.5,7.3c1.2,1.8,3.1,2.7,5.2,2.1c4.7-1.3,8.9,1.7,12.7,4.4c1,0.7,2,1.4,3,2.1
	c4.9,3.1,10.5,3.6,16.1,4.1l0,0l0.1,0c5.6,0.5,11.2,1.3,15.8,4.8c3.7,2.8,6.4,6.7,9.1,10.4l0,0c0.3,0.4,0.6,0.8,0.9,1.3
	c3.1,4.4,6.6,8.5,11,11.7c4.2,3,9.2,5.1,14.4,5c4.6,0,9.2-1.7,12.6-4.7c3.6-3.2,5.4-7.7,5-12.4c-0.7-8.3-6.4-14.1-12-19.8
	c-2.2-2.3-4.5-4.6-6.4-7C253.8,199.4,252.2,197,251.2,194.3z M259.9,207.7c-3.8-3.9-7.4-8-9.4-13.1c0,0,0,0,0,0c0,0,0,0,0,0
	c-0.9-2.4-1.5-5-1.3-7.7c0.2-2.6,1.1-5.1,2-7.6c1.1-2.9,2.1-5.9,2-9c-0.3-5.1-3.8-9.5-8-12.3c-4.8-3.2-10.6-4.8-16-6.4l-0.3-0.1
	c-6-1.7-12.1-3.1-18.2-4.2c-3.1-0.5-6.2-1-9.3-1.3c-2.8-0.3-5.7-0.6-8.5-0.6c-2.6,0-5.2,0.3-7.5,1.4c-2.2,1-4,2.6-5.4,4.5
	c-2.8,3.9-4,8.7-5.1,13.4c-1.4,6-2.8,12-4.2,17.9l-0.1,0.4c-0.2,1-0.5,1.9-0.7,2.9c-0.5,2.1-1,4.1-1.5,6.2c-0.6,2.5-1.2,5.7,0.7,7.8
	c0.8,0.8,1.9,1.5,3.1,1.4c0.3,0,0.7-0.1,1-0.2c0.2-0.1,0.5-0.1,0.7-0.2c0.6-0.1,1.2-0.2,1.9-0.1c2.6,0.1,5.1,1.2,7.3,2.6
	c1.1,0.7,2.1,1.4,3.1,2.2l0,0l0,0l0,0c1.3,0.9,2.5,1.8,3.9,2.6c2.4,1.4,5.1,2.2,7.8,2.7c2.2,0.4,4.4,0.6,6.6,0.7l0,0
	c3.3,0.3,6.5,0.6,9.7,1.4c4.8,1.3,8.6,4.2,11.8,8c1.8,2,3.3,4.2,4.9,6.4h0l0,0v0c1.3,1.9,2.7,3.8,4.2,5.6
	c6.5,7.9,16.8,14.4,27.2,10.9c4.3-1.4,8.2-4.4,10-8.7c2-4.9,0.8-10.4-1.7-14.8c-2.3-4.3-5.7-7.8-9.1-11.2h0
	C260.8,208.7,260.3,208.2,259.9,207.7z M240.4,183.9c-0.4,2.4-0.1,4.8,0.8,7.1c0.8,2.1,2,4,3.4,5.8c1.4,1.8,3.1,3.5,4.8,5.3v0
	c4.3,4.4,8.7,8.9,9.2,15.3c0.3,3.6-1.1,7.1-3.8,9.6c-2.6,2.4-6.2,3.7-9.8,3.7c-8.5,0.1-15-6.4-19.6-12.8c-0.3-0.4-0.5-0.7-0.8-1.1
	c-2-2.8-4.1-5.7-6.8-7.9c-3.6-2.8-8-3.4-12.4-3.8c-4.3-0.4-8.7-0.8-12.4-3.1c-0.8-0.5-1.6-1.1-2.4-1.6h0l0,0
	c-1.1-0.8-2.1-1.5-3.3-2.2c-1.1-0.6-2.2-1.1-3.4-1.3c-1.2-0.2-2.2,0-3.3,0.2c-1.5,0.3-3-0.6-3.8-1.8c-1-1.7-0.8-3.8-0.4-5.6
	c0.7-3.4,1.5-6.7,2.3-10c0.4-1.6,0.8-3.2,1.2-4.9c0.2-1,0.5-2,0.7-3v0c0.7-3.2,1.4-6.4,2.6-9.5c1.2-3.3,3.2-6.6,6.5-8.2
	c3.6-1.8,7.8-1.4,11.7-1l0.3,0c5.1,0.5,10.1,1.3,15.1,2.5c4.7,1.1,9.4,2.4,14,4c3.9,1.4,7.7,3.4,10.2,6.9c1,1.4,1.8,3.1,2.1,4.9
	c0.4,2.1,0,4.1-0.7,6.1c-0.2,0.7-0.5,1.4-0.7,2.1l0,0C241.2,180.9,240.7,182.4,240.4,183.9z M240.5,191.2c1.7,4.4,5,7.7,8.2,11
	c2.6,2.7,5.2,5.4,7.1,8.6c1.9,3.4,3,7.7,1.4,11.5c-1.4,3.3-4.4,5.6-7.8,6.7c-8.1,2.6-16.1-2.6-21-8.8c-1-1.3-2-2.6-2.9-3.9
	c-1.2-1.7-2.5-3.5-3.9-5.1c-2.4-2.8-5.3-5-8.9-6c-2.4-0.7-5-0.9-7.5-1.1l0,0l0,0c-1.6-0.1-3.2-0.3-4.8-0.5c-2.1-0.3-4.2-0.9-6.1-2
	c-1.1-0.6-2.2-1.4-3.2-2.2c-0.7-0.5-1.4-1-2.1-1.4c-1.7-1.1-3.7-2.1-5.7-2.2c-0.9-0.1-1.7,0.1-2.6,0.3c-1,0.2-1.9-0.2-2.6-0.9
	c-1.6-1.6-1.1-4.1-0.6-6.1c0.4-1.6,0.7-3.1,1.1-4.7c0.2-0.8,0.4-1.6,0.6-2.3c0.2-0.9,0.4-1.8,0.6-2.7l0.5-2l0,0l0,0
	c0.7-3.1,1.5-6.2,2.2-9.4c0.8-3.5,1.8-7.2,3.9-10.2c1.1-1.5,2.5-2.7,4.2-3.5c1.9-0.8,3.9-1,5.9-1c4.6,0,9.3,0.8,13.8,1.5
	c4.7,0.8,9.4,1.9,14,3.2l0.3,0.1c4.3,1.2,8.8,2.6,12.4,5.2c3,2.2,5.5,5.6,5.6,9.4c0,2.3-0.8,4.4-1.5,6.5c-0.7,1.9-1.4,3.9-1.5,5.9
	C239.4,187.3,239.8,189.3,240.5,191.2C240.5,191.2,240.5,191.2,240.5,191.2C240.5,191.2,240.5,191.2,240.5,191.2z M231.2,187.6
	c-0.6-1.6-0.9-3.3-0.5-5c0.2-1,0.6-2,0.9-3l0,0c0.2-0.5,0.4-1.1,0.6-1.6c0.9-2.8,0.5-5.4-1.2-7.8c-1.8-2.4-4.6-3.8-7.3-4.8
	c-3.2-1.2-6.5-2.1-9.9-2.8c-3.4-0.8-6.9-1.3-10.3-1.7l-0.1,0c-2.8-0.3-5.8-0.6-8.3,0.7c-2.3,1.2-3.7,3.5-4.6,5.9
	c-0.8,2.2-1.3,4.5-1.8,6.7v0c-0.2,0.7-0.3,1.4-0.5,2.1c-0.3,1.1-0.5,2.3-0.8,3.4c-0.6,2.4-1.2,4.8-1.6,7.1c-0.2,1.2-0.4,2.7,0.4,3.8
	c0.6,0.8,1.6,1.5,2.6,1.3c0.2,0,0.4-0.1,0.6-0.1c0.5-0.1,1-0.2,1.6-0.1c0.8,0.1,1.6,0.4,2.3,0.8c0.9,0.5,1.7,1.1,2.6,1.7
	c0.5,0.4,1,0.8,1.6,1.1c2.7,1.7,5.8,2,8.8,2.2c3.1,0.3,6.1,0.7,8.6,2.7c1.9,1.5,3.3,3.5,4.7,5.5l0,0c0.3,0.4,0.5,0.7,0.8,1.1
	c3.3,4.5,8,8.9,13.9,8.6c5-0.2,9.7-4,9.3-9.3c-0.3-4.6-3.4-7.8-6.5-10.9c-1.2-1.2-2.3-2.4-3.3-3.7
	C232.6,190.4,231.8,189,231.2,187.6z M230.5,187.8C230.5,187.8,230.5,187.8,230.5,187.8c-0.5-1.3-0.8-2.7-0.7-4.1
	c0.1-1.5,0.6-2.8,1.1-4.2l0,0c0.5-1.5,1.1-2.9,1.1-4.5c0-2.8-1.9-5.3-4.2-6.8c-2.6-1.7-5.6-2.6-8.5-3.4l-0.2-0.1
	c-3.2-0.9-6.4-1.6-9.6-2.2c-3.1-0.5-6.3-1-9.5-1.1c-2.8,0-5.4,0.8-7.1,3.1c-1.5,2.1-2.1,4.8-2.7,7.3l0,0l0,0
	c-0.4,1.6-0.7,3.2-1.1,4.8c-0.4,1.7-0.8,3.3-1.2,5c-0.1,0.6-0.3,1.1-0.4,1.7c-0.2,1.1-0.5,2.1-0.7,3.2c-0.3,1.5-0.7,3.4,0.7,4.4
	c0.6,0.4,1.1,0.4,1.7,0.2c0.6-0.1,1.3-0.2,1.9-0.1c1.4,0.2,2.7,0.9,3.8,1.6c0.4,0.3,0.8,0.6,1.3,0.9c0.8,0.6,1.7,1.2,2.6,1.7
	c1.3,0.7,2.8,1,4.3,1.3c1,0.1,2,0.2,3,0.3l0,0c1.9,0.2,3.8,0.3,5.6,0.9c4,1.3,6.4,4.5,8.8,7.8l0,0c0.7,0.9,1.3,1.8,2,2.7
	c3.4,4.3,9,7.9,14.6,6c2.4-0.8,4.5-2.5,5.4-4.8c1-2.7,0.1-5.7-1.3-8c-1.3-2.2-3-3.9-4.8-5.7h0C234,193.2,231.7,190.9,230.5,187.8z
	 M221,181.3c-0.2,1-0.1,2,0.3,2.9c0.7,1.7,2,3.1,3.3,4.4c1.6,1.6,3.1,3.2,3.6,5.6c0.7,3.4-2.2,6.2-5.5,6.2c-3.4,0.1-6.1-2.4-8-5
	c-0.2-0.2-0.3-0.4-0.5-0.6c-0.8-1.2-1.7-2.3-2.8-3.2c-1.5-1.1-3.2-1.2-5-1.4c-0.1,0-0.3,0-0.4,0c-1.9-0.2-3.5-0.6-5-1.6
	c-0.1-0.1-0.3-0.2-0.4-0.3c-0.7-0.5-1.3-1-2.1-1.2c-0.5-0.2-1-0.1-1.5,0c-0.3,0.1-0.5,0.1-0.8,0c-1.5-0.4-1.5-2.1-1.3-3.3
	c0.3-1.4,0.6-2.8,1-4.2c0.2-0.7,0.3-1.4,0.5-2.1c0.1-0.4,0.2-0.8,0.3-1.2c0.6-2.6,1.2-5.7,3.7-7c1.5-0.7,3.2-0.5,4.8-0.4
	c2,0.2,4,0.5,6,1c1.9,0.4,3.9,1,5.7,1.6c1.6,0.6,3.1,1.3,4.1,2.7c0.9,1.2,1.3,2.6,1,4.1c-0.1,0.5-0.3,1-0.5,1.5
	C221.3,180.2,221.1,180.7,221,181.3z M220.5,184.4c-0.6-1.8-0.3-3.3,0.3-5c0.4-1,0.7-2,0.4-3.1c-0.2-0.8-0.7-1.6-1.3-2.2
	c-1.3-1.4-3.3-2-5.1-2.5c-1.9-0.6-3.9-1.1-5.9-1.4c-1.8-0.3-3.6-0.6-5.4-0.7c-1.6-0.1-3.1,0.3-4.2,1.6c-0.9,1.2-1.3,2.7-1.6,4.1
	l0,0.1c-0.3,1.1-0.5,2.1-0.8,3.2c-0.2,0.7-0.3,1.4-0.5,2.2c-0.1,0.3-0.2,0.7-0.2,1c-0.1,0.6-0.3,1.2-0.4,1.8l0,0.1
	c-0.2,0.8-0.4,1.9,0.4,2.4c0.3,0.2,0.6,0.1,0.9,0.1c0.1,0,0.2-0.1,0.4-0.1c0.3,0,0.7,0,1,0.1c0.7,0.1,1.3,0.5,1.9,0.8
	c0.3,0.2,0.6,0.4,0.8,0.6c0.4,0.3,0.8,0.6,1.3,0.9c0.7,0.4,1.5,0.6,2.3,0.8c0.6,0.1,1.3,0.2,1.9,0.2c1,0.1,2,0.2,3,0.4
	c2.5,0.7,4,2.7,5.4,4.7c0.2,0.3,0.4,0.6,0.6,0.8c1.9,2.6,5,5,8.4,4.1c1.4-0.4,2.7-1.3,3.2-2.7c0.6-1.6,0-3.3-0.8-4.7
	c-0.7-1.1-1.7-2.1-2.6-3.1C222.5,187.5,221.2,186.2,220.5,184.4C220.5,184.4,220.5,184.4,220.5,184.4z"/>
</svg>
