<?xml version="1.0" encoding="utf-8"?>
<!-- Generator: Adobe Illustrator 25.4.1, SVG Export Plug-In . SVG Version: 6.00 Build 0)  -->
<svg version="1.1" id="圖層_1" xmlns="http://www.w3.org/2000/svg" xmlns:xlink="http://www.w3.org/1999/xlink" x="0px" y="0px"
	 width="31px" height="31px" viewBox="0 0 31 31" style="enable-background:new 0 0 31 31;" xml:space="preserve">
<style type="text/css">
	.st0{fill:url(#SVGID_1_);}
	.st1{fill:url(#SVGID_00000117664397480262233730000017200287187702547591_);}
	.st2{fill:url(#SVGID_00000018222327435302601860000018171194248580929420_);}
</style>
<linearGradient id="SVGID_1_" gradientUnits="userSpaceOnUse" x1="18.7234" y1="705.0203" x2="18.7234" y2="725.6829" gradientTransform="matrix(1 0 0 1 0 -696)">
	<stop  offset="0" style="stop-color:#B85E00"/>
	<stop  offset="0.985" style="stop-color:#FFB888"/>
</linearGradient>
<path class="st0" d="M22.2,7.4C22.6,8.2,22.9,9,23,9.9c1.3,0.7,2.5,1.7,3.3,3c0.9,1.2,1.4,2.7,1.6,4.1c0.2,1.5,0.1,3-0.4,4.4
	s-1.3,2.7-2.3,3.8c-1.1,1.1-2.4,1.9-3.8,2.3c-1.4,0.5-3,0.6-4.4,0.4c-1.5-0.2-2.9-0.8-4.1-1.6c-1.2-0.9-2.3-2-3-3.3
	c-0.9-0.2-1.7-0.4-2.5-0.8c0.6,1.9,1.8,3.5,3.2,4.8c1.5,1.3,3.2,2.2,5.2,2.7c1.9,0.4,3.9,0.4,5.8-0.2c1.9-0.5,3.6-1.6,5-3
	s2.4-3.1,3-5c0.5-1.9,0.6-3.9,0.2-5.8s-1.4-3.7-2.7-5.2C25.7,9.2,24.1,8.1,22.2,7.4z"/>
<linearGradient id="SVGID_00000090986167154880896150000006377311202363193237_" gradientUnits="userSpaceOnUse" x1="11.5936" y1="698.4687" x2="11.5936" y2="717.8885" gradientTransform="matrix(1 0 0 1 0 -696)">
	<stop  offset="0" style="stop-color:#B85E00"/>
	<stop  offset="0.985" style="stop-color:#FFB888"/>
</linearGradient>
<path style="fill:url(#SVGID_00000090986167154880896150000006377311202363193237_);" d="M18.4,6.8c1.3,0,2.6,0.2,3.8,0.6
	c-0.8-1.6-1.9-3-3.3-4.1S15.8,1.5,14,1.2S10.4,1,8.7,1.5C7.1,2,5.5,3,4.2,4.2S2,7.1,1.5,8.8s-0.7,3.5-0.3,5.3c0.3,1.8,1,3.4,2.1,4.9
	c1.1,1.4,2.5,2.6,4.1,3.3C7,21,6.8,19.7,6.8,18.4c0-3.1,1.2-6,3.4-8.2S15.3,6.8,18.4,6.8z"/>
<linearGradient id="SVGID_00000174591307563019053160000002570132470789363112_" gradientUnits="userSpaceOnUse" x1="15.9734" y1="705.746" x2="15.9734" y2="719.0281" gradientTransform="matrix(1 0 0 1 0 -696)">
	<stop  offset="0" style="stop-color:#B85E00"/>
	<stop  offset="0.985" style="stop-color:#FFB888"/>
</linearGradient>
<path style="fill:url(#SVGID_00000174591307563019053160000002570132470789363112_);" d="M8.7,18.4c0,1.6,0.4,3.2,1.2,4.6
	c1.8,0.4,3.7,0.3,5.4-0.2c1.8-0.5,3.4-1.5,4.7-2.8c1.3-1.3,2.3-2.9,2.8-4.7s0.6-3.6,0.2-5.4c-1.5-0.8-3.1-1.2-4.8-1.2
	s-3.3,0.5-4.8,1.4c-1.4,0.9-2.6,2.1-3.5,3.5C9.2,15.1,8.7,16.7,8.7,18.4z"/>
</svg>
