<?xml version="1.0" encoding="utf-8"?>
<!-- Generator: Adobe Illustrator 25.4.1, SVG Export Plug-In . SVG Version: 6.00 Build 0)  -->
<svg version="1.1" id="圖層_1" xmlns="http://www.w3.org/2000/svg" xmlns:xlink="http://www.w3.org/1999/xlink" x="0px" y="0px"
	 width="72px" height="72px" viewBox="0 0 72 72" style="enable-background:new 0 0 72 72;" xml:space="preserve">
<style type="text/css">
	.st0{fill-rule:evenodd;clip-rule:evenodd;fill:#FFFFFF;}
	.st1{fill:#FFFFFF;}
</style>
<path class="st0" d="M56.4,38c0-1.7-0.4-3.2-1.3-4.4v-1.2c0-0.1,0-0.1,0-0.2c0.1-3-0.1-5.3-0.8-7.8c-0.9-3.3-2.8-5.9-5.7-7.7
	c0-0.8-0.1-2.3-0.1-4.3c0-1.1-1-1.8-2-1.6c-7.9,1.8-13.1,2.8-15.6,3.1l-1.7,0.3c-8.9,1.4-12.5,5.5-12.9,12.1c-0.1,1.1,0,1.9,0,3.7
	V30c0,1,0,1.5,0,2.2v1.1c-1.5,2.1-1.9,5.1-0.9,9.2c0.6,2.2,1.9,4.1,3.7,5.3c1.1,2.7,2.6,5.4,4.5,7.7c5.6,7.2,17.3,8,24.2,0
	c1.8-2.2,3.4-4.8,4.4-7.5c1.7-1.2,3-3.2,3.6-5.4c0.1-0.5,0.2-0.7,0.1-1C56.3,40.3,56.4,39.2,56.4,38z M25.3,32.6
	c0-2.3,1.4-4.1,3.1-4.1c1.7,0,3.1,1.8,3.1,4.1c0,2.3-1.4,4.1-3.1,4.1C26.7,36.8,25.3,34.9,25.3,32.6z M43.2,44.7
	c0,2.9-3,5.2-6.8,5.2c-3.8,0-6.9-2.3-6.9-5.2v-1h13.7V44.7z M43.6,36.8c-1.7,0-3.1-1.8-3.1-4.1c0-2.3,1.4-4.1,3.1-4.1
	c1.7,0,3.1,1.8,3.1,4.1C46.7,34.9,45.3,36.8,43.6,36.8z"/>
<g>
	<path class="st1" d="M2.6,21.5c1.5,0,2.6-1.2,2.6-2.6v-6.7c0-3.8,3.1-6.8,6.8-6.8h6.7c1.5,0,2.6-1.2,2.6-2.6s-1.2-2.6-2.6-2.6h-6.7
		C5.4,0.1,0,5.5,0,12.1v6.7C0,20.3,1.2,21.5,2.6,21.5z"/>
	<path class="st1" d="M18.9,66.7h-6.7c-3.8,0-6.8-3.1-6.8-6.8v-6.7c0-1.5-1.2-2.6-2.6-2.6c-1.5,0-2.6,1.2-2.6,2.6v6.7
		c0,6.7,5.4,12.1,12.1,12.1h6.7c1.5,0,2.6-1.2,2.6-2.6S20.3,66.7,18.9,66.7z"/>
	<path class="st1" d="M59.9,0.2h-6.7c-1.5,0-2.6,1.2-2.6,2.6c0,1.5,1.2,2.6,2.6,2.6h6.7c3.8,0,6.8,3.1,6.8,6.8v6.7
		c0,1.5,1.2,2.6,2.6,2.6s2.6-1.2,2.6-2.6v-6.7C72,5.6,66.6,0.2,59.9,0.2z"/>
	<path class="st1" d="M69.4,50.5c-1.5,0-2.6,1.2-2.6,2.6v6.7c0,3.8-3.1,6.8-6.8,6.8h-6.7c-1.5,0-2.6,1.2-2.6,2.6s1.2,2.6,2.6,2.6
		h6.7c6.7,0,12.1-5.4,12.1-12.1v-6.7c0.1-0.6-0.2-1.3-0.6-1.8C70.9,50.9,70.1,50.5,69.4,50.5z"/>
</g>
</svg>
