<?xml version="1.0" encoding="utf-8"?>
<!-- Generator: Adobe Illustrator 25.4.1, SVG Export Plug-In . SVG Version: 6.00 Build 0)  -->
<svg version="1.1" id="圖層_1" xmlns="http://www.w3.org/2000/svg" xmlns:xlink="http://www.w3.org/1999/xlink" x="0px" y="0px"
	 width="66px" height="66px" viewBox="0 0 66 66" style="enable-background:new 0 0 66 66;" xml:space="preserve">
<style type="text/css">
	.st0{fill:#FFFFFF;}
</style>
<g>
	<path class="st0" d="M11.5,32.9c0-8,0.1-15.9-0.1-23.9C11.3,4,15.1,0,20.6,0c8.3,0.1,16.6,0,24.8,0c5.6,0,9.1,3.4,9.1,9
		c0,16-0.1,32,0.1,48c0,4.7-3.4,8.9-9,8.9c-8.4,0-16.8,0-25.1,0c-5.5,0-9.1-4.2-9-8.9C11.7,49,11.5,41,11.5,32.9z M17.1,30.3
		c0,6.5,0,13.1,0,19.6c0,1.1,0.3,1.4,1.4,1.4c9.7,0,19.4,0,29.1,0c1.1,0,1.4-0.3,1.4-1.4c0-12.9,0-25.8,0-38.7
		c0-3.1-1.7-4.8-4.8-4.8c-7.4,0-14.8,0-22.2,0c-3.1,0-4.8,1.7-4.8,4.8C17.1,17.6,17.1,23.9,17.1,30.3z"/>
	<path class="st0" d="M45.1,30.7c-1.1-1.1-3-1.5-4.9,0.4c-0.9,0.9-1.8,1.8-2.7,2.7c-0.4,0.4-0.9,0.9-1.3,1.3c0-3.1,0-6.2,0-9.2
		l0-7.7c0-0.1,0-0.3,0-0.4c0-0.7,0.1-1.5-0.3-2.2c-0.5-0.9-1.7-2.1-3-2c-1.2,0.1-2.2,1.1-2.8,1.9c-0.5,0.7-0.5,1.5-0.4,2.1
		c0,0.1,0,0.2,0,0.3c0,2.3,0,4.5,0,6.8l0,5c0,1.8,0,3.7,0,5.5c-0.5-0.5-0.9-0.9-1.4-1.4c-0.9-0.9-1.8-1.8-2.7-2.7
		c-1.1-1.1-2.2-1.3-2.8-1.3c-0.8,0-1.6,0.4-2.2,1.1c-1.3,1.5-1.2,3.2,0.3,4.7l3.1,3.1c2.1,2.1,4.1,4.1,6.2,6.2
		c0.9,0.8,1.7,1.3,2.6,1.3c0.9,0,1.8-0.4,2.6-1.3c3.1-3,6.1-6.1,9.2-9.2c0.9-0.9,1.3-1.8,1.3-2.7C46.1,32.1,45.8,31.3,45.1,30.7z"/>
</g>
</svg>
