<?xml version="1.0" encoding="utf-8"?>
<!-- Generator: Adobe Illustrator 25.4.1, SVG Export Plug-In . SVG Version: 6.00 Build 0)  -->
<svg version="1.1" id="圖層_1" xmlns="http://www.w3.org/2000/svg" xmlns:xlink="http://www.w3.org/1999/xlink" x="0px" y="0px"
	 width="31px" height="31px" viewBox="0 0 31 31" style="enable-background:new 0 0 31 31;" xml:space="preserve">
<style type="text/css">
	.st0{fill:url(#SVGID_1_);}
	.st1{fill:url(#SVGID_00000085952735777078096050000005328824955680460698_);}
	.st2{fill:url(#SVGID_00000080928333850559649050000012825002546855435928_);}
	.st3{fill:url(#SVGID_00000032606244724803539690000005830666095326084279_);}
</style>
<linearGradient id="SVGID_1_" gradientUnits="userSpaceOnUse" x1="11.8066" y1="31.6102" x2="11.8066" y2="26.5745" gradientTransform="matrix(1 0 0 -1 0 32)">
	<stop  offset="0" style="stop-color:#1E3A5F"/>
	<stop  offset="0.985" style="stop-color:#D0EDFF"/>
</linearGradient>
<path class="st0" d="M8.4,5.5h6.8c1-2.2,2.7-3.9,2.7-4c0.3-0.3,0.3-0.6,0.2-1S17.6,0,17.3,0c-1.6,0-2.5,0.6-3.2,1.1
	c-0.6,0.4-1.1,0.8-2.2,0.8c-1.1,0-1.6-0.3-2.2-0.8C8.9,0.6,8,0,6.4,0C6,0,5.7,0.2,5.5,0.6s-0.1,0.7,0.2,1C5.7,1.6,7.4,3.3,8.4,5.5z"
	/>
<linearGradient id="SVGID_00000011713267877918219950000006978233111450853539_" gradientUnits="userSpaceOnUse" x1="24.6123" y1="4.3758" x2="24.6123" y2="1.0556" gradientTransform="matrix(1 0 0 -1 0 32)">
	<stop  offset="0" style="stop-color:#1E3A5F"/>
	<stop  offset="0.985" style="stop-color:#D0EDFF"/>
</linearGradient>
<path style="fill:url(#SVGID_00000011713267877918219950000006978233111450853539_);" d="M18.2,28.3v1.8c0,0.5,0.4,0.9,0.9,0.9h11
	c0.5,0,0.9-0.4,0.9-0.9v-1.8c0-0.5-0.4-0.9-0.9-0.9h-11C18.6,27.4,18.2,27.8,18.2,28.3z"/>
<linearGradient id="SVGID_00000144301490016441792610000001115913141790132414_" gradientUnits="userSpaceOnUse" x1="24.6123" y1="9.825" x2="24.6123" y2="6.5048" gradientTransform="matrix(1 0 0 -1 0 32)">
	<stop  offset="0" style="stop-color:#1E3A5F"/>
	<stop  offset="0.985" style="stop-color:#D0EDFF"/>
</linearGradient>
<path style="fill:url(#SVGID_00000144301490016441792610000001115913141790132414_);" d="M31,24.6v-1.8c0-0.5-0.4-0.9-0.9-0.9h-11
	c-0.5,0-0.9,0.4-0.9,0.9v1.8c0,0.5,0.4,0.9,0.9,0.9h11C30.6,25.6,31,25.1,31,24.6z"/>
<linearGradient id="SVGID_00000043432558126288424000000013331820514569358988_" gradientUnits="userSpaceOnUse" x1="11.1628" y1="22.9988" x2="11.1628" y2="1.3621" gradientTransform="matrix(1 0 0 -1 0 32)">
	<stop  offset="0" style="stop-color:#1E3A5F"/>
	<stop  offset="0.985" style="stop-color:#D0EDFF"/>
</linearGradient>
<path style="fill:url(#SVGID_00000043432558126288424000000013331820514569358988_);" d="M18.1,14.7c-1.8-1.7-3.2-3.2-3.5-5.5h0.9
	c0.5,0,0.9-0.4,0.9-0.9c0-0.5-0.4-0.9-0.9-0.9H8.2c-0.5,0-0.9,0.4-0.9,0.9c0,0.5,0.4,0.9,0.9,0.9H9c-0.3,2.3-1.7,3.8-3.5,5.5
	C2.9,17.2,0,20.1,0,26.6C0,29,2.1,31,4.5,31h12c-0.1-0.3-0.2-0.6-0.2-0.9v-7.3c0-1.5,1.2-2.7,2.7-2.7h3.3
	C21.2,17.7,19.6,16.1,18.1,14.7z M11.8,20.1c1.5,0,2.7,1.2,2.7,2.7c0,1.2-0.8,2.2-1.8,2.6v1.1c0,0.5-0.4,0.9-0.9,0.9
	c-0.5,0-0.9-0.4-0.9-0.9v-1.1C9.8,25,9.1,24,9.1,22.8c0-0.5,0.4-0.9,0.9-0.9c0.5,0,0.9,0.4,0.9,0.9c0,0.5,0.4,0.9,0.9,0.9
	c0.5,0,0.9-0.4,0.9-0.9c0-0.5-0.4-0.9-0.9-0.9c-1.5,0-2.7-1.2-2.7-2.7c0-1.2,0.8-2.2,1.8-2.6v-1.1c0-0.5,0.4-0.9,0.9-0.9
	c0.5,0,0.9,0.4,0.9,0.9v1.1c1.1,0.4,1.8,1.4,1.8,2.6c0,0.5-0.4,0.9-0.9,0.9c-0.5,0-0.9-0.4-0.9-0.9c0-0.5-0.4-0.9-0.9-0.9
	c-0.5,0-0.9,0.4-0.9,0.9C10.9,19.7,11.3,20.1,11.8,20.1z"/>
</svg>
