<?xml version="1.0" encoding="utf-8"?>
<!-- Generator: Adobe Illustrator 25.4.1, SVG Export Plug-In . SVG Version: 6.00 Build 0)  -->
<svg version="1.1" id="圖層_1" xmlns="http://www.w3.org/2000/svg" xmlns:xlink="http://www.w3.org/1999/xlink" x="0px" y="0px"
	 width="31px" height="31px" viewBox="0 0 31 31" style="enable-background:new 0 0 31 31;" xml:space="preserve">
<style type="text/css">
	.st0{fill:url(#SVGID_1_);}
	.st1{fill:url(#SVGID_00000135671625074944288430000003645201672559859885_);}
	.st2{fill:url(#SVGID_00000019672095088547879970000010114238121196523683_);}
	.st3{fill:url(#SVGID_00000142870462245838867410000002415245028772064397_);}
</style>
<linearGradient id="SVGID_1_" gradientUnits="userSpaceOnUse" x1="22.7958" y1="19.8841" x2="22.7958" y2="4.9434" gradientTransform="matrix(1 0 0 -1 0 32)">
	<stop  offset="0" style="stop-color:#7B1F1F"/>
	<stop  offset="0.985" style="stop-color:#FF7B7B"/>
</linearGradient>
<path class="st0" d="M22.8,11c-4.5,0-8.2,3.7-8.2,8.2c0,4.5,3.7,8.2,8.2,8.2s8.2-3.7,8.2-8.2C31,14.6,27.3,11,22.8,11z M23.7,23.5
	C23.7,23.5,23.7,23.5,23.7,23.5l0,1.1c0,0.5-0.4,0.9-0.9,0.9s-0.9-0.4-0.9-0.9v-1.1c-0.6-0.2-1.2-0.6-1.7-1.2
	c-0.3-0.4-0.3-1,0.1-1.3c0.4-0.3,1-0.3,1.3,0.1c0.5,0.6,1,0.8,1.5,0.6c0.4-0.1,0.6-0.5,0.6-0.9c0-0.5-0.4-0.9-0.9-0.9
	c-1.5,0-2.7-1.2-2.7-2.7c0-1.1,0.7-2.1,1.7-2.5c0.1,0,0.1,0,0.2,0v-1.1c0-0.5,0.4-0.9,0.9-0.9c0.5,0,0.9,0.4,0.9,0.9v1.1
	c0.5,0.2,0.9,0.4,1.3,0.8c0.4,0.3,0.4,0.9,0,1.3c-0.3,0.4-0.9,0.4-1.3,0c-0.4-0.4-0.9-0.6-1.3-0.4c-0.3,0.1-0.6,0.5-0.6,0.8
	c0,0.5,0.4,0.9,0.9,0.9c1.5,0,2.7,1.2,2.7,2.7C25.5,22.1,24.8,23.1,23.7,23.5z"/>
<linearGradient id="SVGID_00000044882615927124671590000001153690100758480018_" gradientUnits="userSpaceOnUse" x1="1.8166" y1="11.1834" x2="1.8166" y2="1.1675" gradientTransform="matrix(1 0 0 -1 0 32)">
	<stop  offset="0" style="stop-color:#7B1F1F"/>
	<stop  offset="0.985" style="stop-color:#FF7B7B"/>
</linearGradient>
<path style="fill:url(#SVGID_00000044882615927124671590000001153690100758480018_);" d="M0.9,20C0.4,20,0,20.4,0,20.9v9.1
	C0,30.6,0.4,31,0.9,31h2.7V20H0.9z"/>
<linearGradient id="SVGID_00000026860249114717984220000017791525510136491394_" gradientUnits="userSpaceOnUse" x1="14.5918" y1="29.8066" x2="14.5918" y2="1.474" gradientTransform="matrix(1 0 0 -1 0 32)">
	<stop  offset="0" style="stop-color:#7B1F1F"/>
	<stop  offset="0.985" style="stop-color:#FF7B7B"/>
</linearGradient>
<path style="fill:url(#SVGID_00000026860249114717984220000017791525510136491394_);" d="M21.5,5.7l-6.4-5.4c-0.3-0.3-0.8-0.3-1.2,0
	L7.6,5.7c-0.3,0.2-0.4,0.6-0.3,1C7.5,7,7.9,7.3,8.2,7.3H11c0,7.9,0,15.9,0,23.7c2.3,0,4,0,6.4,0c0.5,0,0.9-0.4,0.9-0.9V28
	c-3.2-1.7-5.4-5-5.4-8.9s2.2-7.2,5.4-8.9v-3h2.7c0.4,0,0.7-0.2,0.9-0.6C21.9,6.3,21.8,5.9,21.5,5.7z"/>
<linearGradient id="SVGID_00000015320387266415751320000006494120075615677579_" gradientUnits="userSpaceOnUse" x1="7.3263" y1="17.9349" x2="7.3263" y2="1.2788" gradientTransform="matrix(1 0 0 -1 0 32)">
	<stop  offset="0" style="stop-color:#7B1F1F"/>
	<stop  offset="0.985" style="stop-color:#FF7B7B"/>
</linearGradient>
<path style="fill:url(#SVGID_00000015320387266415751320000006494120075615677579_);" d="M6.4,12.8c-0.5,0-0.9,0.4-0.9,0.9V20v11
	c1.3,0,2.3,0,3.6,0V12.8H6.4z"/>
</svg>
