<?xml version="1.0" encoding="utf-8"?>
<!-- Generator: Adobe Illustrator 25.4.1, SVG Export Plug-In . SVG Version: 6.00 Build 0)  -->
<svg version="1.1" id="圖層_1" xmlns="http://www.w3.org/2000/svg" xmlns:xlink="http://www.w3.org/1999/xlink" x="0px" y="0px"
	 width="72px" height="72px" viewBox="0 0 72 72" style="enable-background:new 0 0 72 72;" xml:space="preserve">
<style type="text/css">
	.st0{fill:#FFFFFF;filter:url(#Adobe_OpacityMaskFilter);}
	.st1{mask:url(#mask0_300_212_00000179611346095780432300000009807252234489050291_);}
	.st2{fill:#FFFFFF;}
</style>
<defs>
	<filter id="Adobe_OpacityMaskFilter" filterUnits="userSpaceOnUse" x="0" y="0" width="72" height="72">
		<feColorMatrix  type="matrix" values="1 0 0 0 0  0 1 0 0 0  0 0 1 0 0  0 0 0 1 0"/>
	</filter>
</defs>
<mask maskUnits="userSpaceOnUse" x="0" y="0" width="72" height="72" id="mask0_300_212_00000179611346095780432300000009807252234489050291_">
	<path class="st0" d="M72,0H0v72h72V0z"/>
</mask>
<g class="st1">
	<path class="st2" d="M72,48.7c0-4.3-1.2-8.5-3.5-12.2c-2.3-3.7-5.5-6.6-9.3-8.6C59,45.1,45.1,59,27.9,59.2c1.4,2.8,3.4,5.4,5.9,7.4
		c2.4,2,5.3,3.6,8.3,4.5c3.1,0.9,6.3,1.2,9.4,0.8c3.2-0.4,6.2-1.4,9-3.1l9.6,2.7c0.7,0.2,1.4-0.5,1.2-1.2l-2.7-9.6
		C70.9,57,72,52.9,72,48.7z"/>
	<path class="st2" d="M30.6,0.2C14.1-1.7,0,11.3,0,27.5c0,4.9,1.3,9.7,3.8,14L0.6,53.2c-0.2,0.7,0.5,1.4,1.2,1.2l11.7-3.2
		c4.2,2.5,9.1,3.8,14,3.8c16.2,0,29.2-14.1,27.3-30.6C53.4,11.7,43.2,1.6,30.6,0.2z M22.2,38.4l-8.4-10.9c-0.5-0.7-0.4-1.6,0.3-2.1
		l1.6-1.2c0.7-0.5,1.6-0.4,2.1,0.3l5,6.5c0.5,0.7,1.6,0.8,2.2,0.2l14.8-14.4c0.6-0.6,1.5-0.6,2.1,0l1.4,1.4c0.6,0.6,0.6,1.5,0,2.1
		L24.5,38.5C23.8,39.2,22.8,39.1,22.2,38.4z"/>
</g>
</svg>
