<?xml version="1.0" encoding="utf-8"?>
<!-- Generator: Adobe Illustrator 25.4.1, SVG Export Plug-In . SVG Version: 6.00 Build 0)  -->
<svg version="1.1" id="圖層_1" xmlns="http://www.w3.org/2000/svg" xmlns:xlink="http://www.w3.org/1999/xlink" x="0px" y="0px"
	 width="24px" height="24px" viewBox="0 0 24 24" style="enable-background:new 0 0 24 24;" xml:space="preserve">
<style type="text/css">
	.st0{fill:#66CCFF;}
</style>
<path class="st0" d="M22.5,9.3c-0.4-0.2-0.9-0.2-1.6-0.2h-6.2c-2,0-2.8,0.7-2.8,2.8v9c0,0.7,0.1,1.2,0.3,1.6
	c0.4,0.8,1.1,1.2,2.5,1.2h6.2c2,0,2.8-0.7,2.8-2.8v-9C23.7,10.5,23.3,9.7,22.5,9.3z M19,21h-2.3c0,0-0.1,0-0.1,0
	c-0.2,0-0.3-0.1-0.5-0.2c-0.2-0.2-0.3-0.4-0.3-0.7c0-0.5,0.4-0.9,0.9-0.9H19c0.5,0,0.9,0.4,0.9,0.9C19.9,20.6,19.5,21,19,21z"/>
<path class="st0" d="M22.5,5.2v0.9c0,0.6-0.5,1.2-1.2,1.2h-6.6c-3,0-4.5,1.5-4.5,4.5v10.6c0,0.6-0.5,1.2-1.2,1.2H6.8
	c-0.5,0-0.8-0.4-0.8-0.8C6,22.4,6.3,22,6.8,22h2.3v-4.5H5c-2.6-0.1-4.7-2.3-4.7-4.9V5.2c0-2.7,2.2-4.9,4.9-4.9h12.4
	C20.3,0.3,22.5,2.5,22.5,5.2z"/>
</svg>
