<?xml version="1.0" encoding="utf-8"?>
<!-- Generator: Adobe Illustrator 25.4.1, SVG Export Plug-In . SVG Version: 6.00 Build 0)  -->
<svg version="1.1" id="圖層_1" xmlns="http://www.w3.org/2000/svg" xmlns:xlink="http://www.w3.org/1999/xlink" x="0px" y="0px"
	 width="22px" height="24px" viewBox="0 0 22 24" style="enable-background:new 0 0 22 24;" xml:space="preserve">
<style type="text/css">
	.st0{fill:#66CCFF;}
</style>
<path class="st0" d="M16.6,16.2c0.8-0.5,1.8,0,1.8,1v1.5c0,1.5-1.2,3.1-2.5,3.5l-3.7,1.2c-0.7,0.2-1.7,0.2-2.4,0l-3.7-1.2
	c-1.4-0.5-2.5-2.1-2.5-3.5v-1.5c0-0.9,1-1.5,1.8-1l2.4,1.6c0.9,0.6,2.1,0.9,3.3,0.9c1.2,0,2.3-0.3,3.3-0.9L16.6,16.2z"/>
<path class="st0" d="M20.3,5.5l-7-4.6C12.1,0.1,10,0.1,8.7,1l-7,4.6c-2.3,1.5-2.3,4.8,0,6.2L3.6,13l5.2,3.4c1.3,0.8,3.3,0.8,4.6,0
	l5.1-3.4l1.6-1v3.6c0,0.5,0.4,0.9,0.9,0.9c0.5,0,0.9-0.4,0.9-0.9V9.8C22.3,8.3,21.8,6.5,20.3,5.5z"/>
</svg>
