<?xml version="1.0" encoding="utf-8"?>
<!-- Generator: Adobe Illustrator 25.4.1, SVG Export Plug-In . SVG Version: 6.00 Build 0)  -->
<svg version="1.1" id="圖層_1" xmlns="http://www.w3.org/2000/svg" xmlns:xlink="http://www.w3.org/1999/xlink" x="0px" y="0px"
	 width="24px" height="24px" viewBox="0 0 24 24" style="enable-background:new 0 0 24 24;" xml:space="preserve">
<style type="text/css">
	.st0{fill:#66CCFF;}
</style>
<path class="st0" d="M21.6,7.1l-9,5.2c-0.4,0.2-0.8,0.2-1.2,0l-9-5.2C1.8,6.8,1.6,5.9,2.1,5.3c0.3-0.4,0.7-0.7,1.1-0.9l6.3-3.5
	c1.4-0.8,3.5-0.8,4.9,0l6.3,3.5c0.4,0.2,0.8,0.5,1.1,0.9C22.4,5.9,22.2,6.8,21.6,7.1z"/>
<path class="st0" d="M11.3,14.5v8c0,0.9-0.9,1.5-1.7,1.1c-2.4-1.2-6.5-3.4-6.5-3.4c-1.4-0.8-2.6-2.8-2.6-4.5v-6c0-0.9,1-1.5,1.8-1.1
	l8.4,4.9C11.1,13.7,11.3,14.1,11.3,14.5z"/>
<path class="st0" d="M12.7,14.5v8c0,0.9,0.9,1.5,1.7,1.1c2.4-1.2,6.5-3.4,6.5-3.4c1.4-0.8,2.6-2.8,2.6-4.5v-6c0-0.9-1-1.5-1.8-1.1
	l-8.4,4.9C12.9,13.7,12.7,14.1,12.7,14.5z"/>
</svg>
