<?xml version="1.0" encoding="utf-8"?>
<!-- Generator: Adobe Illustrator 25.4.1, SVG Export Plug-In . SVG Version: 6.00 Build 0)  -->
<svg version="1.1" id="圖層_1" xmlns="http://www.w3.org/2000/svg" xmlns:xlink="http://www.w3.org/1999/xlink" x="0px" y="0px"
	 width="24px" height="24px" viewBox="0 0 24 24" style="enable-background:new 0 0 24 24;" xml:space="preserve">
<style type="text/css">
	.st0{fill:#66CCFF;}
</style>
<path class="st0" d="M23.7,17.3v3.5c0,1.6-1.3,2.9-2.9,2.9h-8.3c-1,0-1.6-1.2-0.8-2l6.8-7c0.2-0.2,0.5-0.4,0.8-0.4h1.5
	C22.4,14.3,23.7,15.6,23.7,17.3z"/>
<path class="st0" d="M19.4,11.2l-3.2,3.2l-2.9,2.9c-0.7,0.7-2,0.2-2-0.8c0-3.7,0-9.9,0-9.9c0-0.3,0.1-0.6,0.3-0.8l1.1-1.1
	c1.1-1.1,3-1.1,4.1,0L19.4,7C20.6,8.2,20.6,10,19.4,11.2z"/>
<path class="st0" d="M6.7,0.3H3.2c-1.8,0-2.9,1.2-2.9,2.9V19c0,0.3,0,0.6,0.1,0.9c0,0.2,0.1,0.3,0.1,0.5c0.1,0.2,0.1,0.4,0.2,0.5
	c0,0,0,0,0,0c0,0,0,0,0,0c0.2,0.3,0.3,0.6,0.6,0.9c0.1,0.2,0.3,0.3,0.4,0.4c0.1,0.1,0.3,0.3,0.4,0.4l0,0c0.3,0.2,0.6,0.4,0.9,0.6
	c0,0,0,0,0,0c0.2,0.1,0.3,0.1,0.5,0.2c0.2,0,0.3,0.1,0.5,0.1c0.3,0.1,0.6,0.1,0.9,0.1c0.5,0,1-0.1,1.4-0.2c0.1,0,0.3-0.1,0.4-0.2
	c0.4-0.2,0.8-0.4,1.2-0.7c0.1-0.1,0.2-0.2,0.3-0.3l0,0c0.8-0.8,1.3-2,1.3-3.3V3.3C9.7,1.5,8.5,0.3,6.7,0.3z M5,20.8
	c-1,0-1.8-0.8-1.8-1.8c0-1,0.8-1.8,1.8-1.8c1,0,1.8,0.8,1.8,1.8C6.7,20,6,20.8,5,20.8z"/>
</svg>
