<?xml version="1.0" encoding="utf-8"?>
<!-- Generator: Adobe Illustrator 25.4.1, SVG Export Plug-In . SVG Version: 6.00 Build 0)  -->
<svg version="1.1" id="圖層_1" xmlns="http://www.w3.org/2000/svg" xmlns:xlink="http://www.w3.org/1999/xlink" x="0px" y="0px"
	 width="72px" height="72px" viewBox="0 0 72 72" style="enable-background:new 0 0 72 72;" xml:space="preserve">
<style type="text/css">
	.st0{fill:#FFFFFF;filter:url(#Adobe_OpacityMaskFilter);}
	.st1{mask:url(#mask0_300_212_00000179611346095780432300000009807252234489050291_);}
	.st2{fill:#FFFFFF;}
</style>
<defs>
	<filter id="Adobe_OpacityMaskFilter" filterUnits="userSpaceOnUse" x="0" y="0" width="72" height="72">
		<feColorMatrix  type="matrix" values="1 0 0 0 0  0 1 0 0 0  0 0 1 0 0  0 0 0 1 0"/>
	</filter>
</defs>
<mask maskUnits="userSpaceOnUse" x="0" y="0" width="72" height="72" id="mask0_300_212_00000179611346095780432300000009807252234489050291_">
	<path class="st0" d="M72,0H0v72h72V0z"/>
</mask>
<g class="st1">
	<path class="st2" d="M72,48.7c0-4.3-1.2-8.5-3.5-12.2c-2.3-3.7-5.5-6.6-9.3-8.6C59,45.1,45.1,59,27.9,59.2c1.4,2.8,3.4,5.4,5.9,7.4
		c2.4,2,5.3,3.6,8.3,4.5c3.1,0.9,6.3,1.2,9.4,0.8c3.2-0.4,6.2-1.4,9-3.1l11.3,3.1l-3.1-11.3C70.9,57,72,52.9,72,48.7z"/>
	<path class="st2" d="M55,27.5C55,12.3,42.7,0,27.5,0S0,12.3,0,27.5c0,4.9,1.3,9.7,3.8,14L0.1,54.9l13.4-3.7c4.2,2.5,9.1,3.8,14,3.8
		C42.7,55,55,42.7,55,27.5z M23.3,21.1h-4.2c0-1.4,0.4-2.8,1-4c0.7-1.2,1.6-2.3,2.8-3c1.2-0.8,2.5-1.2,3.9-1.3
		c1.4-0.1,2.8,0.1,4.1,0.7c1.3,0.6,2.4,1.4,3.3,2.6c0.9,1.1,1.4,2.4,1.7,3.8c0.2,1.4,0.1,2.8-0.4,4.1c-0.5,1.3-1.2,2.5-2.3,3.5
		l-3.6,3.3v3.3h-4.2v-5.1l5-4.5c0.4-0.4,0.8-0.9,1-1.4c0.2-0.5,0.4-1.1,0.4-1.7c0-1.1-0.4-2.2-1.2-3c-0.8-0.8-1.9-1.2-3-1.2
		c-1.1,0-2.2,0.4-3,1.2C23.7,18.9,23.3,20,23.3,21.1z M25.4,38.1h4.2v4.2h-4.2V38.1z"/>
</g>
</svg>
