<?xml version="1.0" encoding="utf-8"?>
<!-- Generator: Adobe Illustrator 25.4.1, SVG Export Plug-In . SVG Version: 6.00 Build 0)  -->
<svg version="1.1" id="圖層_1" xmlns="http://www.w3.org/2000/svg" xmlns:xlink="http://www.w3.org/1999/xlink" x="0px" y="0px"
	 viewBox="0 0 122 23" style="enable-background:new 0 0 122 23;" xml:space="preserve">
<style type="text/css">
	.st0{fill:#66CCFF;}
</style>
<g>
	<g>
		<path d="M39.8,7h5c0.4,0,0.8,0.1,1.2,0.2c0.4,0.1,0.7,0.3,1,0.6c0.3,0.2,0.5,0.5,0.6,0.9c0.2,0.3,0.2,0.7,0.2,1.1
			c0,0.7-0.1,1.3-0.5,1.7C47,12,46.6,12.4,46,12.7c0.4,0.3,0.8,0.6,1.1,1c0.3,0.4,0.4,0.9,0.4,1.5c0,0.6-0.1,1.1-0.3,1.6
			c-0.2,0.5-0.5,0.9-0.9,1.2c-0.4,0.3-0.8,0.6-1.4,0.8c-0.5,0.2-1.2,0.3-1.8,0.3h-5.3L39.8,7z M40.7,16.7h2.5c0.5,0,1-0.1,1.3-0.4
			c0.3-0.3,0.5-0.5,0.5-1c0-0.4-0.1-0.6-0.4-0.9C44.3,14.1,44,14,43.7,14h-2.5L40.7,16.7z M41.5,11.8h2.3c0.5,0,0.9-0.1,1.2-0.3
			c0.3-0.2,0.4-0.6,0.4-1c0-0.3-0.1-0.7-0.3-0.9c-0.2-0.2-0.5-0.3-0.8-0.3h-2.3L41.5,11.8z"/>
		<path d="M55.1,19c-1.4,0-2.6,0-2-2.6c0,0,1.2-6.8,1.2-6.9c0-0.3-0.1-0.4-0.3-0.4c-0.1,0-0.3,0-0.6,0l0.4-2h1.1
			c2.2,0,2.2,0.8,1.9,2.3c0,0-1.2,7.1-1.2,7.3c0,0.1,0,0.2,0,0.3c0.1,0.1,0.1,0.1,0.3,0.1c0.1,0,1.1,0,1.1,0l-0.4,2H55.1z"/>
		<path d="M63.3,11l2.3,0l-0.3,1.5c0.4-0.7,0.9-1.2,1.5-1.6c0.6-0.4,1.1-0.6,1.8-0.6c0.9,0,1.4,0.3,1.8,1c0.3,0.7,0.4,1.6,0.1,2.8
			l-0.9,5h-2.4l0.8-4.9c0.1-0.6,0.1-1,0-1.3c-0.1-0.3-0.3-0.4-0.6-0.4c-0.3,0-0.6,0.1-0.9,0.4c-0.3,0.2-0.6,0.6-0.8,1
			c-0.3,0.4-0.5,1-0.7,1.6c-0.2,0.6-0.4,1.3-0.5,2.1L64.2,19H62L63.3,11z"/>
		<path d="M74.4,13.3L74.4,13.3l2.5-2.8h2.6L79.5,11l-3.3,3.6l1.8,3.9L77.9,19h-2.3l-1.5-3.5l0,0L73.4,19H71l2-12h2.4L74.4,13.3z"/>
		<path d="M81.9,7h4.9c4.7,0,4.6,8-1.5,8H83l-0.5,4h-2.5L81.9,7z M83.4,12.6h2.2c1.4,0,2-0.9,2-1.9c0-0.7-0.5-1.4-1.4-1.4h-2.3
			L83.4,12.6z"/>
		<path d="M98.3,16.3c-0.1,0.5,0.2,0.5,0.9,0.5L98.8,19c0,0-3.1,0.6-2.9-1.7c-2,2.8-4.1,1.9-4.8,1c-1-1.4-0.7-3.5-0.3-4.6
			c1.2-3.6,5-4.4,6.1-2.3l0.1-0.8h2.2C99.3,10.5,98.4,16.1,98.3,16.3z M94,17c0.2,0,0.5-0.1,0.7-0.2c0.2-0.1,0.5-0.3,0.7-0.6
			c0.2-0.2,0.4-0.5,0.6-0.8c0.2-0.3,0.3-0.7,0.4-1l0-0.2c0.1-0.6,0.1-1-0.1-1.3c-0.2-0.3-0.5-0.5-0.8-0.5c-0.3,0-0.6,0.1-0.9,0.3
			c-0.3,0.2-0.5,0.4-0.7,0.7c-0.2,0.3-0.4,0.6-0.5,1c-0.1,0.4-0.2,0.8-0.2,1.2c0,0.5,0.1,0.9,0.3,1.1C93.5,16.9,93.7,17,94,17z"/>
		<path d="M107.3,18.6c-0.8,3-3.1,4.1-5,4.3c-1.5,0.1-2.7,0-2.7,0l0.4-2l2.3-0.1c3-0.2,3-4,3-4c-1.8,2.8-5.7,3.1-4.6-1.8l0.8-4.6
			h2.1l-0.7,4.5c-0.2,1.1-0.1,1.7,0.5,1.7c2.2,0,3.1-6.2,3.1-6.2h2.3L107.3,18.6z"/>
		<path d="M59.8,7H62l-0.4,2h-2.2L59.8,7z"/>
		<path d="M61.3,11L60,19h-2.2l1.3-8H61.3z"/>
		<path d="M50.2,7h2.3l-0.3,2h-2.3L50.2,7z"/>
		<path d="M51.9,11l-1.2,8h-2.4l1.3-8H51.9z"/>
	</g>
	<path class="st0" d="M31.9,11c0.9-1,1.5-2.2,1.7-3.6c0.4-3-1.4-5.4-4-5.4h-1.9L28,0h-3l-0.3,2h-2.5h-1h-4.9L15.9,5h4.9h1h2.4
		l-0.8,4.9h-2l0.4-2.5l0.2-1H19l-0.2,1l-0.4,2.5l-0.5,3l-0.8,5h-3.4l-0.5,3h3.4l-0.3,2h3l0.3-2h7.5c3,0,5.8-2.5,6.3-5.6
		C33.7,13.6,33.1,12,31.9,11z M27.1,5h2c1,0,1.7,1.1,1.5,2.5c-0.2,1.3-1.2,2.5-2.3,2.5h-2L27.1,5z M27.6,18h-7.4l0.8-5h2l-0.6,3.5h3
		l0.5-3.5h2h0.4c1.4,0,2.3,1.1,2.1,2.5C30.2,16.8,29,18,27.6,18z"/>
</g>
</svg>
