<?xml version="1.0" encoding="utf-8"?>
<!-- Generator: Adobe Illustrator 25.4.1, SVG Export Plug-In . SVG Version: 6.00 Build 0)  -->
<svg version="1.1" id="圖層_1" xmlns="http://www.w3.org/2000/svg" xmlns:xlink="http://www.w3.org/1999/xlink" x="0px" y="0px"
	 viewBox="0 0 122 22" style="enable-background:new 0 0 122 22;" xml:space="preserve">
<style type="text/css">
	.st0{fill:#FFFFFF;}
	.st1{fill:#66CCFF;}
</style>
<g>
	<g>
		<path class="st0" d="M40.7,6.7h4.8c0.4,0,0.8,0.1,1.2,0.2C47,7,47.3,7.2,47.6,7.4C47.8,7.7,48,8,48.2,8.3c0.1,0.3,0.2,0.7,0.2,1.1
			c0,0.6-0.1,1.2-0.4,1.7c-0.3,0.5-0.8,0.8-1.3,1.1c0.4,0.2,0.8,0.6,1,1s0.4,0.9,0.4,1.4s-0.1,1-0.3,1.5c-0.2,0.4-0.5,0.8-0.8,1.1
			c-0.4,0.3-0.8,0.6-1.3,0.7c-0.5,0.2-1.1,0.3-1.7,0.3h-5.1L40.7,6.7z M41.5,15.9H44c0.5,0,0.9-0.1,1.2-0.4c0.3-0.3,0.5-0.5,0.4-1
			c0-0.3-0.1-0.6-0.3-0.8s-0.5-0.3-0.9-0.3H42L41.5,15.9z M42.4,11.3h2.2c0.5,0,0.9-0.1,1.1-0.3c0.3-0.2,0.4-0.5,0.4-0.9
			c0-0.3-0.1-0.7-0.3-0.9S45.3,8.9,45,8.9h-2.2L42.4,11.3z"/>
		<path class="st0" d="M55.4,18.2c-1.3,0-2.5,0-1.9-2.5c0,0,1.1-6.5,1.2-6.6c0-0.3-0.1-0.4-0.3-0.4c-0.1,0-0.3,0-0.6,0l0.4-1.9h1.1
			c2.1,0,2.1,0.7,1.8,2.2c0,0-1.1,6.8-1.1,7c0,0.1,0,0.2,0,0.3c0,0.1,0.1,0.1,0.3,0.1c0.1,0,1.1,0,1.1,0L57,18.3L55.4,18.2
			L55.4,18.2z"/>
		<path class="st0" d="M63.2,10.5h2.2l-0.3,1.4c0.4-0.7,0.9-1.2,1.4-1.5c0.5-0.4,1.1-0.5,1.7-0.5c0.8,0,1.4,0.3,1.7,1
			c0.3,0.6,0.4,1.5,0.1,2.7l-0.9,4.7h-2.3l0.8-4.7c0.1-0.6,0.1-1,0-1.2C67.5,12.1,67.3,12,67,12c-0.3,0-0.5,0.1-0.8,0.3
			s-0.5,0.5-0.8,1c-0.2,0.4-0.5,0.9-0.7,1.5s-0.4,1.3-0.5,2l-0.3,1.4h-2.1L63.2,10.5z"/>
		<path class="st0" d="M73.9,12.7L73.9,12.7l2.4-2.7h2.5l-0.1,0.5l-3.1,3.4l1.7,3.7l-0.1,0.5H75l-1.5-3.4l0,0l-0.6,3.4h-2.3
			l1.9-11.5h2.3L73.9,12.7z"/>
		<path class="st0" d="M81,6.7h4.7c4.5,0,4.4,7.7-1.4,7.7H82l-0.5,3.8h-2.4L81,6.7z M82.4,12.1h2.1c1.3,0,1.9-0.9,1.9-1.8
			C86.5,9.6,86,9,85.1,9h-2.2L82.4,12.1z"/>
		<path class="st0" d="M96.7,15.6c0,0.5,0.2,0.5,0.9,0.5l-0.4,2.1c0,0-2.9,0.5-2.7-1.6c-1.9,2.7-3.9,1.8-4.6,0.9
			c-1-1.3-0.7-3.4-0.3-4.4c1.2-3.5,4.8-4.2,5.9-2.2l0.1-0.8h2.1C97.6,10.1,96.7,15.4,96.7,15.6z M92.6,16.3c0.2,0,0.4-0.1,0.7-0.2
			c0.2-0.1,0.4-0.3,0.6-0.5s0.4-0.5,0.5-0.8c0.2-0.3,0.3-0.6,0.3-1v-0.2c0.1-0.5,0.1-1-0.1-1.2c-0.2-0.3-0.4-0.4-0.8-0.4
			c-0.3,0-0.6,0.1-0.9,0.2c-0.3,0.2-0.5,0.4-0.7,0.7s-0.4,0.6-0.5,0.9c-0.1,0.4-0.2,0.7-0.2,1.1c0,0.5,0.1,0.8,0.2,1.1
			C92.1,16.1,92.3,16.3,92.6,16.3z"/>
		<path class="st0" d="M105.3,17.8c-0.7,2.8-2.9,3.9-4.8,4.1c-1.4,0.1-2.6,0-2.6,0l0.4-1.9l2.2-0.1c2.9-0.2,2.8-3.9,2.8-3.9
			c-1.7,2.7-5.4,2.9-4.4-1.7l0.8-4.4h2l-0.7,4.3c-0.2,1.1-0.1,1.6,0.5,1.6c2.1,0,3-5.9,3-5.9h2.2L105.3,17.8z"/>
		<path class="st0" d="M59.8,6.7h2.1l-0.3,1.9h-2.1L59.8,6.7z"/>
		<path class="st0" d="M61.3,10.5l-1.2,7.6h-2.2l1.2-7.6H61.3z"/>
		<path class="st0" d="M50.7,6.7h2.2l-0.3,1.9h-2.2L50.7,6.7z"/>
		<path class="st0" d="M52.3,10.5l-1.2,7.6h-2.3l1.2-7.6H52.3z"/>
	</g>
	<path class="st1" d="M33.1,10.6c0.8-0.9,1.5-2.1,1.6-3.4C35.2,4.3,33.5,2,31,2h-1.8l0.3-2h-2.9l-0.3,2h-2.4H23h-4.7l-0.5,2.8h4.7
		h0.9h2.3L25,9.5h-1.9l0.4-2.4l0.2-0.9h-2.8l-0.2,0.9l-0.4,2.4l-0.5,2.9L19,17.2h-3.2l-0.5,2.9h3.2L18.3,22h2.9l0.3-1.9h7.1
		c2.9,0,5.6-2.4,6-5.3C34.9,13,34.3,11.5,33.1,10.6z M28.6,4.8h1.9c1,0,1.6,1.1,1.5,2.4c-0.2,1.3-1.2,2.4-2.2,2.4h-1.9L28.6,4.8z
		 M29,17.2h-7.1l0.8-4.8h1.9L24,15.7h2.8l0.5-3.4h2h0.4c1.3,0,2.2,1.1,2,2.4C31.6,16.1,30.3,17.2,29,17.2z"/>
</g>
</svg>
